<?xml version="1.0" standalone="no"?>
<!DOCTYPE svg PUBLIC "-//W3C//DTD SVG 1.1//EN" "http://www.w3.org/Graphics/SVG/1.1/DTD/svg11.dtd" >
<svg>
<defs>
<font id="CervoNeue-SemiBoldNeue" horiz-adv-x="508" >
  <font-face 
    font-family="Cervo Neue SemiBold Neue"
    font-weight="600"
    font-stretch="normal"
    units-per-em="1000"
    panose-1="0 0 7 0 0 0 0 0 0 0"
    ascent="800"
    descent="-200"
    x-height="534"
    cap-height="750"
    bbox="-595 -286.857 1046.95 1036.5"
    underline-thickness="50"
    underline-position="-50"
    unicode-range="U+0020-U+25CA"
  />
<missing-glyph horiz-adv-x="504" 
d="M413 800v-1008h-319v1008h319zM336 732h-167v-33h66v-37h-67v-33h168v33h-67v37h67v33zM269 602h-101v-104h168v34h-67v70zM235 568v-36h-33v36h33zM336 470h-168v-33h67v-37h-67v-33h101v70h67v33zM336 410h-34v-67h-134v-34h168v101zM336 287h-101v-57h34v24h33v-48
h-100v81h-34v-114h168v114zM336 113h-168v-114h168v114zM302 79v-47h-100v47h100zM336 -25h-168v-33h71l-71 -47v-33h168v33h-103l70 47h33v33z" />
    <glyph glyph-name=".notdef" horiz-adv-x="504" 
d="M413 800v-1008h-319v1008h319zM336 732h-167v-33h66v-37h-67v-33h168v33h-67v37h67v33zM269 602h-101v-104h168v34h-67v70zM235 568v-36h-33v36h33zM336 470h-168v-33h67v-37h-67v-33h101v70h67v33zM336 410h-34v-67h-134v-34h168v101zM336 287h-101v-57h34v24h33v-48
h-100v81h-34v-114h168v114zM336 113h-168v-114h168v114zM302 79v-47h-100v47h100zM336 -25h-168v-33h71l-71 -47v-33h168v33h-103l70 47h33v33z" />
    <glyph glyph-name=".null" horiz-adv-x="0" 
 />
    <glyph glyph-name="nonmarkingreturn" horiz-adv-x="333" 
 />
    <glyph glyph-name="space" unicode=" " horiz-adv-x="225" 
 />
    <glyph glyph-name="exclam" unicode="!" horiz-adv-x="250" 
d="M82 258l-12 471q0 21 21 21h88q21 0 21 -21l-12 -471q0 -21 -21 -21h-64q-21 0 -21 21zM135 -9q-31 0 -53.5 22.5t-22.5 53.5t22.5 53.5t53.5 22.5t53.5 -22.5t22.5 -53.5t-22.5 -53.5t-53.5 -22.5z" />
    <glyph glyph-name="quotedbl" unicode="&#x22;" horiz-adv-x="319" 
d="M42 528l-8 202q0 12 4.5 16t15.5 4h60q11 0 15.5 -4t4.5 -16l-8 -202q-1 -11 -4.5 -15.5t-14.5 -4.5h-46q-11 0 -14.5 4.5t-4.5 15.5zM194 528l-8 202q-1 12 3.5 16t16.5 4h59q12 0 16.5 -4t3.5 -16l-8 -202q0 -20 -19 -20h-45q-19 0 -19 20z" />
    <glyph glyph-name="numbersign" unicode="#" horiz-adv-x="638" 
d="M587 554q21 0 21 -21v-81q0 -21 -21 -21h-91l-20 -112h73q21 0 21 -21v-81q0 -21 -21 -21h-94l-32 -177q-2 -11 -7 -15t-16 -4h-81q-24 0 -19 23l31 173h-87l-32 -177q-2 -11 -7 -15t-16 -4h-81q-24 0 -19 23l31 173h-69q-21 0 -21 21v81q0 21 21 21h91l20 112h-73
q-21 0 -21 21v81q0 21 21 21h95l31 177q4 19 24 19h81q23 0 18 -23l-31 -173h88l31 177q4 19 24 19h81q23 0 18 -23l-31 -173h69zM353 319l20 112h-88l-20 -112h88z" />
    <glyph glyph-name="dollar" unicode="$" horiz-adv-x="492" 
d="M457 184q0 -76 -45.5 -124.5t-111.5 -63.5v-51q0 -21 -21 -21h-52q-21 0 -21 21v50q-70 14 -115 66.5t-46 127.5q0 18 13 18h85q17 0 18 -15q4 -37 27 -65.5t63 -28.5q34 0 56 21.5t24 56.5q3 37 -24 74.5t-68 71.5l-82 70t-70.5 85.5t-29.5 103.5q0 67 40.5 115.5
t108.5 59.5v48q0 21 21 21h52q21 0 21 -21v-52q61 -16 95 -64t36 -113q0 -18 -13 -18h-85q-17 0 -18 15q-5 33 -22 56t-46 23q-30 0 -48 -21t-16 -50q3 -29 32.5 -63t69 -67.5t79 -71.5t66.5 -88.5t27 -105.5z" />
    <glyph glyph-name="percent" unicode="%" horiz-adv-x="680" 
d="M175 487q-56 0 -96 40t-40 96t40 96t96 40t96 -40t40 -96t-40 -96t-96 -40zM573 750q9 0 13 -5t-1 -16l-380 -708q-7 -12 -11.5 -16.5t-15.5 -4.5h-71q-9 0 -13 5t1 16l380 708q7 12 11.5 16.5t15.5 4.5h71zM175 565q24 0 41.5 17t17.5 41t-17.5 41.5t-41.5 17.5
t-42 -17.5t-18 -41.5t18 -41t42 -17zM506 -9q-56 0 -96 40t-40 96t40 96t96 40t96 -40t40 -96t-40 -96t-96 -40zM506 68q24 0 41.5 17.5t17.5 41.5t-17.5 41t-41.5 17t-41.5 -17t-17.5 -41t17.5 -41.5t41.5 -17.5z" />
    <glyph glyph-name="ampersand" unicode="&#x26;" horiz-adv-x="501" 
d="M450 384q21 0 21 -21v-57q0 -21 -21 -21h-32q-11 0 -15 -4t-4 -15v-90q0 -98 -51 -141.5t-120 -43.5q-77 0 -128 48.5t-51 152.5v65q0 83 53 133q-53 48 -53 131v37q0 104 51 152.5t127 48.5q62 0 109.5 -34.5t55.5 -108.5q2 -18 -13 -18h-75q-13 0 -17 12q-15 42 -55 42
q-25 0 -44 -19t-19 -57v-54q0 -38 19 -56.5t44 -18.5q21 0 21 -21v-71q0 -21 -21 -21q-25 0 -44 -19t-19 -57v-84q0 -38 20 -57t47 -19t47 19t20 57v189q0 21 21 21h126z" />
    <glyph glyph-name="quotesingle" unicode="'" horiz-adv-x="168" 
d="M42 528l-8 202q0 12 4.5 16t15.5 4h60q11 0 15.5 -4t4.5 -16l-8 -202q-1 -11 -4.5 -15.5t-14.5 -4.5h-46q-11 0 -14.5 4.5t-4.5 15.5z" />
    <glyph glyph-name="parenleft" unicode="(" horiz-adv-x="339" 
d="M208 636v-603q0 -33 18 -51t48 -19q21 0 21 -21v-64q0 -21 -21 -21q-185 0 -185 175v605q0 177 185 175q21 0 21 -21v-64q0 -21 -21 -21q-30 -1 -48 -19t-18 -51z" />
    <glyph glyph-name="parenright" unicode=")" horiz-adv-x="339" 
d="M131 637q0 32 -17.5 50.5t-48.5 19.5q-21 0 -21 21v64q0 21 21 21q186 1 186 -175v-606q0 -175 -186 -175q-21 0 -21 21v64q0 21 21 21q31 1 48.5 19t17.5 51v604z" />
    <glyph glyph-name="asterisk" unicode="*" horiz-adv-x="451" 
d="M401 553q17 -11 8 -26l-41 -55q-12 -17 -26 -5l-72 60l8 -95q3 -21 -19 -21h-67q-22 0 -19 21l8 95l-72 -60q-14 -12 -26 5l-41 55q-9 15 8 26l87 48l-87 49q-18 11 -8 25l41 55q11 18 26 5l72 -59l-8 95q-3 21 19 21h67q22 0 19 -21l-8 -95l72 59q15 13 26 -5l41 -55
q10 -14 -8 -25l-87 -49z" />
    <glyph glyph-name="plus" unicode="+" horiz-adv-x="530" 
d="M470 407q21 0 21 -21v-50q0 -21 -21 -21h-140q-11 0 -15 -4t-4 -15v-140q0 -21 -21 -21h-50q-21 0 -21 21v140q0 11 -4 15t-15 4h-140q-21 0 -21 21v50q0 21 21 21h140q11 0 15 4t4 15v139q0 21 21 21h50q21 0 21 -21v-139q0 -11 4 -15t15 -4h140z" />
    <glyph glyph-name="comma" unicode="," horiz-adv-x="239" 
d="M105 -16q-4 8 -18.5 18t-25.5 23t-11 34q0 29 21 50t52 21q53 0 74.5 -53t-6.5 -127q-25 -61 -75 -108q-12 -12 -24 -2l-23 19q-9 9 -1 21q14 19 22 31.5t16 29t6.5 24.5t-7.5 19z" />
    <glyph glyph-name="hyphen" unicode="-" horiz-adv-x="342" 
d="M282 335q21 0 21 -21v-50q0 -21 -21 -21h-222q-21 0 -21 21v50q0 21 21 21h222z" />
    <glyph glyph-name="period" unicode="." horiz-adv-x="250" 
d="M135 -9q-31 0 -53.5 22.5t-22.5 53.5t22.5 53.5t53.5 22.5q32 0 54.5 -22t22.5 -54t-22.5 -54t-54.5 -22z" />
    <glyph glyph-name="slash" unicode="/" horiz-adv-x="511" 
d="M447 780q19 0 12 -21l-283 -854q-7 -21 -27 -21h-85q-19 0 -12 21l283 854q7 21 27 21h85z" />
    <glyph glyph-name="zero" unicode="0" 
d="M254 -9q-100 0 -152.5 64t-52.5 177v286q0 113 52.5 177t152.5 64q99 0 151.5 -64t52.5 -177v-286q0 -113 -52.5 -177t-151.5 -64zM254 108q39 0 59 33t20 90v287q0 58 -20 91t-59 33t-59 -33t-20 -91v-287q0 -57 20 -90t59 -33z" />
    <glyph glyph-name="one" unicode="1" horiz-adv-x="369" 
d="M279 750q21 0 21 -21v-708q0 -21 -21 -21h-83q-21 0 -21 21v541l-69 -69q-14 -16 -30 0l-53 53q-16 14 0 30l160 161q13 13 24 13h72z" />
    <glyph glyph-name="two" unicode="2" horiz-adv-x="428" 
d="M61 0q-21 0 -21 21v126q0 72 22.5 131t55.5 97t66 70.5t58 66.5t27 70q3 34 -14.5 54t-44.5 20q-43 0 -55 -47q-1 -12 -17 -12h-75q-13 0 -13 18q2 70 50 107t115 37q78 0 127 -48t45 -132q-3 -51 -28 -96t-58.5 -79.5l-67 -69.5t-56.5 -80t-23 -95v-28q0 -11 4 -15
t15 -4h189q21 0 21 -21v-70q0 -21 -21 -21h-301z" />
    <glyph glyph-name="three" unicode="3" horiz-adv-x="441" 
d="M214 -9q-62 0 -109 34.5t-56 108.5q-2 18 13 18h75q13 0 17 -12q15 -42 55 -42q26 0 44.5 19t18.5 57v84q0 38 -18.5 57t-44.5 19h-40q-21 0 -21 21v71q0 21 21 21h40q26 0 44.5 18.5t18.5 56.5v54q0 38 -18.5 57t-44.5 19q-38 0 -55 -43q-3 -12 -17 -12h-75
q-15 0 -13 18q9 74 56 109t109 35q76 0 127 -48.5t51 -152.5v-37q0 -83 -53 -131q53 -50 53 -133v-65q0 -104 -51 -152.5t-127 -48.5z" />
    <glyph glyph-name="four" unicode="4" horiz-adv-x="444" 
d="M393 296q21 0 21 -21v-70q0 -21 -21 -21h-10q-11 0 -15 -4t-4 -15v-144q0 -21 -21 -21h-84q-21 0 -21 21v144q0 11 -4 15t-15 4h-188q-21 0 -21 21v62q0 15 11 37l223 433q6 13 24 13h75q21 0 21 -21v-414q0 -11 4 -15t15 -4h10zM238 315v208l-102 -227h83q11 0 15 4
t4 15z" />
    <glyph glyph-name="five" unicode="5" horiz-adv-x="442" 
d="M244 520q59 3 104 -44.5t45 -150.5v-133q0 -104 -51 -152.5t-127 -48.5q-62 0 -109 34.5t-56 108.5q-2 18 13 18h76q13 0 17 -12q13 -42 54 -42q26 0 44.5 19t18.5 57v170q0 38 -18.5 56.5t-44.5 18.5q-40 0 -55 -44q-4 -12 -17 -12h-67q-21 0 -21 21l-1 345q0 21 21 21
h286q21 0 21 -21v-70q0 -21 -21 -21h-181q-11 0 -15 -4t-4 -15v-143q34 41 88 44z" />
    <glyph glyph-name="six" unicode="6" horiz-adv-x="462" 
d="M254 482q61 5 110 -38.5t49 -139.5v-112q0 -102 -54.5 -151.5t-127.5 -49.5t-127.5 49.5t-54.5 151.5v366q0 104 51 152.5t127 48.5q62 0 109.5 -34.5t55.5 -108.5q2 -18 -13 -18h-75q-13 0 -17 12q-15 42 -55 42q-25 0 -44 -19t-19 -57v-136q35 37 85 42zM293 176v122
q0 39 -18.5 58t-43.5 19t-43.5 -19t-18.5 -58v-122q0 -40 18.5 -59t43.5 -19t43.5 19t18.5 59z" />
    <glyph glyph-name="seven" unicode="7" horiz-adv-x="379" 
d="M328 750q21 0 21 -21v-59q0 -18 -5 -35l-134 -614q-6 -21 -27 -21h-89q-18 0 -12 21l131 605q3 12 -8 12h-163q-21 0 -21 21v70q0 21 21 21h286z" />
    <glyph glyph-name="eight" unicode="8" horiz-adv-x="463" 
d="M231 -9q-79 0 -130.5 46.5t-51.5 143.5v64q0 88 65 147q-59 53 -59 141v36q0 97 50.5 143.5t125.5 46.5q76 0 126.5 -46.5t50.5 -143.5v-36q0 -88 -59 -141q65 -59 65 -147v-64q0 -97 -51.5 -143.5t-131.5 -46.5zM231 450q26 0 44.5 18.5t18.5 56.5v54q0 38 -19 57
t-44 18q-25 0 -43.5 -18.5t-18.5 -56.5v-54q0 -38 18.5 -56.5t43.5 -18.5zM231 98q26 0 44.5 19t18.5 57v84q0 40 -18.5 59t-44.5 19q-25 0 -43.5 -19t-18.5 -59v-84q0 -38 18.5 -57t43.5 -19z" />
    <glyph glyph-name="nine" unicode="9" horiz-adv-x="462" 
d="M208 275q-61 -5 -110 38t-49 139v106q0 102 54.5 151.5t127.5 49.5t127.5 -49.5t54.5 -151.5v-366q0 -104 -51 -152.5t-127 -48.5q-62 0 -109.5 34.5t-55.5 108.5q-2 18 13 18h75q13 0 17 -12q15 -42 55 -42q25 0 44 19t19 57v143q-34 -38 -85 -42zM169 574v-116
q0 -39 18.5 -58t43.5 -19t43.5 19t18.5 58v116q0 40 -18.5 59t-43.5 19t-43.5 -19t-18.5 -59z" />
    <glyph glyph-name="colon" unicode=":" horiz-adv-x="250" 
d="M135 296q-31 0 -53.5 22t-22.5 54q0 31 22 53t54 22t54 -22t22 -53q0 -32 -22.5 -54t-53.5 -22zM135 -9q-31 0 -53.5 22.5t-22.5 53.5t22.5 53.5t53.5 22.5t53.5 -22.5t22.5 -53.5t-22.5 -53.5t-53.5 -22.5z" />
    <glyph glyph-name="semicolon" unicode=";" horiz-adv-x="244" 
d="M130 296q-32 0 -54.5 22t-22.5 54q0 31 22.5 53t54.5 22q31 0 53 -22t22 -53t-22 -53.5t-53 -22.5zM108 -16q-4 8 -18.5 18t-25.5 23t-11 34q0 29 21 50t52 21q52 0 74 -53t-6 -127q-25 -61 -75 -108q-12 -12 -24 -2l-23 19q-9 9 -1 21q14 19 22 31.5t16 29t6.5 24.5
t-7.5 19z" />
    <glyph glyph-name="less" unicode="&#x3c;" horiz-adv-x="378" 
d="M325 312l-126 -87q-5 -3 -5 -8t5 -8l126 -87q14 -11 14 -30v-82q0 -7 -5 -9.5t-14 3.5l-274 198q-8 6 -8 15t8 15l274 198q9 6 14 3.5t5 -9.5v-82q0 -19 -14 -30z" />
    <glyph glyph-name="equal" unicode="=" horiz-adv-x="429" 
d="M369 507q21 0 21 -21v-50q0 -21 -21 -21h-309q-21 0 -21 21v50q0 21 21 21h309zM369 307q21 0 21 -21v-50q0 -21 -21 -21h-309q-21 0 -21 21v50q0 21 21 21h309z" />
    <glyph glyph-name="greater" unicode="&#x3e;" horiz-adv-x="378" 
d="M53 312q-14 10 -14 30v82q0 7 5 9.5t14 -3.5l273 -198q8 -6 8 -15t-8 -15l-273 -198q-9 -6 -14 -3.5t-5 9.5v82q0 20 14 30l125 87q4 3 4 8t-4 8z" />
    <glyph glyph-name="question" unicode="?" horiz-adv-x="459" 
d="M227 759q81 0 137.5 -51t55.5 -133q0 -40 -15.5 -75.5t-38 -62l-45 -52.5t-39 -59t-17.5 -69q-1 -21 -21 -21h-58q-21 0 -21 21q0 61 21 109.5t46 74t46 57t21 61.5q0 36 -24 60t-59 24q-44 0 -80 -40q-16 -19 -31 -5l-49 48q-13 12 0 30q65 83 171 83zM216 -10
q-32 0 -54.5 22.5t-22.5 54.5q0 31 22.5 53t54.5 22q31 0 53 -22t22 -53q0 -32 -22 -54.5t-53 -22.5z" />
    <glyph glyph-name="at" unicode="@" horiz-adv-x="1136" 
d="M570 759q130 0 238 -64.5t170.5 -173t67.5 -237.5q8 -168 -51.5 -285.5t-167.5 -126.5q-85 -7 -132.5 38.5t-47.5 120.5v46q-48 -32 -98 -36q-94 -9 -160 55t-68 162q-2 100 62 169t164 69q51 0 100 -22v5q0 18 21 18h59q21 0 21 -21v-438q0 -40 21.5 -59.5t52.5 -17.5
q45 3 77 56t44 122.5t8 139.5q-8 168 -113.5 278t-267.5 110q-164 0 -276.5 -112.5t-112.5 -275.5q0 -164 112 -276.5t275 -112.5q21 0 21 -21v-49q0 -21 -21 -21q-130 0 -240.5 64.5t-174.5 175t-64 240.5t64 240.5t175 175t242 64.5zM556 141q48 0 91 31v197
q-44 21 -87 21q-55 0 -91 -35.5t-36 -90.5q0 -54 35 -88.5t88 -34.5z" />
    <glyph glyph-name="A" unicode="A" horiz-adv-x="498" 
d="M25 20l164 710q3 12 8.5 16t18.5 4h67q12 0 17.5 -4t8.5 -16l164 -710q5 -20 -15 -20h-87q-18 0 -23 20l-22 102q-2 9 -6 11.5t-14 2.5h-113q-11 0 -15 -2.5t-5 -11.5l-23 -102q-5 -20 -23 -20h-87q-19 0 -15 20zM196 259q-2 -11 8 -11h90q10 0 8 11l-47 237q-1 5 -6 5
t-6 -5z" />
    <glyph glyph-name="B" unicode="B" horiz-adv-x="484" 
d="M75 0q-21 0 -21 21v708q0 21 21 21h180q81 0 131.5 -53t50.5 -135v-15q0 -54 -23 -94t-55 -60q44 -19 68.5 -66.5t24.5 -108.5v-20q0 -89 -51.5 -143.5t-140.5 -54.5h-185zM199 447h40q33 0 54 23t21 65v16q0 42 -20.5 64.5t-54.5 22.5h-40q-11 0 -15 -4t-4 -17v-151
q0 -11 4 -15t15 -4zM199 112h42q39 0 62.5 25.5t23.5 74.5v24q0 49 -23.5 74.5t-62.5 25.5h-42q-11 0 -15 -4t-4 -15v-186q0 -11 4 -15t15 -4z" />
    <glyph glyph-name="C" unicode="C" horiz-adv-x="500" 
d="M254 -9q-100 0 -152.5 64t-52.5 177v286q0 113 52.5 177t152.5 64q91 0 142.5 -53.5t54.5 -135.5q0 -18 -13 -18h-91q-16 0 -17 14q-13 76 -76 76q-39 0 -59 -33t-20 -91v-286q0 -58 20 -91t59 -33q63 0 76 76q1 14 17 14h91q13 0 13 -18q-3 -82 -54.5 -135.5
t-142.5 -53.5z" />
    <glyph glyph-name="D" unicode="D" horiz-adv-x="515" 
d="M247 750q110 0 164 -64t54 -181v-260q0 -117 -54 -181t-164 -64h-172q-21 0 -21 21v708q0 21 21 21h172zM340 240v270q0 128 -99 128h-42q-11 0 -15 -4t-4 -15v-488q0 -11 4 -15t15 -4h42q99 0 99 128z" />
    <glyph glyph-name="E" unicode="E" horiz-adv-x="414" 
d="M180 619v-161q0 -11 4 -15t15 -4h144q21 0 21 -21v-70q0 -21 -21 -21h-144q-11 0 -15 -4t-4 -15v-177q0 -11 4 -15t15 -4h144q21 0 21 -21v-70q0 -21 -21 -21h-268q-21 0 -21 21v708q0 21 21 21h268q21 0 21 -21v-70q0 -21 -21 -21h-144q-11 0 -15 -4t-4 -15z" />
    <glyph glyph-name="F" unicode="F" horiz-adv-x="397" 
d="M346 750q21 0 21 -21v-70q0 -21 -21 -21h-147q-11 0 -15 -4t-4 -15v-161q0 -11 4 -15t15 -4h97q21 0 21 -21v-70q0 -21 -21 -21h-97q-11 0 -15 -4t-4 -15v-287q0 -21 -21 -21h-84q-21 0 -21 21v708q0 21 21 21h271z" />
    <glyph glyph-name="G" unicode="G" horiz-adv-x="503" 
d="M433 433q11 0 15.5 -4.5t4.5 -15.5v-215q0 -92 -52 -149.5t-147 -57.5q-100 0 -152.5 64t-52.5 177v286q0 113 52.5 177t152.5 64q91 0 142.5 -53.5t54.5 -135.5q0 -18 -13 -18h-91q-15 0 -18 15q-5 33 -24 54t-51 21q-39 0 -59 -33t-20 -91v-286q0 -57 21 -90.5
t60 -33.5q35 0 56.5 26t21.5 71v108q0 13 -3.5 16.5t-16.5 3.5h-46q-11 0 -15.5 4.5t-4.5 15.5v60q0 11 4.5 15.5t15.5 4.5h165z" />
    <glyph glyph-name="H" unicode="H" horiz-adv-x="514" 
d="M439 750q21 0 21 -21v-708q0 -21 -21 -21h-84q-21 0 -21 21v287q0 11 -4 15t-15 4h-116q-11 0 -15 -4t-4 -15v-287q0 -21 -21 -21h-84q-21 0 -21 21v708q0 21 21 21h84q21 0 21 -21v-271q0 -11 4 -15t15 -4h116q11 0 15 4t4 15v271q0 21 21 21h84z" />
    <glyph glyph-name="I" unicode="I" horiz-adv-x="234" 
d="M54 21v708q0 21 21 21h84q21 0 21 -21v-708q0 -21 -21 -21h-84q-21 0 -21 21z" />
    <glyph glyph-name="J" unicode="J" horiz-adv-x="305" 
d="M51 0q-21 0 -21 21v71q0 21 21 21h28q51 0 51 56v560q0 21 21 21h84q21 0 21 -21v-570q0 -74 -46.5 -116.5t-118.5 -42.5h-40z" />
    <glyph glyph-name="K" unicode="K" horiz-adv-x="487" 
d="M319 406l151 -389q6 -17 -7 -17h-99q-18 0 -23 12l-114 285q-2 5 -7 5.5t-7 -5.5l-23 -48q-10 -17 -10 -37v-191q0 -21 -21 -21h-84q-21 0 -21 21v708q0 21 21 21h84q21 0 21 -21v-284q0 -5 4.5 -5.5t6.5 3.5l135 296q5 11 24 11h98q7 0 8.5 -5.5t-1.5 -11.5l-136 -305
q-5 -9 0 -22z" />
    <glyph glyph-name="L" unicode="L" horiz-adv-x="377" 
d="M333 112q21 0 21 -21v-70q0 -21 -21 -21h-258q-21 0 -21 21v708q0 21 21 21h84q21 0 21 -21v-598q0 -11 4 -15t15 -4h134z" />
    <glyph glyph-name="M" unicode="M" horiz-adv-x="628" 
d="M75 0q-21 0 -21 21v708q0 21 21 21h59q15 0 23 -21l151 -482q2 -5 6 -5t6 5l151 482q8 21 23 21h59q21 0 21 -21v-708q0 -21 -21 -21h-84q-21 0 -21 21v313q0 6 -5 7t-7 -5l-94 -316q-5 -20 -26 -20h-4q-21 0 -26 20l-94 316q-2 6 -7 5t-5 -7v-313q0 -21 -21 -21h-84z
" />
    <glyph glyph-name="N" unicode="N" horiz-adv-x="533" 
d="M458 750q21 0 21 -21v-708q0 -21 -21 -21h-63q-19 0 -29 21l-175 410q-1 3 -4 4t-5 -1t-2 -5v-408q0 -21 -21 -21h-84q-21 0 -21 21v708q0 21 21 21h63q21 0 29 -21l176 -410q1 -3 4 -4t5 1t2 5v408q0 21 21 21h83z" />
    <glyph glyph-name="O" unicode="O" 
d="M254 -9q-100 0 -152.5 64t-52.5 177v286q0 113 52.5 177t152.5 64q99 0 151.5 -64t52.5 -177v-286q0 -113 -52.5 -177t-151.5 -64zM254 108q39 0 59 33t20 90v287q0 58 -20 91t-59 33t-59 -33t-20 -91v-287q0 -57 20 -90t59 -33z" />
    <glyph glyph-name="P" unicode="P" horiz-adv-x="472" 
d="M75 0q-21 0 -21 21v708q0 21 21 21h174q85 0 139 -59t54 -157v-57q0 -98 -54 -157t-139 -59h-50q-11 0 -15 -4t-4 -15v-221q0 -21 -21 -21h-84zM199 378h38q34 0 57 26.5t23 76.5v54q0 50 -23 76.5t-57 26.5h-38q-11 0 -15 -4t-4 -15v-222q0 -11 4 -15t15 -4z" />
    <glyph glyph-name="Q" unicode="Q" 
d="M458 232q0 -139 -76 -201l72 -121q5 -9 2 -14.5t-11 -5.5h-91q-17 0 -25 14l-52 88q-8 -1 -23 -1q-100 0 -152.5 64t-52.5 177v286q0 113 52.5 177t152.5 64q99 0 151.5 -64t52.5 -177v-286zM175 231q0 -57 20 -90t59 -33t59 33t20 90v287q0 58 -20 91t-59 33t-59 -33
t-20 -91v-287z" />
    <glyph glyph-name="R" unicode="R" horiz-adv-x="492" 
d="M470 20q8 -20 -9 -20h-94q-18 0 -24 14l-99 256h-45q-11 0 -15 -4t-4 -15v-230q0 -21 -21 -21h-84q-21 0 -21 21v708q0 21 21 21h174q85 0 139 -59t54 -157v-47q0 -126 -85 -185zM180 407q0 -11 4 -15t15 -4h38q34 0 57 26.5t23 76.5v44q0 50 -23 76.5t-57 26.5h-38
q-11 0 -15 -4t-4 -15v-212z" />
    <glyph glyph-name="S" unicode="S" horiz-adv-x="502" 
d="M457 184q0 -90 -63 -141.5t-143 -51.5q-87 0 -146 55t-60 143q0 18 13 18h85q17 0 18 -15q4 -37 27 -65.5t63 -28.5q34 0 56 21.5t24 56.5q3 37 -24 74.5t-68 71.5l-82 70t-70.5 85.5t-29.5 103.5q0 77 51.5 127.5t134.5 50.5q87 0 136 -52t52 -132q0 -18 -13 -18h-85
q-17 0 -18 15q-5 33 -22 56t-46 23q-30 0 -48 -21t-16 -50q3 -29 32.5 -63t69 -67.5t79 -71.5t66.5 -88.5t27 -105.5z" />
    <glyph glyph-name="T" unicode="T" horiz-adv-x="441" 
d="M390 750q21 0 21 -21v-70q0 -21 -21 -21h-88q-11 0 -15 -4t-4 -15v-598q0 -21 -21 -21h-83q-21 0 -21 21v598q0 11 -4 15t-15 4h-88q-21 0 -21 21v70q0 21 21 21h339z" />
    <glyph glyph-name="U" unicode="U" 
d="M437 750q21 0 21 -21v-361v-136q0 -113 -52.5 -177t-151.5 -64q-100 0 -152.5 64t-52.5 177v206v291q0 21 21 21h84q21 0 21 -21v-353v-145q0 -57 20 -90t59 -33t59 33t20 90v206v292q0 21 21 21h83z" />
    <glyph glyph-name="V" unicode="V" horiz-adv-x="506" 
d="M359 730q5 20 24 20h88q19 0 14 -20l-174 -710q-3 -12 -8.5 -16t-17.5 -4h-64q-12 0 -17.5 4t-8.5 16l-174 710q-5 20 14 20h88q20 0 24 -20l100 -462q1 -5 6 -5t6 5z" />
    <glyph glyph-name="W" unicode="W" horiz-adv-x="718" 
d="M184 0q-13 0 -18.5 4t-7.5 16l-133 710q-4 20 14 20h88q20 0 24 -20l66 -416q0 -4 3 -5.5t6 0t3 4.5l83 417q3 12 8.5 16t17.5 4h42q12 0 17.5 -4t8.5 -16l82 -417q1 -3 3.5 -4.5t5.5 0t3 5.5l67 416q4 20 24 20h87q18 0 14 -20l-132 -710q-2 -12 -7.5 -16t-18.5 -4h-55
q-22 0 -26 20l-88 438q-1 5 -6 5t-6 -5l-88 -438q-5 -20 -26 -20h-55z" />
    <glyph glyph-name="X" unicode="X" horiz-adv-x="497" 
d="M351 20l-96 238q-1 4 -6 4t-6 -4l-96 -238q-8 -20 -26 -20h-93q-9 0 -12 5.5t1 14.5l157 360l-151 350q-4 9 -1 14.5t12 5.5h92q18 0 26 -20l91 -225q1 -5 6 -5t6 5l90 225q8 20 26 20h93q19 0 11 -20l-152 -350l157 -360q4 -9 1 -14.5t-12 -5.5h-92q-18 0 -26 20z" />
    <glyph glyph-name="Y" unicode="Y" horiz-adv-x="487" 
d="M444 750q20 0 12 -20l-149 -424v-285q0 -21 -21 -21h-84q-21 0 -21 21v285l-149 424q-8 20 12 20h88q19 0 26 -20l80 -249q2 -5 6 -5t6 5l80 249q7 20 26 20h88z" />
    <glyph glyph-name="Z" unicode="Z" horiz-adv-x="436" 
d="M393 630l-220 -506q-5 -12 6 -12h202q21 0 21 -21v-70q0 -21 -21 -21h-326q-21 0 -21 21v66q0 11 9 33l225 506q5 12 -6 12h-207q-21 0 -21 21v70q0 21 21 21h326q21 0 21 -21v-67q0 -10 -9 -32z" />
    <glyph glyph-name="bracketleft" unicode="[" horiz-adv-x="393" 
d="M208 753v-862q0 -11 4 -15t15 -4h100q21 0 21 -21v-70q0 -21 -21 -21h-217q-21 0 -21 21v1082q0 21 21 21h217q21 0 21 -21v-70q0 -21 -21 -21h-100q-11 0 -15 -4t-4 -15z" />
    <glyph glyph-name="backslash" unicode="\" horiz-adv-x="511" 
d="M64 780h85q20 0 27 -21l283 -854q7 -21 -12 -21h-85q-20 0 -27 21l-283 854q-7 21 12 21z" />
    <glyph glyph-name="bracketright" unicode="]" horiz-adv-x="393" 
d="M184 753q0 11 -4 15t-15 4h-100q-21 0 -21 21v70q0 21 21 21h218q21 0 21 -21v-1082q0 -21 -21 -21h-218q-21 0 -21 21v70q0 21 21 21h100q11 0 15 4t4 15v862z" />
    <glyph glyph-name="asciicircum" unicode="^" horiz-adv-x="503" 
d="M342 438l-83 142q-3 5 -8 5t-8 -5l-83 -142q-8 -14 -30 -14h-81q-7 0 -9 5t3 14l193 309q5 8 15.5 8t14.5 -8l194 -309q4 -6 4 -10.5t-2.5 -6.5t-7.5 -2h-82q-21 0 -30 14z" />
    <glyph glyph-name="underscore" unicode="_" horiz-adv-x="469" 
d="M409 -9q21 0 21 -21v-53q0 -21 -21 -21h-349q-21 0 -21 21v53q0 21 21 21h349z" />
    <glyph glyph-name="grave" unicode="`" horiz-adv-x="319" 
d="M258 689q16 -14 0 -30l-39 -39q-15 -15 -30 0l-132 124q-14 14 0 29l39 40q15 15 30 0z" />
    <glyph glyph-name="a" unicode="a" horiz-adv-x="451" 
d="M209 -7q-66 -11 -117 33t-51 130q0 42 14 74t35 51t55 32.5t64.5 19.5t72.5 11v31q0 33 -17.5 50.5t-43.5 17.5q-47 0 -57 -49q-3 -12 -17 -12h-72q-13 0 -13 18q2 71 49.5 107t116.5 36q72 0 121.5 -46t49.5 -142l1 -239q0 -49 9 -96q4 -20 -20 -20h-72q-11 0 -15.5 6.5
t-8.5 30.5q-31 -36 -84 -44zM222 97q25 1 42.5 20.5t17.5 56.5v99q-66 -10 -94.5 -31.5t-27.5 -74.5q1 -35 19 -53.5t43 -16.5z" />
    <glyph glyph-name="b" unicode="b" horiz-adv-x="456" 
d="M248 540q64 12 114 -33t50 -129v-222q0 -84 -50 -129t-114 -33q-53 10 -92 60l-7 -32q-4 -22 -23 -22h-56q-21 0 -21 21v708q0 21 21 21h76q21 0 21 -21v-236q36 38 81 47zM294 174v186q0 40 -19.5 59t-45.5 18t-44 -20.5t-18 -56.5v-167v-19q0 -37 18 -56.5t44 -20.5
t45.5 18.5t19.5 58.5z" />
    <glyph glyph-name="c" unicode="c" horiz-adv-x="429" 
d="M372 152q15 0 13 -18q-8 -74 -55 -108.5t-109 -34.5q-76 0 -126.5 48.5t-50.5 152.5v150q0 104 50.5 152.5t126.5 48.5q62 0 109 -34.5t55 -108.5q2 -18 -13 -18h-74q-13 0 -17 12q-14 43 -56 43q-26 0 -44.5 -18.5t-18.5 -56.5v-190q0 -38 18.5 -56.5t44.5 -18.5
q43 0 56 43q4 12 17 12h74z" />
    <glyph glyph-name="d" unicode="d" horiz-adv-x="456" 
d="M386 750q21 0 21 -21v-708q0 -21 -21 -21h-57q-18 0 -22 22l-7 33q-39 -51 -92 -61q-65 -12 -114.5 33t-49.5 129v222q0 84 49.5 129t114.5 33q46 -9 81 -48v237q0 21 21 21h76zM227 97q25 1 43.5 20.5t18.5 56.5v167v19q0 37 -18.5 56.5t-43.5 20.5q-26 1 -45.5 -18
t-19.5 -59v-186q0 -39 19.5 -58.5t45.5 -18.5z" />
    <glyph glyph-name="e" unicode="e" horiz-adv-x="442" 
d="M224 543q32 0 61 -10t55.5 -31.5t42 -62.5t15.5 -97v-17q0 -23 -3 -52q-1 -21 -21 -21h-205q-10 0 -10 -10v-70q0 -38 19.5 -56.5t45.5 -18.5q42 0 57 43q4 12 17 12h77q15 0 13 -18q-8 -74 -55 -108.5t-109 -34.5q-75 0 -127.5 51.5t-52.5 166.5v116q0 115 52.5 166.5
t127.5 51.5zM295 366q0 39 -21 58t-47 19t-47 -19t-21 -58v-22q0 -10 10 -10h116q10 0 10 10v22z" />
    <glyph glyph-name="f" unicode="f" horiz-adv-x="307" 
d="M102 0q-21 0 -21 21v402q0 9 -3 12t-12 3h-19q-21 0 -21 21v54q0 21 21 21h20q15 0 15 13v55q0 148 179 148q21 0 21 -21v-59q0 -21 -21 -21q-64 0 -64 -47v-55q0 -13 13 -13h51q21 0 21 -21v-54q0 -21 -21 -21h-46q-16 0 -16 -15v-402q0 -21 -21 -21h-76z" />
    <glyph glyph-name="g" unicode="g" horiz-adv-x="456" 
d="M386 534q21 0 21 -21v-529q0 -104 -50.5 -153t-126.5 -49q-63 0 -112.5 35t-57.5 109q-2 18 13 18h79q13 0 17 -12q15 -44 56 -44q26 0 45 19t19 57v77q-36 -38 -81 -47q-64 -12 -114 33t-50 129v222q0 86 50.5 129.5t116.5 33.5q50 -9 90 -56l6 27q4 22 22 22h57z
M227 97q26 1 44 20.5t18 56.5v167v19q0 37 -18 56.5t-44 20.5t-45.5 -18.5t-19.5 -58.5v-186q0 -40 19.5 -59t45.5 -18z" />
    <glyph glyph-name="h" unicode="h" horiz-adv-x="461" 
d="M248 540q64 12 114 -33t50 -129v-357q0 -21 -21 -21h-76q-21 0 -21 21v339q0 40 -19.5 59t-45.5 18t-44 -20.5t-18 -56.5v-339q0 -21 -21 -21h-76q-21 0 -21 21v708q0 21 21 21h76q21 0 21 -21v-236q36 38 81 47z" />
    <glyph glyph-name="i" unicode="i" horiz-adv-x="215" 
d="M108 638q-31 0 -52.5 21.5t-21.5 51.5t21.5 51.5t52.5 21.5q30 0 51 -21.5t21 -51.5t-21 -51.5t-51 -21.5zM146 534q21 0 21 -21v-492q0 -21 -21 -21h-76q-21 0 -21 21v492q0 21 21 21h76z" />
    <glyph glyph-name="j" unicode="j" horiz-adv-x="215" 
d="M108 638q-31 0 -52.5 21.5t-21.5 51.5t21.5 51.5t52.5 21.5q30 0 51 -21.5t21 -51.5t-21 -51.5t-51 -21.5zM-13 -102q62 0 62 65v550q0 21 21 21h76q21 0 21 -21v-550q0 -88 -43.5 -129.5t-136.5 -41.5q-21 0 -21 21v64q0 21 21 21z" />
    <glyph glyph-name="k" unicode="k" horiz-adv-x="421" 
d="M410 19q8 -19 -12 -19h-81q-19 0 -25 17l-77 160q-2 6 -7 6.5t-8 -5.5l-23 -46q-10 -19 -10 -35v-76q0 -21 -21 -21h-76q-21 0 -21 21v449v259q0 21 21 21h76q21 0 21 -21v-402q0 -7 5.5 -8t8.5 6l99 193q9 16 26 16h81q9 0 12.5 -6t-0.5 -13l-106 -213q-4 -10 0 -22z
" />
    <glyph glyph-name="l" unicode="l" horiz-adv-x="268" 
d="M221 101q21 -1 21 -21v-59q0 -21 -21 -21q-93 0 -132.5 39.5t-39.5 135.5v554q0 21 21 21h76q21 0 21 -21v-565q0 -61 54 -63z" />
    <glyph glyph-name="m" unicode="m" horiz-adv-x="697" 
d="M486 540q65 12 114 -33t49 -129v-357q0 -21 -21 -21h-77q-21 0 -21 21v339q0 40 -18 59t-44 18q-25 -1 -42.5 -21t-17.5 -58v-337q0 -21 -21 -21h-76q-21 0 -21 21v339q0 40 -18.5 59t-44.5 18q-25 -1 -42.5 -20.5t-17.5 -56.5v-339q0 -21 -21 -21h-76q-21 0 -21 21v492
q0 21 21 21h56q19 0 23 -22l7 -31q38 49 90 59q42 8 80.5 -10.5t59.5 -58.5q41 57 100 69z" />
    <glyph glyph-name="n" unicode="n" horiz-adv-x="461" 
d="M248 540q64 12 114 -33t50 -129v-357q0 -21 -21 -21h-76q-21 0 -21 21v339q0 40 -19.5 59t-45.5 18t-44 -20.5t-18 -56.5v-339q0 -21 -21 -21h-76q-21 0 -21 21v492q0 21 21 21h56q19 0 23 -22l7 -32q39 50 92 60z" />
    <glyph glyph-name="o" unicode="o" horiz-adv-x="451" 
d="M225 -9q-73 0 -127 49.5t-54 151.5v150q0 102 54 151.5t127 49.5q74 0 128 -49.5t54 -151.5v-150q0 -102 -54 -151.5t-128 -49.5zM289 360q0 40 -19 58.5t-45 18.5q-25 0 -44 -18.5t-19 -58.5v-186q0 -39 19 -58t44 -19t44.5 19t19.5 58v186z" />
    <glyph glyph-name="p" unicode="p" horiz-adv-x="456" 
d="M248 540q64 12 114 -33t50 -129v-222q0 -84 -50 -129t-114 -33q-45 9 -81 47v-228q0 -21 -21 -21h-76q-21 0 -21 21v700q0 21 21 21h56q19 0 23 -22l7 -32q39 50 92 60zM294 174v186q0 40 -19.5 59t-45.5 18t-44 -20.5t-18 -56.5v-167v-19q0 -37 18 -56.5t44 -20.5
t45.5 18t19.5 59z" />
    <glyph glyph-name="q" unicode="q" horiz-adv-x="456" 
d="M386 534q21 0 21 -21v-700q0 -21 -21 -21h-76q-21 0 -21 21v228q-36 -38 -81 -47q-64 -12 -114 33t-50 129v222q0 84 50 129t114 33q53 -10 92 -60l7 32q4 22 22 22h57zM227 97q26 1 44 20.5t18 56.5v167v19q0 37 -18 56.5t-44 20.5t-45.5 -18t-19.5 -59v-186
q0 -40 19.5 -59t45.5 -18z" />
    <glyph glyph-name="r" unicode="r" horiz-adv-x="307" 
d="M270 540q21 0 21 -21v-75q0 -21 -21 -21q-47 0 -75 -25t-28 -77v-300q0 -21 -21 -21h-76q-21 0 -21 21v492q0 21 21 21h56q19 0 23 -22l6 -28q46 56 115 56z" />
    <glyph glyph-name="s" unicode="s" horiz-adv-x="399" 
d="M202 -9q-68 0 -113 38t-55 105q-2 18 13 18h79q14 0 17 -12q14 -49 56 -49q22 0 37 13t15 35q1 24 -19.5 44.5t-50.5 38t-61 38t-54 54t-25 75.5q-4 68 41.5 111t113.5 43q61 0 107 -37t48 -106q2 -18 -13 -18h-72q-14 0 -17 12q-11 48 -48 49q-20 1 -33.5 -12t-13.5 -30
q-1 -21 21.5 -41t55 -39t64.5 -42t54.5 -59t21.5 -80q-1 -69 -50 -109t-119 -40z" />
    <glyph glyph-name="t" unicode="t" horiz-adv-x="307" 
d="M261 0q-94 0 -137 38t-43 127v258q0 9 -3 12t-12 3h-19q-21 0 -21 21v54q0 21 21 21h25q9 0 12 3t3 12v75q0 21 21 21h68q21 0 21 -21v-75q0 -9 3 -12t12 -3h49q21 0 21 -21v-54q0 -21 -21 -21h-46q-16 0 -16 -15v-258q0 -65 62 -65q21 0 21 -21v-58q0 -21 -21 -21z" />
    <glyph glyph-name="u" unicode="u" horiz-adv-x="461" 
d="M391 534q21 0 21 -21v-492q0 -21 -21 -21h-56q-19 0 -23 22l-7 32q-39 -50 -92 -60q-64 -12 -114 33t-50 129v357q0 21 21 21h76q21 0 21 -21v-339q0 -40 19.5 -59t45.5 -18t44 20.5t18 56.5v339q0 21 21 21h76z" />
    <glyph glyph-name="v" unicode="v" horiz-adv-x="433" 
d="M308 514q5 20 23 20h83q19 0 13 -20l-157 -494q-4 -13 -9 -16.5t-17 -3.5h-55q-12 0 -17 3.5t-9 16.5l-158 494q-6 20 13 20h83q18 0 23 -20l87 -305q1 -5 6 -5t6 5z" />
    <glyph glyph-name="w" unicode="w" horiz-adv-x="601" 
d="M581 534q18 0 13 -20l-119 -494q-4 -20 -26 -20h-53q-22 0 -26 20l-63 256q-1 5 -6 5t-6 -5l-63 -256q-5 -20 -26 -20h-54q-21 0 -26 20l-119 494q-5 20 13 20h84q18 0 23 -20l56 -269q1 -5 5.5 -5.5t6.5 5.5l61 269q4 20 26 20h37q21 0 26 -20l61 -269q1 -3 2.5 -4.5
t3.5 -1.5t4 1.5t2 4.5l57 269q5 20 23 20h83z" />
    <glyph glyph-name="x" unicode="x" horiz-adv-x="420" 
d="M413 20q5 -10 0.5 -15t-12.5 -5h-81q-17 0 -26 20l-79 169q-1 4 -5 4t-5 -4l-80 -169q-8 -20 -25 -20h-81q-8 0 -12.5 5t0.5 15l116 243q6 11 0 21l-112 230q-4 9 0 14.5t12 5.5h81q18 0 27 -20l74 -160q1 -4 5 -4t5 4l74 160q9 20 26 20h82q8 0 11.5 -5t-0.5 -15
l-112 -230q-4 -10 0 -21z" />
    <glyph glyph-name="y" unicode="y" horiz-adv-x="421" 
d="M60 -208q-21 0 -21 21v64q0 20 21 21q20 2 32 5t25 14t19 29q15 48 16.5 64.5t-6.5 38.5l-141 465q-5 20 13 20h83q18 0 23 -20l81 -305q1 -5 6 -5t6 5l79 305q6 20 23 20h83q9 0 13 -5.5t0 -14.5l-192 -623q-30 -99 -163 -99z" />
    <glyph glyph-name="z" unicode="z" horiz-adv-x="370" 
d="M30 21v54q0 12 7 25l171 326q2 3 1 6t-5 3h-153q-21 0 -21 21v57q0 21 21 21h268q21 0 21 -21v-53q0 -16 -7 -26l-171 -326q-4 -9 5 -9h152q21 0 21 -21v-57q0 -21 -21 -21h-268q-21 0 -21 21z" />
    <glyph glyph-name="braceleft" unicode="{" horiz-adv-x="368" 
d="M243 402q0 -64 -44 -114q44 -48 44 -113v-243q0 -33 17.5 -51t47.5 -19q21 0 21 -21v-64q0 -21 -21 -21q-185 0 -185 175v218q0 26 -3 42t-17.5 30.5t-42.5 14.5q-21 0 -21 21v63q0 21 21 21q28 0 42.5 14.5t17.5 30.5t3 42v210q0 175 185 175q21 0 21 -21v-64
q0 -21 -21 -21q-30 -1 -47.5 -19t-17.5 -51v-235z" />
    <glyph glyph-name="bar" unicode="|" horiz-adv-x="262" 
d="M100 -229v1017q0 21 21 21h20q21 0 21 -21v-1017q0 -21 -21 -21h-20q-21 0 -21 21z" />
    <glyph glyph-name="braceright" unicode="}" horiz-adv-x="368" 
d="M125 402v235q0 33 -17.5 51t-47.5 19q-21 0 -21 21v64q0 21 21 21q185 0 185 -175v-210q0 -26 3 -42t17.5 -30.5t42.5 -14.5q21 0 21 -21v-63q0 -21 -21 -21q-28 0 -42.5 -14.5t-17.5 -30.5t-3 -42v-218q0 -175 -185 -175q-21 0 -21 21v64q0 21 21 21q30 1 47.5 19
t17.5 51v243q0 65 44 113q-44 50 -44 114z" />
    <glyph glyph-name="asciitilde" unicode="~" horiz-adv-x="525" 
d="M358 319q-35 -1 -96 19.5t-78 22.5q-43 3 -68 -32q-9 -12 -21 -5l-49 31q-12 7 -5 21q17 36 52 55t73 19q36 1 96.5 -19.5t78.5 -22.5q43 -3 68 32q9 12 21 5l49 -31q12 -7 5 -21q-17 -36 -52 -55t-74 -19z" />
    <glyph glyph-name="exclamdown" unicode="&#xa1;" horiz-adv-x="270" 
d="M135 543q31 0 53.5 -22.5t22.5 -53.5t-22.5 -53.5t-53.5 -22.5t-53.5 22.5t-22.5 53.5t22.5 53.5t53.5 22.5zM82 276q0 21 21 21h64q21 0 21 -21l12 -471q0 -21 -21 -21h-88q-21 0 -21 21z" />
    <glyph glyph-name="cent" unicode="&#xa2;" horiz-adv-x="429" 
d="M372 152q15 0 13 -18q-12 -109 -113 -137v-52q0 -21 -21 -21h-52q-21 0 -21 21v50q-60 12 -97 60.5t-37 136.5v150q0 88 37 136.5t97 60.5v45q0 21 21 21h52q21 0 21 -21v-47q101 -28 113 -137q2 -18 -13 -18h-74q-13 0 -17 12q-14 43 -56 43q-26 0 -44.5 -18.5
t-18.5 -56.5v-190q0 -38 18.5 -56.5t44.5 -18.5q43 0 56 43q4 12 17 12h74z" />
    <glyph glyph-name="sterling" unicode="&#xa3;" horiz-adv-x="467" 
d="M416 112q21 0 21 -21v-70q0 -21 -21 -21h-295q-21 0 -21 21v322h-49q-21 0 -21 21v52q0 21 21 21h49v154q0 74 46.5 116.5t118.5 42.5h40q21 0 21 -21v-71q0 -21 -21 -21h-28q-51 0 -51 -56v-144h104q21 0 21 -21v-52q0 -21 -21 -21h-104v-212q0 -11 4 -15t15 -4h171z
" />
    <glyph glyph-name="currency" unicode="&#xa4;" horiz-adv-x="410" 
d="M322 314l39 -39q11 -10 10.5 -19t-15.5 -24q-23 -23 -42 -4l-39 39q-31 -20 -70 -20t-71 20l-38 -38q-18 -20 -42 4q-15 15 -15.5 24t10.5 19l39 39q-19 32 -19 68q0 37 19 67l-39 39q-20 20 5 43q14 14 23.5 14.5t18.5 -9.5l38 -39q32 21 71 21t70 -20l39 39
q9 10 18.5 9.5t23.5 -14.5q25 -23 5 -43l-39 -39q19 -32 19 -68q0 -37 -19 -69zM205 324q24 0 41.5 17.5t17.5 41.5t-17.5 41t-41.5 17t-41.5 -17t-17.5 -41t17.5 -41.5t41.5 -17.5z" />
    <glyph glyph-name="yen" unicode="&#xa5;" horiz-adv-x="487" 
d="M456 730l-149 -424v-59h76q21 0 21 -21v-6q0 -21 -21 -21h-76v-60h76q21 0 21 -21v-6q0 -21 -21 -21h-76v-70q0 -21 -21 -21h-84q-21 0 -21 21v70h-78q-21 0 -21 21v6q0 21 21 21h78v60h-78q-21 0 -21 21v6q0 21 21 21h78v59l-149 424q-8 20 12 20h88q19 0 26 -20
l80 -249q2 -5 6 -5t6 5l80 249q7 20 26 20h88q20 0 12 -20z" />
    <glyph glyph-name="brokenbar" unicode="&#xa6;" horiz-adv-x="262" 
d="M141 809q21 0 21 -21v-357q0 -21 -21 -21h-20q-21 0 -21 21v357q0 21 21 21h20zM141 127q21 0 21 -21v-335q0 -21 -21 -21h-20q-21 0 -21 21v335q0 21 21 21h20z" />
    <glyph glyph-name="section" unicode="&#xa7;" horiz-adv-x="511" 
d="M461 205q0 -66 -39 -113q39 -55 39 -117q0 -90 -63 -141.5t-143 -51.5q-88 0 -147 55.5t-59 143.5q0 18 13 18h85q17 0 18 -15q3 -36 26.5 -65t63.5 -29q34 0 56 21.5t24 56.5q3 37 -24 73t-67.5 67l-82 64.5t-71 81t-29.5 101.5q0 67 41 113q-41 52 -41 113
q0 77 51.5 127.5t134.5 50.5q87 0 136.5 -52t51.5 -132q0 -18 -13 -18h-85q-15 0 -18 15q-12 79 -68 79q-30 0 -48 -21t-15 -50q3 -25 24.5 -51.5t51.5 -49.5t64.5 -53t64 -60t49 -72t19.5 -89zM154 355q3 -29 31.5 -58t87 -70.5t85.5 -65.5q9 13 11 37t-8.5 46t-33.5 42.5
t-45.5 37l-57 40t-55.5 39.5q-18 -17 -15 -48z" />
    <glyph glyph-name="dieresis" unicode="&#xa8;" horiz-adv-x="421" 
d="M119 638q-28 0 -48.5 20t-20.5 48t20 48t49 20q28 0 48 -20t20 -48t-20 -48t-48 -20zM302 638q-28 0 -48.5 20t-20.5 48t20 48t49 20t49 -20t20 -48t-20.5 -48t-48.5 -20z" />
    <glyph glyph-name="copyright" unicode="&#xa9;" horiz-adv-x="877" 
d="M439 -8q-159 0 -271.5 112t-112.5 271t112.5 271t271.5 112q158 0 270.5 -112t112.5 -271t-112.5 -271t-270.5 -112zM439 57q131 0 223 93t92 225t-92 225t-223 93t-224 -93t-93 -225t93 -225t224 -93zM451 148q-98 0 -165 66.5t-67 160.5t67 160.5t165 66.5
q64 0 128 -36q17 -8 6 -27l-29 -50q-8 -14 -27 -7q-34 16 -72 16q-54 0 -91 -36t-37 -87t37 -87t91 -36q38 0 72 16q19 7 27 -7l29 -50q11 -19 -6 -27q-64 -36 -128 -36z" />
    <glyph glyph-name="guillemotleft" unicode="&#xab;" horiz-adv-x="481" 
d="M213 282l-53 -59q-6 -7 0 -16l53 -59q14 -15 14 -30v-93q0 -8 -6 -10t-13 5l-163 180q-13 16 0 30l163 181q7 7 13 5t6 -11v-93q0 -15 -14 -30zM428 282l-52 -59q-7 -7 0 -16l52 -59q14 -15 14 -30v-93q0 -8 -6 -10t-13 5l-163 180q-13 16 0 30l163 181q7 7 13 5t6 -11
v-93q0 -15 -14 -30z" />
    <glyph glyph-name="logicalnot" unicode="&#xac;" horiz-adv-x="547" 
d="M417 459q21 0 21 -21v-222q0 -21 -21 -21h-49q-21 0 -21 21v133q0 11 -4 15t-15 4h-268q-21 0 -21 21v49q0 21 21 21h357z" />
    <glyph glyph-name="registered" unicode="&#xae;" horiz-adv-x="870" 
d="M439 -8q-159 0 -271.5 112.5t-112.5 271.5q0 158 112.5 270.5t271.5 112.5q158 0 270.5 -112.5t112.5 -270.5q0 -159 -112.5 -271.5t-270.5 -112.5zM439 58q131 0 223 93t92 225q0 131 -92.5 224t-222.5 93q-131 0 -224 -93t-93 -224q0 -132 93 -225t224 -93zM326 160
q-22 0 -22 21v389q0 21 22 21h134q54 0 92.5 -40.5t38.5 -95.5q0 -87 -69 -125l82 -150q5 -10 2 -15t-11 -5h-57q-19 0 -25 14l-76 145h-26q-12 0 -16 -4t-4 -16v-118q0 -21 -21 -21h-44zM411 394h31q27 0 44.5 17t17.5 44q0 26 -17.5 43.5t-44.5 17.5h-31q-12 0 -16 -4
t-4 -16v-82q0 -11 4 -15.5t16 -4.5z" />
    <glyph glyph-name="macron" unicode="&#xaf;" horiz-adv-x="356" 
d="M306 579q0 -21 -21 -21h-214q-21 0 -21 21v55q0 21 21 21h214q21 0 21 -21v-55z" />
    <glyph glyph-name="degree" unicode="&#xb0;" horiz-adv-x="372" 
d="M186 487q-56 0 -96 40t-40 96t40 96t96 40t96 -40t40 -96t-40 -96t-96 -40zM186 565q24 0 41.5 17t17.5 41t-17.5 41.5t-41.5 17.5t-41.5 -17.5t-17.5 -41.5t17.5 -41t41.5 -17z" />
    <glyph glyph-name="plusminus" unicode="&#xb1;" horiz-adv-x="530" 
d="M470 507q21 0 21 -21v-50q0 -21 -21 -21h-140q-11 0 -15 -4t-4 -15v-140q0 -21 -21 -21h-50q-21 0 -21 21v140q0 11 -4 15t-15 4h-140q-21 0 -21 21v50q0 21 21 21h140q11 0 15 4t4 15v139q0 21 21 21h50q21 0 21 -21v-139q0 -11 4 -15t15 -4h140zM469 116q21 0 21 -21
v-50q0 -21 -21 -21h-409q-21 0 -21 21v50q0 21 21 21h409z" />
    <glyph glyph-name="uni00B2" unicode="&#xb2;" horiz-adv-x="362" 
d="M58 215q-18 0 -18 18v90q0 46 18.5 83.5t44.5 63t53 47t46.5 46.5t21.5 51q2 27 -12.5 44t-36.5 17q-34 0 -44 -39q-3 -10 -14 -10h-62q-11 0 -11 15q1 58 40 88t95 30q64 0 104.5 -39.5t36.5 -108.5q-2 -42 -21.5 -77.5t-45 -59l-51 -45.5t-43 -47t-17.5 -53v-7
q0 -9 3 -12t13 -3h146q18 0 18 -18v-56q0 -18 -18 -18h-246z" />
    <glyph glyph-name="uni00B3" unicode="&#xb3;" horiz-adv-x="379" 
d="M184 207q-51 0 -88.5 28.5t-46.5 89.5q-2 15 11 15h61q11 0 14 -11q11 -34 45 -34q21 0 36.5 15.5t15.5 46.5v32q0 31 -15.5 46t-36.5 15h-33q-17 0 -17 17v49q0 17 17 17h33q21 0 36.5 15.5t15.5 46.5v14q0 31 -15.5 46.5t-36.5 15.5q-17 0 -29.5 -10.5t-15.5 -25.5
q-1 -9 -14 -9h-61q-13 0 -11 14q9 62 46.5 90.5t88.5 28.5q63 0 104.5 -39t41.5 -121v-4q0 -65 -43 -105q43 -38 43 -108v-21q0 -78 -42 -116t-104 -38z" />
    <glyph glyph-name="acute" unicode="&#xb4;" horiz-adv-x="319" 
d="M57 689l133 124q15 15 30 0l38 -40q14 -15 0 -29l-131 -124q-15 -15 -30 0l-40 39q-15 15 0 30z" />
    <glyph glyph-name="paragraph" unicode="&#xb6;" horiz-adv-x="775" 
d="M724 778q21 0 21 -21v-69q0 -21 -21 -21h-54q-11 0 -15 -4t-4 -15v-877q0 -21 -21 -21h-84q-21 0 -21 21v877q0 11 -4 15t-15 4h-53q-11 0 -15 -4t-4 -15v-877q0 -21 -21 -21h-83q-21 0 -21 21v534q0 11 -4 15t-15 4h-25q-88 0 -156.5 64.5t-68.5 162.5q0 96 63.5 161.5
t147.5 65.5h473z" />
    <glyph glyph-name="periodcentered" unicode="&#xb7;" horiz-adv-x="270" 
d="M135 215q-31 0 -53.5 22.5t-22.5 53.5t22.5 53.5t53.5 22.5t53.5 -22.5t22.5 -53.5t-22.5 -53.5t-53.5 -22.5z" />
    <glyph glyph-name="cedilla" unicode="&#xb8;" horiz-adv-x="298" 
d="M123 -45q53 23 97.5 -10t44.5 -90q0 -50 -37 -84t-89 -34q-24 0 -53 12q-18 7 -12 24l16 40q7 16 22 10q15 -5 27 -5q19 0 32 13.5t13 33.5q0 19 -13.5 32t-32.5 13q-23 0 -40 -20q-11 -11 -24 -4l-31 14q-13 5 -8 19l39 113l72 -14z" />
    <glyph glyph-name="uni00B9" unicode="&#xb9;" horiz-adv-x="317" 
d="M232 750q17 0 17 -17v-494q0 -17 -17 -17h-69q-17 0 -17 17v357l-57 -57q-12 -13 -24 0l-44 44q-12 13 0 25l131 132q10 10 20 10h60z" />
    <glyph glyph-name="guillemotright" unicode="&#xbb;" horiz-adv-x="481" 
d="M53 282q-14 15 -14 30v93q0 9 6 11t13 -5l163 -181q13 -14 0 -30l-163 -180q-4 -5 -8.5 -5.5t-7.5 2.5t-3 8v93q0 15 14 30l52 59q7 9 0 16zM268 282q-14 15 -14 30v93q0 9 6 11t13 -5l163 -181q13 -14 0 -30l-163 -180q-4 -5 -8.5 -5.5t-7.5 2.5t-3 8v93q0 15 14 30
l53 59q6 9 0 16z" />
    <glyph glyph-name="questiondown" unicode="&#xbf;" horiz-adv-x="459" 
d="M244 543q32 0 54 -22.5t22 -53.5t-22 -53.5t-54 -22.5t-54 22.5t-22 53.5t22 53.5t54 22.5zM233 -221q-82 0 -138.5 51t-55.5 133q0 40 15.5 75.5t38 62.5l45 53t39 59t17.5 69q1 21 21 21h59q21 0 21 -21q0 -50 -14 -91t-33.5 -67.5t-39.5 -49t-34 -46.5t-14 -49
q0 -36 24 -59.5t59 -23.5q45 0 80 39q16 19 31 5l49 -47q14 -13 0 -30q-64 -84 -170 -84z" />
    <glyph glyph-name="Agrave" unicode="&#xc0;" horiz-adv-x="498" 
d="M133 981l26 39q12 19 28 8l173 -116q18 -12 7 -28l-27 -39q-12 -18 -28 -8l-173 116q-17 12 -6 28zM25 20l164 710q3 12 8.5 16t18.5 4h67q12 0 17.5 -4t8.5 -16l164 -710q5 -20 -15 -20h-87q-18 0 -23 20l-22 102q-2 9 -6 11.5t-14 2.5h-113q-11 0 -15 -2.5t-5 -11.5
l-23 -102q-5 -20 -23 -20h-87q-19 0 -15 20zM196 259q-2 -11 8 -11h90q10 0 8 11l-47 237q-1 5 -6 5t-6 -5z" />
    <glyph glyph-name="Aacute" unicode="&#xc1;" horiz-adv-x="498" 
d="M365 953q11 -16 -6 -28l-173 -116q-16 -10 -28 8l-27 39q-11 16 7 28l173 116q16 11 28 -8zM25 20l164 710q3 12 8.5 16t18.5 4h67q12 0 17.5 -4t8.5 -16l164 -710q5 -20 -15 -20h-87q-18 0 -23 20l-22 102q-2 9 -6 11.5t-14 2.5h-113q-11 0 -15 -2.5t-5 -11.5l-23 -102
q-5 -20 -23 -20h-87q-19 0 -15 20zM196 259q-2 -11 8 -11h90q10 0 8 11l-47 237q-1 5 -6 5t-6 -5z" />
    <glyph glyph-name="Acircumflex" unicode="&#xc2;" horiz-adv-x="498" 
d="M399 870q16 -13 0 -29l-29 -29q-14 -14 -29 0l-92 87l-92 -87q-16 -14 -30 0l-29 29q-15 15 0 29l136 127q14 16 30 0zM25 20l164 710q3 12 8.5 16t18.5 4h67q12 0 17.5 -4t8.5 -16l164 -710q5 -20 -15 -20h-87q-18 0 -23 20l-22 102q-2 9 -6 11.5t-14 2.5h-113
q-11 0 -15 -2.5t-5 -11.5l-23 -102q-5 -20 -23 -20h-87q-19 0 -15 20zM196 259q-2 -11 8 -11h90q10 0 8 11l-47 237q-1 5 -6 5t-6 -5z" />
    <glyph glyph-name="Atilde" unicode="&#xc3;" horiz-adv-x="498" 
d="M383 894q13 -9 5 -21q-32 -55 -88 -55q-17 0 -40 11.5t-30 13.5q-31 10 -51 -17q-11 -14 -21 -5l-42 26q-11 9 -5 21q32 55 88 55q17 0 41 -11.5t29 -13.5q31 -11 52 17q10 13 21 5zM25 20l164 710q3 12 8.5 16t18.5 4h67q12 0 17.5 -4t8.5 -16l164 -710q5 -20 -15 -20
h-87q-18 0 -23 20l-22 102q-2 9 -6 11.5t-14 2.5h-113q-11 0 -15 -2.5t-5 -11.5l-23 -102q-5 -20 -23 -20h-87q-19 0 -15 20zM196 259q-2 -11 8 -11h90q10 0 8 11l-47 237q-1 5 -6 5t-6 -5z" />
    <glyph glyph-name="Adieresis" unicode="&#xc4;" horiz-adv-x="498" 
d="M165 818q-28 0 -47.5 19.5t-19.5 47.5q0 27 19.5 46.5t47.5 19.5q27 0 47 -19.5t20 -46.5q0 -28 -20 -47.5t-47 -19.5zM334 818q-28 0 -47.5 19.5t-19.5 47.5q0 27 19.5 46.5t47.5 19.5q27 0 46.5 -19.5t19.5 -46.5q0 -28 -19.5 -47.5t-46.5 -19.5zM25 20l164 710
q3 12 8.5 16t18.5 4h67q12 0 17.5 -4t8.5 -16l164 -710q5 -20 -15 -20h-87q-18 0 -23 20l-22 102q-2 9 -6 11.5t-14 2.5h-113q-11 0 -15 -2.5t-5 -11.5l-23 -102q-5 -20 -23 -20h-87q-19 0 -15 20zM196 259q-2 -11 8 -11h90q10 0 8 11l-47 237q-1 5 -6 5t-6 -5z" />
    <glyph glyph-name="Aring" unicode="&#xc5;" horiz-adv-x="498" 
d="M249 804q-42 0 -71 29.5t-29 71.5q0 41 29 70.5t71 29.5t71 -29.5t29 -70.5q0 -42 -29 -71.5t-71 -29.5zM249 867q16 0 26.5 11t10.5 27q0 15 -10.5 26t-26.5 11t-26.5 -11t-10.5 -26q0 -16 10.5 -27t26.5 -11zM25 20l164 710q3 12 8.5 16t18.5 4h67q12 0 17.5 -4
t8.5 -16l164 -710q5 -20 -15 -20h-87q-18 0 -23 20l-22 102q-2 9 -6 11.5t-14 2.5h-113q-11 0 -15 -2.5t-5 -11.5l-23 -102q-5 -20 -23 -20h-87q-19 0 -15 20zM196 259q-2 -11 8 -11h90q10 0 8 11l-47 237q-1 5 -6 5t-6 -5z" />
    <glyph glyph-name="AE" unicode="&#xc6;" horiz-adv-x="664" 
d="M444 638q-11 0 -15 -4t-4 -15v-161q0 -11 4 -15t15 -4h145q21 0 21 -21v-70q0 -21 -21 -21h-145q-11 0 -15 -4t-4 -15v-177q0 -11 4 -15t15 -4h145q21 0 21 -21v-70q0 -21 -21 -21h-269q-21 0 -21 21v115h-95q-10 0 -13.5 -2.5t-6.5 -11.5l-32 -102q-4 -12 -9 -16t-15 -4
h-89q-20 0 -13 20l225 710q4 13 9 16.5t17 3.5h312q21 0 21 -21v-70q0 -21 -21 -21h-145zM229 248h70v262q-4 0 -6 -5l-72 -246q-2 -11 8 -11z" />
    <glyph glyph-name="Ccedilla" unicode="&#xc7;" horiz-adv-x="500" 
d="M451 180q-3 -74 -45.5 -126t-118.5 -61l-14 -38q53 23 97.5 -10t44.5 -90q0 -50 -37 -84t-89 -34q-24 0 -53 12q-18 7 -12 24l16 40q7 16 22 10q15 -5 27 -5q19 0 32 13.5t13 33.5q0 19 -13.5 32t-32.5 13q-23 0 -40 -20q-11 -11 -24 -4l-31 14q-13 5 -8 19l26 75
q-80 13 -121 75t-41 163v286q0 113 52.5 177t152.5 64q91 0 142.5 -53.5t54.5 -135.5q0 -18 -13 -18h-91q-16 0 -17 14q-13 76 -76 76q-39 0 -59 -33t-20 -91v-286q0 -58 20 -91t59 -33q63 0 76 76q1 14 17 14h91q13 0 13 -18z" />
    <glyph glyph-name="Egrave" unicode="&#xc8;" horiz-adv-x="414" 
d="M93 981l26 39q12 19 28 8l173 -116q18 -12 7 -28l-27 -39q-12 -18 -28 -8l-173 116q-17 12 -6 28zM180 619v-161q0 -11 4 -15t15 -4h144q21 0 21 -21v-70q0 -21 -21 -21h-144q-11 0 -15 -4t-4 -15v-177q0 -11 4 -15t15 -4h144q21 0 21 -21v-70q0 -21 -21 -21h-268
q-21 0 -21 21v708q0 21 21 21h268q21 0 21 -21v-70q0 -21 -21 -21h-144q-11 0 -15 -4t-4 -15z" />
    <glyph glyph-name="Eacute" unicode="&#xc9;" horiz-adv-x="414" 
d="M325 953q11 -16 -6 -28l-173 -116q-16 -10 -28 8l-27 39q-11 16 7 28l173 116q16 11 28 -8zM180 619v-161q0 -11 4 -15t15 -4h144q21 0 21 -21v-70q0 -21 -21 -21h-144q-11 0 -15 -4t-4 -15v-177q0 -11 4 -15t15 -4h144q21 0 21 -21v-70q0 -21 -21 -21h-268q-21 0 -21 21
v708q0 21 21 21h268q21 0 21 -21v-70q0 -21 -21 -21h-144q-11 0 -15 -4t-4 -15z" />
    <glyph glyph-name="Ecircumflex" unicode="&#xca;" horiz-adv-x="414" 
d="M359 870q16 -13 0 -29l-29 -29q-14 -14 -29 0l-92 87l-92 -87q-16 -14 -30 0l-29 29q-15 15 0 29l136 127q14 16 30 0zM180 619v-161q0 -11 4 -15t15 -4h144q21 0 21 -21v-70q0 -21 -21 -21h-144q-11 0 -15 -4t-4 -15v-177q0 -11 4 -15t15 -4h144q21 0 21 -21v-70
q0 -21 -21 -21h-268q-21 0 -21 21v708q0 21 21 21h268q21 0 21 -21v-70q0 -21 -21 -21h-144q-11 0 -15 -4t-4 -15z" />
    <glyph glyph-name="Edieresis" unicode="&#xcb;" horiz-adv-x="414" 
d="M125 818q-28 0 -47.5 19.5t-19.5 47.5q0 27 19.5 46.5t47.5 19.5q27 0 47 -19.5t20 -46.5q0 -28 -20 -47.5t-47 -19.5zM294 818q-28 0 -47.5 19.5t-19.5 47.5q0 27 19.5 46.5t47.5 19.5q27 0 46.5 -19.5t19.5 -46.5q0 -28 -19.5 -47.5t-46.5 -19.5zM180 619v-161
q0 -11 4 -15t15 -4h144q21 0 21 -21v-70q0 -21 -21 -21h-144q-11 0 -15 -4t-4 -15v-177q0 -11 4 -15t15 -4h144q21 0 21 -21v-70q0 -21 -21 -21h-268q-21 0 -21 21v708q0 21 21 21h268q21 0 21 -21v-70q0 -21 -21 -21h-144q-11 0 -15 -4t-4 -15z" />
    <glyph glyph-name="Igrave" unicode="&#xcc;" horiz-adv-x="234" 
d="M1 981l26 39q12 19 28 8l173 -116q18 -12 7 -28l-27 -39q-12 -18 -28 -8l-173 116q-17 12 -6 28zM54 21v708q0 21 21 21h84q21 0 21 -21v-708q0 -21 -21 -21h-84q-21 0 -21 21z" />
    <glyph glyph-name="Iacute" unicode="&#xcd;" horiz-adv-x="234" 
d="M233 953q11 -16 -6 -28l-173 -116q-16 -10 -28 8l-27 39q-11 16 7 28l173 116q16 11 28 -8zM54 21v708q0 21 21 21h84q21 0 21 -21v-708q0 -21 -21 -21h-84q-21 0 -21 21z" />
    <glyph glyph-name="Icircumflex" unicode="&#xce;" horiz-adv-x="234" 
d="M267 870q16 -13 0 -29l-29 -29q-14 -14 -29 0l-92 87l-92 -87q-16 -14 -30 0l-29 29q-15 15 0 29l136 127q14 16 30 0zM54 21v708q0 21 21 21h84q21 0 21 -21v-708q0 -21 -21 -21h-84q-21 0 -21 21z" />
    <glyph glyph-name="Idieresis" unicode="&#xcf;" horiz-adv-x="234" 
d="M33 818q-28 0 -47.5 19.5t-19.5 47.5q0 27 19.5 46.5t47.5 19.5q27 0 47 -19.5t20 -46.5q0 -28 -20 -47.5t-47 -19.5zM202 818q-28 0 -47.5 19.5t-19.5 47.5q0 27 19.5 46.5t47.5 19.5q27 0 46.5 -19.5t19.5 -46.5q0 -28 -19.5 -47.5t-46.5 -19.5zM54 21v708q0 21 21 21
h84q21 0 21 -21v-708q0 -21 -21 -21h-84q-21 0 -21 21z" />
    <glyph glyph-name="Eth" unicode="&#xd0;" horiz-adv-x="530" 
d="M262 750q110 0 164.5 -64t54.5 -181v-260q0 -117 -54.5 -181t-164.5 -64h-171q-21 0 -21 21v338q0 11 -4 15t-15 4h-10q-21 0 -21 21v43q0 21 21 21h10q11 0 15 4t4 15v247q0 21 21 21h171zM356 240v270q0 128 -100 128h-41q-11 0 -15 -4t-4 -15v-137q0 -11 4 -15t15 -4
h43q21 0 21 -21v-43q0 -21 -21 -21h-43q-11 0 -15 -4t-4 -15v-228q0 -11 4 -15t15 -4h41q100 0 100 128z" />
    <glyph glyph-name="Ntilde" unicode="&#xd1;" horiz-adv-x="533" 
d="M400 894q13 -9 5 -21q-32 -55 -88 -55q-17 0 -40 11.5t-30 13.5q-31 10 -51 -17q-11 -14 -21 -5l-42 26q-11 9 -5 21q32 55 88 55q17 0 41 -11.5t29 -13.5q31 -11 52 17q10 13 21 5zM458 750q21 0 21 -21v-708q0 -21 -21 -21h-63q-19 0 -29 21l-175 410q-1 3 -4 4t-5 -1
t-2 -5v-408q0 -21 -21 -21h-84q-21 0 -21 21v708q0 21 21 21h63q21 0 29 -21l176 -410q1 -3 4 -4t5 1t2 5v408q0 21 21 21h83z" />
    <glyph glyph-name="Ograve" unicode="&#xd2;" 
d="M138 981l26 39q12 19 28 8l173 -116q18 -12 7 -28l-27 -39q-12 -18 -28 -8l-173 116q-17 12 -6 28zM254 -9q-100 0 -152.5 64t-52.5 177v286q0 113 52.5 177t152.5 64q99 0 151.5 -64t52.5 -177v-286q0 -113 -52.5 -177t-151.5 -64zM254 108q39 0 59 33t20 90v287
q0 58 -20 91t-59 33t-59 -33t-20 -91v-287q0 -57 20 -90t59 -33z" />
    <glyph glyph-name="Oacute" unicode="&#xd3;" 
d="M370 953q11 -16 -6 -28l-173 -116q-16 -10 -28 8l-27 39q-11 16 7 28l173 116q16 11 28 -8zM254 -9q-100 0 -152.5 64t-52.5 177v286q0 113 52.5 177t152.5 64q99 0 151.5 -64t52.5 -177v-286q0 -113 -52.5 -177t-151.5 -64zM254 108q39 0 59 33t20 90v287q0 58 -20 91
t-59 33t-59 -33t-20 -91v-287q0 -57 20 -90t59 -33z" />
    <glyph glyph-name="Ocircumflex" unicode="&#xd4;" 
d="M404 870q16 -13 0 -29l-29 -29q-15 -14 -29 0l-92 87l-92 -87q-16 -14 -30 0l-29 29q-15 15 0 29l136 127q14 16 30 0zM254 -9q-100 0 -152.5 64t-52.5 177v286q0 113 52.5 177t152.5 64q99 0 151.5 -64t52.5 -177v-286q0 -113 -52.5 -177t-151.5 -64zM254 108
q39 0 59 33t20 90v287q0 58 -20 91t-59 33t-59 -33t-20 -91v-287q0 -57 20 -90t59 -33z" />
    <glyph glyph-name="Otilde" unicode="&#xd5;" 
d="M388 894q13 -9 5 -21q-32 -55 -88 -55q-17 0 -40 11.5t-30 13.5q-31 10 -51 -17q-11 -14 -21 -5l-42 26q-11 9 -5 21q32 55 88 55q17 0 41 -11.5t29 -13.5q31 -11 52 17q10 13 21 5zM254 -9q-100 0 -152.5 64t-52.5 177v286q0 113 52.5 177t152.5 64q99 0 151.5 -64
t52.5 -177v-286q0 -113 -52.5 -177t-151.5 -64zM254 108q39 0 59 33t20 90v287q0 58 -20 91t-59 33t-59 -33t-20 -91v-287q0 -57 20 -90t59 -33z" />
    <glyph glyph-name="Odieresis" unicode="&#xd6;" 
d="M170 818q-28 0 -47.5 19.5t-19.5 47.5q0 27 19.5 46.5t47.5 19.5q27 0 47 -19.5t20 -46.5q0 -28 -20 -47.5t-47 -19.5zM339 818q-28 0 -47.5 19.5t-19.5 47.5q0 27 19.5 46.5t47.5 19.5q27 0 46.5 -19.5t19.5 -46.5q0 -28 -19.5 -47.5t-46.5 -19.5zM254 -9
q-100 0 -152.5 64t-52.5 177v286q0 113 52.5 177t152.5 64q99 0 151.5 -64t52.5 -177v-286q0 -113 -52.5 -177t-151.5 -64zM254 108q39 0 59 33t20 90v287q0 58 -20 91t-59 33t-59 -33t-20 -91v-287q0 -57 20 -90t59 -33z" />
    <glyph glyph-name="multiply" unicode="&#xd7;" horiz-adv-x="471" 
d="M348 537q15 15 30 0l35 -34q14 -15 0 -30l-100 -100q-14 -13 0 -27l100 -99q14 -15 0 -30l-35 -34q-15 -15 -30 0l-99 99q-8 8 -13.5 8t-13.5 -8l-100 -99q-14 -16 -29 0l-36 34q-14 15 0 30l101 99q13 14 0 27l-100 99q-14 15 0 30l35 34q16 16 30 0l99 -98q14 -14 27 0
z" />
    <glyph glyph-name="Oslash" unicode="&#xd8;" 
d="M474 751q8 0 12 -5.5t0 -15.5l-48 -91q20 -52 20 -121v-286q0 -113 -52.5 -177t-151.5 -64q-81 0 -133 44l-8 -14q-11 -21 -29 -21h-46q-8 0 -12 5t0 16l45 85q-22 51 -22 126v286q0 113 52.5 177t152.5 64q83 0 136 -47l9 18q11 21 29 21h46zM175 518v-214l148 282
q-18 56 -69 56q-39 0 -59 -33t-20 -91zM333 231v208l-147 -280q19 -51 68 -51q39 0 59 33t20 90z" />
    <glyph glyph-name="Ugrave" unicode="&#xd9;" 
d="M144 953q-17 12 -6 28l26 39q12 19 28 8l173 -116q18 -12 7 -28l-27 -39q-12 -18 -28 -8zM437 750q21 0 21 -21v-361v-136q0 -113 -52.5 -177t-151.5 -64q-100 0 -152.5 64t-52.5 177v206v291q0 21 21 21h84q21 0 21 -21v-353v-145q0 -57 20 -90t59 -33t59 33t20 90v206
v292q0 21 21 21h83z" />
    <glyph glyph-name="Uacute" unicode="&#xda;" 
d="M163 817l-27 39q-11 16 7 28l173 116q16 11 28 -8l26 -39q11 -16 -6 -28l-173 -116q-16 -10 -28 8zM437 750q21 0 21 -21v-361v-136q0 -113 -52.5 -177t-151.5 -64q-100 0 -152.5 64t-52.5 177v206v291q0 21 21 21h84q21 0 21 -21v-353v-145q0 -57 20 -90t59 -33t59 33
t20 90v206v292q0 21 21 21h83z" />
    <glyph glyph-name="Ucircumflex" unicode="&#xdb;" 
d="M132 812l-29 29q-15 15 0 29l136 127q14 16 30 0l135 -127q16 -13 0 -29l-29 -29q-15 -14 -29 0l-92 87l-92 -87q-16 -14 -30 0zM437 750q21 0 21 -21v-361v-136q0 -113 -52.5 -177t-151.5 -64q-100 0 -152.5 64t-52.5 177v206v291q0 21 21 21h84q21 0 21 -21v-353v-145
q0 -57 20 -90t59 -33t59 33t20 90v206v292q0 21 21 21h83z" />
    <glyph glyph-name="Udieresis" unicode="&#xdc;" 
d="M170 818q-28 0 -47.5 19.5t-19.5 47.5q0 27 19.5 46.5t47.5 19.5q27 0 47 -19.5t20 -46.5q0 -28 -20 -47.5t-47 -19.5zM339 818q-28 0 -47.5 19.5t-19.5 47.5q0 27 19.5 46.5t47.5 19.5q27 0 46.5 -19.5t19.5 -46.5q0 -28 -19.5 -47.5t-46.5 -19.5zM437 750q21 0 21 -21
v-361v-136q0 -113 -52.5 -177t-151.5 -64q-100 0 -152.5 64t-52.5 177v206v291q0 21 21 21h84q21 0 21 -21v-353v-145q0 -57 20 -90t59 -33t59 33t20 90v206v292q0 21 21 21h83z" />
    <glyph glyph-name="Yacute" unicode="&#xdd;" horiz-adv-x="487" 
d="M360 953q11 -16 -6 -28l-173 -116q-16 -10 -28 8l-27 39q-11 16 7 28l173 116q16 11 28 -8zM444 750q20 0 12 -20l-149 -424v-285q0 -21 -21 -21h-84q-21 0 -21 21v285l-149 424q-8 20 12 20h88q19 0 26 -20l80 -249q2 -5 6 -5t6 5l80 249q7 20 26 20h88z" />
    <glyph glyph-name="Thorn" unicode="&#xde;" horiz-adv-x="466" 
d="M237 615q98 0 148.5 -63t50.5 -166v-33q0 -103 -50.5 -166t-148.5 -63h-38q-11 0 -15 -4t-4 -15v-84q0 -21 -21 -21h-84q-21 0 -21 21v708q0 21 21 21h84q21 0 21 -21v-95q0 -11 4 -15t15 -4h38zM310 359v20q0 124 -78 124h-33q-11 0 -15 -4t-4 -15v-230q0 -11 4 -15
t15 -4h33q78 0 78 124z" />
    <glyph glyph-name="germandbls" unicode="&#xdf;" horiz-adv-x="494" 
d="M353 391q-3 -33 19.5 -68.5l49 -75.5t28.5 -80q4 -69 -53.5 -115.5t-155.5 -64.5q-7 -1 -11.5 1.5t-6 7t-3.5 12.5l-13 63q-3 18 18 24q48 12 76.5 34t27.5 52q-1 23 -26 55t-48 69t-21 76q1 35 35.5 97t34.5 101q0 36 -18.5 55t-46.5 19q-72 0 -72 -120v-512
q0 -21 -21 -21h-76q-21 0 -21 21v537q0 102 54.5 151.5t130.5 49.5q72 0 128 -43t56 -123q0 -51 -32 -117t-33 -85z" />
    <glyph glyph-name="agrave" unicode="&#xe0;" horiz-adv-x="451" 
d="M323 689q16 -14 0 -30l-39 -39q-15 -15 -30 0l-132 124q-14 14 0 29l39 40q15 15 30 0zM209 -7q-66 -11 -117 33t-51 130q0 42 14 74t35 51t55 32.5t64.5 19.5t72.5 11v31q0 33 -17.5 50.5t-43.5 17.5q-47 0 -57 -49q-3 -12 -17 -12h-72q-13 0 -13 18q2 71 49.5 107
t116.5 36q72 0 121.5 -46t49.5 -142l1 -239q0 -49 9 -96q4 -20 -20 -20h-72q-11 0 -15.5 6.5t-8.5 30.5q-31 -36 -84 -44zM222 97q25 1 42.5 20.5t17.5 56.5v99q-66 -10 -94.5 -31.5t-27.5 -74.5q1 -35 19 -53.5t43 -16.5z" />
    <glyph glyph-name="aacute" unicode="&#xe1;" horiz-adv-x="451" 
d="M119 689l133 124q15 15 30 0l38 -40q14 -15 0 -29l-131 -124q-15 -15 -30 0l-40 39q-15 15 0 30zM209 -7q-66 -11 -117 33t-51 130q0 42 14 74t35 51t55 32.5t64.5 19.5t72.5 11v31q0 33 -17.5 50.5t-43.5 17.5q-47 0 -57 -49q-3 -12 -17 -12h-72q-13 0 -13 18
q2 71 49.5 107t116.5 36q72 0 121.5 -46t49.5 -142l1 -239q0 -49 9 -96q4 -20 -20 -20h-72q-11 0 -15.5 6.5t-8.5 30.5q-31 -36 -84 -44zM222 97q25 1 42.5 20.5t17.5 56.5v99q-66 -10 -94.5 -31.5t-27.5 -74.5q1 -35 19 -53.5t43 -16.5z" />
    <glyph glyph-name="acircumflex" unicode="&#xe2;" horiz-adv-x="451" 
d="M373 679q16 -13 0 -29l-29 -30q-14 -14 -29 0l-92 88l-92 -88q-16 -14 -30 0l-29 30q-15 15 0 29l136 127q14 16 30 0zM209 -7q-66 -11 -117 33t-51 130q0 42 14 74t35 51t55 32.5t64.5 19.5t72.5 11v31q0 33 -17.5 50.5t-43.5 17.5q-47 0 -57 -49q-3 -12 -17 -12h-72
q-13 0 -13 18q2 71 49.5 107t116.5 36q72 0 121.5 -46t49.5 -142l1 -239q0 -49 9 -96q4 -20 -20 -20h-72q-11 0 -15.5 6.5t-8.5 30.5q-31 -36 -84 -44zM222 97q25 1 42.5 20.5t17.5 56.5v99q-66 -10 -94.5 -31.5t-27.5 -74.5q1 -35 19 -53.5t43 -16.5z" />
    <glyph glyph-name="atilde" unicode="&#xe3;" horiz-adv-x="451" 
d="M363 733q12 -8 5 -21q-18 -34 -45.5 -50t-51.5 -15q-15 0 -28 4t-27.5 10.5t-21.5 8.5q-35 10 -54 -16q-9 -13 -21 -5l-45 26q-12 7 -5 21q18 33 45 49.5t52 15.5q15 0 28 -4t27 -10.5t21 -8.5q35 -10 54 16q10 13 21 5zM209 -7q-66 -11 -117 33t-51 130q0 42 14 74
t35 51t55 32.5t64.5 19.5t72.5 11v31q0 33 -17.5 50.5t-43.5 17.5q-47 0 -57 -49q-3 -12 -17 -12h-72q-13 0 -13 18q2 71 49.5 107t116.5 36q72 0 121.5 -46t49.5 -142l1 -239q0 -49 9 -96q4 -20 -20 -20h-72q-11 0 -15.5 6.5t-8.5 30.5q-31 -36 -84 -44zM222 97
q25 1 42.5 20.5t17.5 56.5v99q-66 -10 -94.5 -31.5t-27.5 -74.5q1 -35 19 -53.5t43 -16.5z" />
    <glyph glyph-name="adieresis" unicode="&#xe4;" horiz-adv-x="451" 
d="M132 638q-28 0 -48.5 20t-20.5 48t20 48t49 20q28 0 48 -20t20 -48t-20 -48t-48 -20zM315 638q-28 0 -48.5 20t-20.5 48t20 48t49 20t49 -20t20 -48t-20.5 -48t-48.5 -20zM209 -7q-66 -11 -117 33t-51 130q0 42 14 74t35 51t55 32.5t64.5 19.5t72.5 11v31
q0 33 -17.5 50.5t-43.5 17.5q-47 0 -57 -49q-3 -12 -17 -12h-72q-13 0 -13 18q2 71 49.5 107t116.5 36q72 0 121.5 -46t49.5 -142l1 -239q0 -49 9 -96q4 -20 -20 -20h-72q-11 0 -15.5 6.5t-8.5 30.5q-31 -36 -84 -44zM222 97q25 1 42.5 20.5t17.5 56.5v99
q-66 -10 -94.5 -31.5t-27.5 -74.5q1 -35 19 -53.5t43 -16.5z" />
    <glyph glyph-name="aring" unicode="&#xe5;" horiz-adv-x="451" 
d="M223 618q-47 0 -80 33.5t-33 80.5q0 46 33 79.5t80 33.5t80 -33.5t33 -79.5q0 -47 -33 -80.5t-80 -33.5zM223 685q19 0 32.5 14t13.5 33t-13.5 32.5t-32.5 13.5t-33 -13.5t-14 -32.5q0 -20 14 -33.5t33 -13.5zM209 -7q-66 -11 -117 33t-51 130q0 42 14 74t35 51t55 32.5
t64.5 19.5t72.5 11v31q0 33 -17.5 50.5t-43.5 17.5q-47 0 -57 -49q-3 -12 -17 -12h-72q-13 0 -13 18q2 71 49.5 107t116.5 36q72 0 121.5 -46t49.5 -142l1 -239q0 -49 9 -96q4 -20 -20 -20h-72q-11 0 -15.5 6.5t-8.5 30.5q-31 -36 -84 -44zM222 97q25 1 42.5 20.5t17.5 56.5
v99q-66 -10 -94.5 -31.5t-27.5 -74.5q1 -35 19 -53.5t43 -16.5z" />
    <glyph glyph-name="ae" unicode="&#xe6;" horiz-adv-x="683" 
d="M463 543q73 0 124.5 -49.5t51.5 -151.5v-17q0 -28 -3 -58q-1 -21 -21 -21h-205q-10 0 -10 -10v-64q0 -38 18.5 -56.5t44.5 -18.5q41 0 56 43q4 12 17 12h80q15 0 13 -18q-8 -74 -57.5 -108.5t-112.5 -34.5q-96 0 -142 70q-42 -57 -108 -68t-117 33t-51 130q0 42 14 74
t35.5 51t55.5 32.5t64 19.5t72 11v18q0 38 -19 56.5t-45 18.5q-42 0 -56 -43q-4 -12 -17 -12h-74q-15 0 -13 18q8 74 55.5 108.5t109.5 34.5q75 0 121 -46q47 46 119 46zM527 338v22q0 40 -19 58.5t-45 18.5q-25 0 -44 -18.5t-19 -58.5v-22q0 -10 10 -10h107q10 0 10 10z
M282 174v99q-66 -10 -94.5 -31.5t-27.5 -74.5q1 -35 19 -53.5t43 -16.5q25 1 42.5 20.5t17.5 56.5z" />
    <glyph glyph-name="ccedilla" unicode="&#xe7;" horiz-adv-x="429" 
d="M372 152q15 0 13 -18q-7 -64 -43.5 -98.5t-87.5 -41.5l-14 -39q53 23 97.5 -10t44.5 -90q0 -50 -37 -84t-89 -34q-24 0 -53 12q-18 7 -12 24l16 40q7 16 22 10q15 -5 27 -5q19 0 32 13.5t13 33.5q0 19 -13.5 32t-32.5 13q-23 0 -40 -20q-11 -11 -24 -4l-31 14
q-13 5 -8 19l26 76q-60 12 -97 60.5t-37 136.5v150q0 104 50.5 152.5t126.5 48.5q62 0 109 -34.5t55 -108.5q2 -18 -13 -18h-74q-13 0 -17 12q-14 43 -56 43q-26 0 -44.5 -18.5t-18.5 -56.5v-190q0 -38 18.5 -56.5t44.5 -18.5q43 0 56 43q4 12 17 12h74z" />
    <glyph glyph-name="egrave" unicode="&#xe8;" horiz-adv-x="442" 
d="M325 689q16 -14 0 -30l-39 -39q-15 -15 -30 0l-132 124q-14 14 0 29l39 40q15 15 30 0zM224 543q32 0 61 -10t55.5 -31.5t42 -62.5t15.5 -97v-17q0 -23 -3 -52q-1 -21 -21 -21h-205q-10 0 -10 -10v-70q0 -38 19.5 -56.5t45.5 -18.5q42 0 57 43q4 12 17 12h77q15 0 13 -18
q-8 -74 -55 -108.5t-109 -34.5q-75 0 -127.5 51.5t-52.5 166.5v116q0 115 52.5 166.5t127.5 51.5zM295 366q0 39 -21 58t-47 19t-47 -19t-21 -58v-22q0 -10 10 -10h116q10 0 10 10v22z" />
    <glyph glyph-name="eacute" unicode="&#xe9;" horiz-adv-x="442" 
d="M121 689l133 124q15 15 30 0l38 -40q14 -15 0 -29l-131 -124q-15 -15 -30 0l-40 39q-15 15 0 30zM224 543q32 0 61 -10t55.5 -31.5t42 -62.5t15.5 -97v-17q0 -23 -3 -52q-1 -21 -21 -21h-205q-10 0 -10 -10v-70q0 -38 19.5 -56.5t45.5 -18.5q42 0 57 43q4 12 17 12h77
q15 0 13 -18q-8 -74 -55 -108.5t-109 -34.5q-75 0 -127.5 51.5t-52.5 166.5v116q0 115 52.5 166.5t127.5 51.5zM295 366q0 39 -21 58t-47 19t-47 -19t-21 -58v-22q0 -10 10 -10h116q10 0 10 10v22z" />
    <glyph glyph-name="ecircumflex" unicode="&#xea;" horiz-adv-x="442" 
d="M375 679q16 -13 0 -29l-29 -30q-14 -14 -29 0l-92 88l-92 -88q-17 -14 -30 0l-29 30q-15 15 0 29l136 127q14 16 30 0zM224 543q32 0 61 -10t55.5 -31.5t42 -62.5t15.5 -97v-17q0 -23 -3 -52q-1 -21 -21 -21h-205q-10 0 -10 -10v-70q0 -38 19.5 -56.5t45.5 -18.5
q42 0 57 43q4 12 17 12h77q15 0 13 -18q-8 -74 -55 -108.5t-109 -34.5q-75 0 -127.5 51.5t-52.5 166.5v116q0 115 52.5 166.5t127.5 51.5zM295 366q0 39 -21 58t-47 19t-47 -19t-21 -58v-22q0 -10 10 -10h116q10 0 10 10v22z" />
    <glyph glyph-name="edieresis" unicode="&#xeb;" horiz-adv-x="442" 
d="M134 638q-28 0 -48.5 20t-20.5 48t20 48t49 20q28 0 48 -20t20 -48t-20 -48t-48 -20zM317 638q-28 0 -48.5 20t-20.5 48t20 48t49 20t49 -20t20 -48t-20.5 -48t-48.5 -20zM224 543q32 0 61 -10t55.5 -31.5t42 -62.5t15.5 -97v-17q0 -23 -3 -52q-1 -21 -21 -21h-205
q-10 0 -10 -10v-70q0 -38 19.5 -56.5t45.5 -18.5q42 0 57 43q4 12 17 12h77q15 0 13 -18q-8 -74 -55 -108.5t-109 -34.5q-75 0 -127.5 51.5t-52.5 166.5v116q0 115 52.5 166.5t127.5 51.5zM295 366q0 39 -21 58t-47 19t-47 -19t-21 -58v-22q0 -10 10 -10h116q10 0 10 10v22z
" />
    <glyph glyph-name="igrave" unicode="&#xec;" horiz-adv-x="215" 
d="M208 689q16 -14 0 -30l-39 -39q-15 -15 -30 0l-132 124q-14 14 0 29l39 40q15 15 30 0zM146 534q21 0 21 -21v-492q0 -21 -21 -21h-76q-21 0 -21 21v492q0 21 21 21h76z" />
    <glyph glyph-name="iacute" unicode="&#xed;" horiz-adv-x="215" 
d="M4 689l133 124q15 15 30 0l38 -40q15 -15 0 -29l-131 -124q-15 -15 -30 0l-40 39q-15 15 0 30zM146 534q21 0 21 -21v-492q0 -21 -21 -21h-76q-21 0 -21 21v492q0 21 21 21h76z" />
    <glyph glyph-name="icircumflex" unicode="&#xee;" horiz-adv-x="215" 
d="M258 679q16 -13 0 -29l-29 -30q-14 -14 -29 0l-92 88l-92 -88q-17 -14 -30 0l-29 30q-15 15 0 29l136 127q14 16 30 0zM146 534q21 0 21 -21v-492q0 -21 -21 -21h-76q-21 0 -21 21v492q0 21 21 21h76z" />
    <glyph glyph-name="idieresis" unicode="&#xef;" horiz-adv-x="215" 
d="M17 638q-28 0 -48.5 20t-20.5 48t20 48t49 20q28 0 48 -20t20 -48t-20 -48t-48 -20zM200 638q-28 0 -48.5 20t-20.5 48t20 48t49 20t49 -20t20 -48t-20.5 -48t-48.5 -20zM146 534q21 0 21 -21v-492q0 -21 -21 -21h-76q-21 0 -21 21v492q0 21 21 21h76z" />
    <glyph glyph-name="eth" unicode="&#xf0;" horiz-adv-x="462" 
d="M231 -9q-73 0 -127.5 49.5t-54.5 151.5v112q0 96 49 139.5t110 38.5q51 -6 87 -42q0 119 -26 165l-45 -43q-15 -15 -30 0l-40 40q-14 14 0 30l42 39q-20 8 -58 12q-12 2 -16.5 6t-4.5 15v53q0 21 21 21q81 0 141 -29l42 39q14 14 30 0l38 -41q15 -15 0 -29l-33 -31
q31 -44 44 -93.5t13 -158.5v-243q0 -102 -54.5 -151.5t-127.5 -49.5zM231 97q25 0 44.5 19t19.5 58v125q0 40 -19 58.5t-45 18.5t-45 -18.5t-19 -58.5v-125q0 -39 19.5 -58t44.5 -19z" />
    <glyph glyph-name="ntilde" unicode="&#xf1;" horiz-adv-x="461" 
d="M78 675q-12 7 -5 21q18 33 45 49.5t52 15.5q15 0 28 -4t27 -10.5t21 -8.5q35 -10 54 16q10 13 21 5l46 -26q12 -8 5 -21q-18 -34 -45.5 -50t-51.5 -15q-15 0 -28 4t-27.5 10.5t-21.5 8.5q-35 10 -54 -16q-9 -13 -21 -5zM248 540q64 12 114 -33t50 -129v-357
q0 -21 -21 -21h-76q-21 0 -21 21v339q0 40 -19.5 59t-45.5 18t-44 -20.5t-18 -56.5v-339q0 -21 -21 -21h-76q-21 0 -21 21v492q0 21 21 21h56q19 0 23 -22l7 -32q39 50 92 60z" />
    <glyph glyph-name="ograve" unicode="&#xf2;" horiz-adv-x="451" 
d="M325 689q16 -14 0 -30l-39 -39q-15 -15 -30 0l-132 124q-14 14 0 29l39 40q15 15 30 0zM225 -9q-73 0 -127 49.5t-54 151.5v150q0 102 54 151.5t127 49.5q74 0 128 -49.5t54 -151.5v-150q0 -102 -54 -151.5t-128 -49.5zM289 360q0 40 -19 58.5t-45 18.5q-25 0 -44 -18.5
t-19 -58.5v-186q0 -39 19 -58t44 -19t44.5 19t19.5 58v186z" />
    <glyph glyph-name="oacute" unicode="&#xf3;" horiz-adv-x="451" 
d="M121 689l133 124q15 15 30 0l38 -40q14 -15 0 -29l-131 -124q-15 -15 -30 0l-40 39q-15 15 0 30zM225 -9q-73 0 -127 49.5t-54 151.5v150q0 102 54 151.5t127 49.5q74 0 128 -49.5t54 -151.5v-150q0 -102 -54 -151.5t-128 -49.5zM289 360q0 40 -19 58.5t-45 18.5
q-25 0 -44 -18.5t-19 -58.5v-186q0 -39 19 -58t44 -19t44.5 19t19.5 58v186z" />
    <glyph glyph-name="ocircumflex" unicode="&#xf4;" horiz-adv-x="451" 
d="M375 679q16 -13 0 -29l-29 -30q-14 -14 -29 0l-92 88l-92 -88q-17 -14 -30 0l-29 30q-15 15 0 29l136 127q14 16 30 0zM225 -9q-73 0 -127 49.5t-54 151.5v150q0 102 54 151.5t127 49.5q74 0 128 -49.5t54 -151.5v-150q0 -102 -54 -151.5t-128 -49.5zM289 360
q0 40 -19 58.5t-45 18.5q-25 0 -44 -18.5t-19 -58.5v-186q0 -39 19 -58t44 -19t44.5 19t19.5 58v186z" />
    <glyph glyph-name="otilde" unicode="&#xf5;" horiz-adv-x="451" 
d="M365 733q12 -8 5 -21q-18 -34 -45.5 -50t-51.5 -15q-15 0 -28 4t-27.5 10.5t-21.5 8.5q-35 10 -54 -16q-9 -13 -21 -5l-45 26q-13 7 -5 21q18 33 45 49.5t52 15.5q15 0 28 -4t27 -10.5t21 -8.5q35 -10 54 16q10 13 21 5zM225 -9q-73 0 -127 49.5t-54 151.5v150
q0 102 54 151.5t127 49.5q74 0 128 -49.5t54 -151.5v-150q0 -102 -54 -151.5t-128 -49.5zM289 360q0 40 -19 58.5t-45 18.5q-25 0 -44 -18.5t-19 -58.5v-186q0 -39 19 -58t44 -19t44.5 19t19.5 58v186z" />
    <glyph glyph-name="odieresis" unicode="&#xf6;" horiz-adv-x="451" 
d="M134 638q-28 0 -48.5 20t-20.5 48t20 48t49 20q28 0 48 -20t20 -48t-20 -48t-48 -20zM317 638q-28 0 -48.5 20t-20.5 48t20 48t49 20t49 -20t20 -48t-20.5 -48t-48.5 -20zM225 -9q-73 0 -127 49.5t-54 151.5v150q0 102 54 151.5t127 49.5q74 0 128 -49.5t54 -151.5v-150
q0 -102 -54 -151.5t-128 -49.5zM289 360q0 40 -19 58.5t-45 18.5q-25 0 -44 -18.5t-19 -58.5v-186q0 -39 19 -58t44 -19t44.5 19t19.5 58v186z" />
    <glyph glyph-name="divide" unicode="&#xf7;" horiz-adv-x="529" 
d="M265 486q-32 0 -54.5 22t-22.5 54q0 31 22.5 53t54.5 22q31 0 53.5 -22t22.5 -53q0 -32 -22 -54t-54 -22zM469 407q21 0 21 -21v-50q0 -21 -21 -21h-409q-21 0 -21 21v50q0 21 21 21h409zM265 85q-32 0 -54.5 22t-22.5 54q0 31 22.5 53t54.5 22t54 -22t22 -53
t-22.5 -53.5t-53.5 -22.5z" />
    <glyph glyph-name="oslash" unicode="&#xf8;" horiz-adv-x="451" 
d="M429 534q8 0 11 -6t-3 -15l-50 -70q20 -42 20 -101v-150q0 -102 -54 -151.5t-128 -49.5q-75 0 -125 47l-12 -17q-14 -21 -32 -21h-34q-8 0 -11 6t3 15l50 70q-20 42 -20 101v150q0 102 54 151.5t127 49.5q77 0 126 -48l13 18q14 21 30 21h35zM162 360v-131l120 169
q-15 39 -57 39q-25 0 -44 -18.5t-19 -58.5zM289 174v130l-120 -169q15 -38 56 -38q25 0 44.5 19t19.5 58z" />
    <glyph glyph-name="ugrave" unicode="&#xf9;" horiz-adv-x="461" 
d="M261 620l-132 124q-14 14 0 29l39 40q15 15 30 0l132 -124q16 -14 0 -30l-39 -39q-15 -15 -30 0zM391 534q21 0 21 -21v-492q0 -21 -21 -21h-56q-19 0 -23 22l-7 32q-39 -50 -92 -60q-64 -12 -114 33t-50 129v357q0 21 21 21h76q21 0 21 -21v-339q0 -40 19.5 -59
t45.5 -18t44 20.5t18 56.5v339q0 21 21 21h76z" />
    <glyph glyph-name="uacute" unicode="&#xfa;" horiz-adv-x="461" 
d="M166 620l-40 39q-15 15 0 30l133 124q15 15 30 0l38 -40q15 -15 0 -29l-131 -124q-15 -15 -30 0zM391 534q21 0 21 -21v-492q0 -21 -21 -21h-56q-19 0 -23 22l-7 32q-39 -50 -92 -60q-64 -12 -114 33t-50 129v357q0 21 21 21h76q21 0 21 -21v-339q0 -40 19.5 -59
t45.5 -18t44 20.5t18 56.5v339q0 21 21 21h76z" />
    <glyph glyph-name="ucircumflex" unicode="&#xfb;" horiz-adv-x="461" 
d="M108 620l-29 30q-15 15 0 29l136 127q14 16 30 0l135 -127q16 -13 0 -29l-29 -30q-14 -14 -29 0l-92 88l-92 -88q-16 -14 -30 0zM391 534q21 0 21 -21v-492q0 -21 -21 -21h-56q-19 0 -23 22l-7 32q-39 -50 -92 -60q-64 -12 -114 33t-50 129v357q0 21 21 21h76
q21 0 21 -21v-339q0 -40 19.5 -59t45.5 -18t44 20.5t18 56.5v339q0 21 21 21h76z" />
    <glyph glyph-name="udieresis" unicode="&#xfc;" horiz-adv-x="461" 
d="M139 638q-28 0 -48.5 20t-20.5 48t20 48t49 20q28 0 48 -20t20 -48t-20 -48t-48 -20zM322 638q-28 0 -48.5 20t-20.5 48t20 48t49 20t49 -20t20 -48t-20.5 -48t-48.5 -20zM391 534q21 0 21 -21v-492q0 -21 -21 -21h-56q-19 0 -23 22l-7 32q-39 -50 -92 -60
q-64 -12 -114 33t-50 129v357q0 21 21 21h76q21 0 21 -21v-339q0 -40 19.5 -59t45.5 -18t44 20.5t18 56.5v339q0 21 21 21h76z" />
    <glyph glyph-name="yacute" unicode="&#xfd;" horiz-adv-x="421" 
d="M106 689l133 124q15 15 30 0l38 -40q15 -15 0 -29l-131 -124q-15 -15 -30 0l-40 39q-15 15 0 30zM60 -208q-21 0 -21 21v64q0 20 21 21q20 2 32 5t25 14t19 29q15 48 16.5 64.5t-6.5 38.5l-141 465q-5 20 13 20h83q18 0 23 -20l81 -305q1 -5 6 -5t6 5l79 305q6 20 23 20
h83q9 0 13 -5.5t0 -14.5l-192 -623q-30 -99 -163 -99z" />
    <glyph glyph-name="thorn" unicode="&#xfe;" horiz-adv-x="456" 
d="M248 540q64 12 114 -33t50 -129v-222q0 -84 -50 -129t-114 -33q-45 9 -81 47v-228q0 -21 -21 -21h-76q-21 0 -21 21v916q0 21 21 21h74q22 0 22 -22l1 -187v-48q36 38 81 47zM294 174v186q0 40 -19.5 59t-45.5 18t-44 -20.5t-18 -56.5v-167v-19q0 -37 18 -56.5t44 -20.5
t45.5 18t19.5 59z" />
    <glyph glyph-name="ydieresis" unicode="&#xff;" horiz-adv-x="421" 
d="M119 638q-28 0 -48.5 20t-20.5 48t20 48t49 20q28 0 48 -20t20 -48t-20 -48t-48 -20zM302 638q-28 0 -48.5 20t-20.5 48t20 48t49 20t49 -20t20 -48t-20.5 -48t-48.5 -20zM60 -208q-21 0 -21 21v64q0 20 21 21q20 2 32 5t25 14t19 29q15 48 16.5 64.5t-6.5 38.5l-141 465
q-5 20 13 20h83q18 0 23 -20l81 -305q1 -5 6 -5t6 5l79 305q6 20 23 20h83q9 0 13 -5.5t0 -14.5l-192 -623q-30 -99 -163 -99z" />
    <glyph glyph-name="Amacron" unicode="&#x100;" horiz-adv-x="498" 
d="M346 915q21 0 21 -21v-48q0 -21 -21 -21h-194q-21 0 -21 21v48q0 21 21 21h194zM25 20l164 710q3 12 8.5 16t18.5 4h67q12 0 17.5 -4t8.5 -16l164 -710q5 -20 -15 -20h-87q-18 0 -23 20l-22 102q-2 9 -6 11.5t-14 2.5h-113q-11 0 -15 -2.5t-5 -11.5l-23 -102
q-5 -20 -23 -20h-87q-19 0 -15 20zM196 259q-2 -11 8 -11h90q10 0 8 11l-47 237q-1 5 -6 5t-6 -5z" />
    <glyph glyph-name="amacron" unicode="&#x101;" horiz-adv-x="451" 
d="M351 679q0 -21 -21 -21h-214q-21 0 -21 21v55q0 21 21 21h214q21 0 21 -21v-55zM209 -7q-66 -11 -117 33t-51 130q0 42 14 74t35 51t55 32.5t64.5 19.5t72.5 11v31q0 33 -17.5 50.5t-43.5 17.5q-47 0 -57 -49q-3 -12 -17 -12h-72q-13 0 -13 18q2 71 49.5 107t116.5 36
q72 0 121.5 -46t49.5 -142l1 -239q0 -49 9 -96q4 -20 -20 -20h-72q-11 0 -15.5 6.5t-8.5 30.5q-31 -36 -84 -44zM222 97q25 1 42.5 20.5t17.5 56.5v99q-66 -10 -94.5 -31.5t-27.5 -74.5q1 -35 19 -53.5t43 -16.5z" />
    <glyph glyph-name="Abreve" unicode="&#x102;" horiz-adv-x="498" 
d="M398 912q15 -15 0 -30q-63 -67 -149 -67q-87 0 -150 67q-14 16 0 30l33 31q13 13 31 -3q43 -37 86 -37q44 0 85 37q18 17 32 3zM25 20l164 710q3 12 8.5 16t18.5 4h67q12 0 17.5 -4t8.5 -16l164 -710q5 -20 -15 -20h-87q-18 0 -23 20l-22 102q-2 9 -6 11.5t-14 2.5h-113
q-11 0 -15 -2.5t-5 -11.5l-23 -102q-5 -20 -23 -20h-87q-19 0 -15 20zM196 259q-2 -11 8 -11h90q10 0 8 11l-47 237q-1 5 -6 5t-6 -5z" />
    <glyph glyph-name="abreve" unicode="&#x103;" horiz-adv-x="451" 
d="M367 736q15 -15 0 -30q-61 -61 -149 -61q-87 0 -150 61q-15 15 0 30l35 34q11 6 14.5 5t16.5 -10q44 -32 84 -32q38 0 84 32q13 9 16.5 10t14.5 -5zM209 -7q-66 -11 -117 33t-51 130q0 42 14 74t35 51t55 32.5t64.5 19.5t72.5 11v31q0 33 -17.5 50.5t-43.5 17.5
q-47 0 -57 -49q-3 -12 -17 -12h-72q-13 0 -13 18q2 71 49.5 107t116.5 36q72 0 121.5 -46t49.5 -142l1 -239q0 -49 9 -96q4 -20 -20 -20h-72q-11 0 -15.5 6.5t-8.5 30.5q-31 -36 -84 -44zM222 97q25 1 42.5 20.5t17.5 56.5v99q-66 -10 -94.5 -31.5t-27.5 -74.5
q1 -35 19 -53.5t43 -16.5z" />
    <glyph glyph-name="Aogonek" unicode="&#x104;" horiz-adv-x="498" 
d="M508 -159q6 -17 -12 -24q-67 -26 -127.5 10t-60.5 105q0 56 39 93l-21 97q-2 9 -6 11.5t-14 2.5h-113q-11 0 -15 -2.5t-5 -11.5l-23 -102q-5 -20 -23 -20h-87q-19 0 -15 20l164 710q3 12 8.5 16t18.5 4h67q12 0 17.5 -4t8.5 -16l164 -710q5 -20 -15 -20h-60
q-8 -17 -10 -35q-3 -33 20.5 -54t61.5 -10q18 6 22 -10zM294 248q10 0 8 11l-47 237q-1 5 -6 5t-6 -5l-47 -237q-2 -11 8 -11h90z" />
    <glyph glyph-name="aogonek" unicode="&#x105;" horiz-adv-x="451" 
d="M479 -152q6 -17 -12 -24q-67 -26 -127.5 10t-60.5 105q0 38 21 70q-4 8 -7 28q-31 -36 -84 -44q-66 -11 -117 33t-51 130q0 42 14 74t35 51t55 32.5t64.5 19.5t72.5 11v31q0 33 -17.5 50.5t-43.5 17.5q-47 0 -57 -49q-3 -12 -17 -12h-72q-13 0 -13 18q2 71 49.5 107
t116.5 36q72 0 121.5 -46t49.5 -142l1 -239q0 -49 9 -96q4 -20 -20 -20h-23q-6 -18 -7 -28q-3 -33 20.5 -54t61.5 -10q18 6 22 -10zM282 174v99q-66 -10 -94.5 -31.5t-27.5 -74.5q1 -35 19 -53.5t43 -16.5q25 1 42.5 20.5t17.5 56.5z" />
    <glyph glyph-name="Cacute" unicode="&#x106;" horiz-adv-x="500" 
d="M370 953q11 -16 -6 -28l-173 -116q-16 -10 -28 8l-27 39q-11 16 7 28l173 116q16 11 28 -8zM254 -9q-100 0 -152.5 64t-52.5 177v286q0 113 52.5 177t152.5 64q91 0 142.5 -53.5t54.5 -135.5q0 -18 -13 -18h-91q-16 0 -17 14q-13 76 -76 76q-39 0 -59 -33t-20 -91v-286
q0 -58 20 -91t59 -33q63 0 76 76q1 14 17 14h91q13 0 13 -18q-3 -82 -54.5 -135.5t-142.5 -53.5z" />
    <glyph glyph-name="cacute" unicode="&#x107;" horiz-adv-x="429" 
d="M117 689l133 124q15 15 30 0l38 -40q14 -15 0 -29l-131 -124q-15 -15 -30 0l-40 39q-15 15 0 30zM372 152q15 0 13 -18q-8 -74 -55 -108.5t-109 -34.5q-76 0 -126.5 48.5t-50.5 152.5v150q0 104 50.5 152.5t126.5 48.5q62 0 109 -34.5t55 -108.5q2 -18 -13 -18h-74
q-13 0 -17 12q-14 43 -56 43q-26 0 -44.5 -18.5t-18.5 -56.5v-190q0 -38 18.5 -56.5t44.5 -18.5q43 0 56 43q4 12 17 12h74z" />
    <glyph glyph-name="Ccircumflex" unicode="&#x108;" horiz-adv-x="500" 
d="M404 870q16 -13 0 -29l-29 -29q-15 -14 -29 0l-92 87l-92 -87q-16 -14 -30 0l-29 29q-15 15 0 29l136 127q14 16 30 0zM254 -9q-100 0 -152.5 64t-52.5 177v286q0 113 52.5 177t152.5 64q91 0 142.5 -53.5t54.5 -135.5q0 -18 -13 -18h-91q-16 0 -17 14q-13 76 -76 76
q-39 0 -59 -33t-20 -91v-286q0 -58 20 -91t59 -33q63 0 76 76q1 14 17 14h91q13 0 13 -18q-3 -82 -54.5 -135.5t-142.5 -53.5z" />
    <glyph glyph-name="ccircumflex" unicode="&#x109;" horiz-adv-x="429" 
d="M371 679q16 -13 0 -29l-29 -30q-14 -14 -29 0l-92 88l-92 -88q-16 -14 -30 0l-29 30q-15 15 0 29l136 127q14 16 30 0zM372 152q15 0 13 -18q-8 -74 -55 -108.5t-109 -34.5q-76 0 -126.5 48.5t-50.5 152.5v150q0 104 50.5 152.5t126.5 48.5q62 0 109 -34.5t55 -108.5
q2 -18 -13 -18h-74q-13 0 -17 12q-14 43 -56 43q-26 0 -44.5 -18.5t-18.5 -56.5v-190q0 -38 18.5 -56.5t44.5 -18.5q43 0 56 43q4 12 17 12h74z" />
    <glyph glyph-name="Cdotaccent" unicode="&#x10a;" horiz-adv-x="500" 
d="M254 818q-27 0 -46.5 19.5t-19.5 47.5q0 27 19.5 46.5t46.5 19.5q28 0 47.5 -19.5t19.5 -46.5q0 -28 -19.5 -47.5t-47.5 -19.5zM254 -9q-100 0 -152.5 64t-52.5 177v286q0 113 52.5 177t152.5 64q91 0 142.5 -53.5t54.5 -135.5q0 -18 -13 -18h-91q-16 0 -17 14
q-13 76 -76 76q-39 0 -59 -33t-20 -91v-286q0 -58 20 -91t59 -33q63 0 76 76q1 14 17 14h91q13 0 13 -18q-3 -82 -54.5 -135.5t-142.5 -53.5z" />
    <glyph glyph-name="cdotaccent" unicode="&#x10b;" horiz-adv-x="429" 
d="M221 638q-31 0 -52.5 21.5t-21.5 51.5t21.5 51.5t52.5 21.5q30 0 51 -21.5t21 -51.5t-21 -51.5t-51 -21.5zM372 152q15 0 13 -18q-8 -74 -55 -108.5t-109 -34.5q-76 0 -126.5 48.5t-50.5 152.5v150q0 104 50.5 152.5t126.5 48.5q62 0 109 -34.5t55 -108.5q2 -18 -13 -18
h-74q-13 0 -17 12q-14 43 -56 43q-26 0 -44.5 -18.5t-18.5 -56.5v-190q0 -38 18.5 -56.5t44.5 -18.5q43 0 56 43q4 12 17 12h74z" />
    <glyph glyph-name="Ccaron" unicode="&#x10c;" horiz-adv-x="500" 
d="M405 939l-135 -127q-16 -16 -30 0l-136 127q-15 14 0 29l29 29q14 14 30 0l92 -87l92 87q15 15 29 0l29 -29q16 -16 0 -29zM254 -9q-100 0 -152.5 64t-52.5 177v286q0 113 52.5 177t152.5 64q91 0 142.5 -53.5t54.5 -135.5q0 -18 -13 -18h-91q-16 0 -17 14q-13 76 -76 76
q-39 0 -59 -33t-20 -91v-286q0 -58 20 -91t59 -33q63 0 76 76q1 14 17 14h91q13 0 13 -18q-3 -82 -54.5 -135.5t-142.5 -53.5z" />
    <glyph glyph-name="ccaron" unicode="&#x10d;" horiz-adv-x="429" 
d="M371 747l-135 -128q-16 -14 -30 0l-136 128q-15 14 0 29l29 29q14 14 30 0l92 -87l92 87q15 15 29 0l29 -29q16 -16 0 -29zM372 152q15 0 13 -18q-8 -74 -55 -108.5t-109 -34.5q-76 0 -126.5 48.5t-50.5 152.5v150q0 104 50.5 152.5t126.5 48.5q62 0 109 -34.5t55 -108.5
q2 -18 -13 -18h-74q-13 0 -17 12q-14 43 -56 43q-26 0 -44.5 -18.5t-18.5 -56.5v-190q0 -38 18.5 -56.5t44.5 -18.5q43 0 56 43q4 12 17 12h74z" />
    <glyph glyph-name="Dcaron" unicode="&#x10e;" horiz-adv-x="515" 
d="M391 939l-135 -127q-16 -16 -30 0l-136 127q-15 14 0 29l29 29q14 14 30 0l92 -87l92 87q15 15 29 0l29 -29q16 -16 0 -29zM247 750q110 0 164 -64t54 -181v-260q0 -117 -54 -181t-164 -64h-172q-21 0 -21 21v708q0 21 21 21h172zM340 240v270q0 128 -99 128h-42
q-11 0 -15 -4t-4 -15v-488q0 -11 4 -15t15 -4h42q99 0 99 128z" />
    <glyph glyph-name="dcaron" unicode="&#x10f;" horiz-adv-x="607" 
d="M526 759q51 0 72 -51.5t-6 -122.5q-26 -63 -73 -105q-13 -11 -23 -2l-22 19q-9 8 -1 20q14 19 22 31.5t14.5 27t6 25t-7.5 17.5q-4 8 -17.5 17.5t-24 22t-10.5 32.5q0 29 20 49t50 20zM386 750q21 0 21 -21v-708q0 -21 -21 -21h-56q-19 0 -23 22l-6 27q-40 -47 -90 -56
q-66 -10 -116.5 33.5t-50.5 129.5v222q0 84 50 129t114 33q45 -9 81 -47v236q0 21 21 21h76zM227 97q26 1 44 20.5t18 56.5v167v19q0 37 -18 56.5t-44 20.5t-45.5 -18t-19.5 -59v-186q0 -39 19.5 -58.5t45.5 -18.5z" />
    <glyph glyph-name="Dcroat" unicode="&#x110;" horiz-adv-x="530" 
d="M262 750q110 0 164.5 -64t54.5 -181v-260q0 -117 -54.5 -181t-164.5 -64h-171q-21 0 -21 21v338q0 11 -4 15t-15 4h-10q-21 0 -21 21v43q0 21 21 21h10q11 0 15 4t4 15v247q0 21 21 21h171zM356 240v270q0 128 -100 128h-41q-11 0 -15 -4t-4 -15v-137q0 -11 4 -15t15 -4
h43q21 0 21 -21v-43q0 -21 -21 -21h-43q-11 0 -15 -4t-4 -15v-228q0 -11 4 -15t15 -4h41q100 0 100 128z" />
    <glyph glyph-name="dcroat" unicode="&#x111;" horiz-adv-x="473" 
d="M442 666q21 0 21 -21v-4q0 -21 -21 -21h-20q-9 0 -12 -3t-3 -12v-584q0 -21 -21 -21h-57q-18 0 -22 22l-6 27q-40 -47 -90 -56q-66 -10 -116.5 33.5t-50.5 129.5v222q0 84 50 129t114 33q45 -9 81 -47v112q0 9 -3 12t-12 3h-83q-21 0 -21 21v4q0 21 21 21h83q9 0 12 3
t3 12v48q0 21 21 21h76q21 0 21 -21v-48q0 -9 3 -12t12 -3h20zM227 97q26 1 44 20.5t18 56.5v167v19q0 37 -18 56.5t-44 20.5t-45.5 -18t-19.5 -59v-186q0 -39 19.5 -58.5t45.5 -18.5z" />
    <glyph glyph-name="Emacron" unicode="&#x112;" horiz-adv-x="414" 
d="M306 915q21 0 21 -21v-48q0 -21 -21 -21h-194q-21 0 -21 21v48q0 21 21 21h194zM180 619v-161q0 -11 4 -15t15 -4h144q21 0 21 -21v-70q0 -21 -21 -21h-144q-11 0 -15 -4t-4 -15v-177q0 -11 4 -15t15 -4h144q21 0 21 -21v-70q0 -21 -21 -21h-268q-21 0 -21 21v708
q0 21 21 21h268q21 0 21 -21v-70q0 -21 -21 -21h-144q-11 0 -15 -4t-4 -15z" />
    <glyph glyph-name="emacron" unicode="&#x113;" horiz-adv-x="442" 
d="M353 679q0 -21 -21 -21h-214q-21 0 -21 21v55q0 21 21 21h214q21 0 21 -21v-55zM224 543q32 0 61 -10t55.5 -31.5t42 -62.5t15.5 -97v-17q0 -23 -3 -52q-1 -21 -21 -21h-205q-10 0 -10 -10v-70q0 -38 19.5 -56.5t45.5 -18.5q42 0 57 43q4 12 17 12h77q15 0 13 -18
q-8 -74 -55 -108.5t-109 -34.5q-75 0 -127.5 51.5t-52.5 166.5v116q0 115 52.5 166.5t127.5 51.5zM295 366q0 39 -21 58t-47 19t-47 -19t-21 -58v-22q0 -10 10 -10h116q10 0 10 10v22z" />
    <glyph glyph-name="Ebreve" unicode="&#x114;" horiz-adv-x="414" 
d="M358 912q15 -15 0 -30q-63 -67 -149 -67q-87 0 -150 67q-14 16 0 30l33 31q13 13 31 -3q43 -37 86 -37q44 0 85 37q18 17 32 3zM180 619v-161q0 -11 4 -15t15 -4h144q21 0 21 -21v-70q0 -21 -21 -21h-144q-11 0 -15 -4t-4 -15v-177q0 -11 4 -15t15 -4h144q21 0 21 -21
v-70q0 -21 -21 -21h-268q-21 0 -21 21v708q0 21 21 21h268q21 0 21 -21v-70q0 -21 -21 -21h-144q-11 0 -15 -4t-4 -15z" />
    <glyph glyph-name="ebreve" unicode="&#x115;" horiz-adv-x="442" 
d="M369 736q15 -15 0 -30q-61 -61 -149 -61q-87 0 -150 61q-15 15 0 30l35 34q11 6 14.5 5t16.5 -10q44 -32 84 -32q38 0 84 32q13 9 16.5 10t14.5 -5zM224 543q32 0 61 -10t55.5 -31.5t42 -62.5t15.5 -97v-17q0 -23 -3 -52q-1 -21 -21 -21h-205q-10 0 -10 -10v-70
q0 -38 19.5 -56.5t45.5 -18.5q42 0 57 43q4 12 17 12h77q15 0 13 -18q-8 -74 -55 -108.5t-109 -34.5q-75 0 -127.5 51.5t-52.5 166.5v116q0 115 52.5 166.5t127.5 51.5zM295 366q0 39 -21 58t-47 19t-47 -19t-21 -58v-22q0 -10 10 -10h116q10 0 10 10v22z" />
    <glyph glyph-name="Edotaccent" unicode="&#x116;" horiz-adv-x="414" 
d="M209 818q-27 0 -46.5 19.5t-19.5 47.5q0 27 19.5 46.5t46.5 19.5q28 0 47.5 -19.5t19.5 -46.5q0 -28 -19.5 -47.5t-47.5 -19.5zM180 619v-161q0 -11 4 -15t15 -4h144q21 0 21 -21v-70q0 -21 -21 -21h-144q-11 0 -15 -4t-4 -15v-177q0 -11 4 -15t15 -4h144q21 0 21 -21
v-70q0 -21 -21 -21h-268q-21 0 -21 21v708q0 21 21 21h268q21 0 21 -21v-70q0 -21 -21 -21h-144q-11 0 -15 -4t-4 -15z" />
    <glyph glyph-name="edotaccent" unicode="&#x117;" horiz-adv-x="442" 
d="M225 638q-31 0 -52.5 21.5t-21.5 51.5t21.5 51.5t52.5 21.5q30 0 51 -21.5t21 -51.5t-21 -51.5t-51 -21.5zM224 543q32 0 61 -10t55.5 -31.5t42 -62.5t15.5 -97v-17q0 -23 -3 -52q-1 -21 -21 -21h-205q-10 0 -10 -10v-70q0 -38 19.5 -56.5t45.5 -18.5q42 0 57 43
q4 12 17 12h77q15 0 13 -18q-8 -74 -55 -108.5t-109 -34.5q-75 0 -127.5 51.5t-52.5 166.5v116q0 115 52.5 166.5t127.5 51.5zM295 366q0 39 -21 58t-47 19t-47 -19t-21 -58v-22q0 -10 10 -10h116q10 0 10 10v22z" />
    <glyph glyph-name="Eogonek" unicode="&#x118;" horiz-adv-x="414" 
d="M397 -151q6 -17 -12 -24q-67 -26 -127.5 10t-60.5 105q0 33 15 60h-137q-21 0 -21 21v708q0 21 21 21h268q21 0 21 -21v-70q0 -21 -21 -21h-144q-11 0 -15 -4t-4 -15v-161q0 -11 4 -15t15 -4h144q21 0 21 -21v-70q0 -21 -21 -21h-144q-11 0 -15 -4t-4 -15v-177
q0 -11 4 -15t15 -4h144q21 0 21 -21v-70q0 -21 -21 -21h-59q-6 -15 -7 -27q-3 -33 20.5 -54t61.5 -10q18 6 22 -10z" />
    <glyph glyph-name="eogonek" unicode="&#x119;" horiz-adv-x="442" 
d="M416 -161q6 -17 -12 -24q-67 -26 -127.5 10t-60.5 105q0 31 15 61h-7q-75 0 -127.5 51.5t-52.5 166.5v116q0 115 52.5 166.5t127.5 51.5q32 0 61 -10t55.5 -31.5t42 -62.5t15.5 -97v-17q0 -23 -3 -52q-1 -21 -21 -21h-205q-10 0 -10 -10v-70q0 -38 19.5 -56.5t45.5 -18.5
q42 0 57 43q4 12 17 12h77q15 0 13 -18q-10 -85 -74 -121q-16 -27 -18 -50q-3 -33 20.5 -54t61.5 -10q18 6 22 -10zM159 366v-22q0 -10 10 -10h116q10 0 10 10v22q0 39 -21 58t-47 19t-47 -19t-21 -58z" />
    <glyph glyph-name="Ecaron" unicode="&#x11a;" horiz-adv-x="414" 
d="M360 939l-135 -127q-16 -16 -30 0l-136 127q-15 14 0 29l29 29q14 14 30 0l92 -87l92 87q14 15 29 0l29 -29q16 -16 0 -29zM180 619v-161q0 -11 4 -15t15 -4h144q21 0 21 -21v-70q0 -21 -21 -21h-144q-11 0 -15 -4t-4 -15v-177q0 -11 4 -15t15 -4h144q21 0 21 -21v-70
q0 -21 -21 -21h-268q-21 0 -21 21v708q0 21 21 21h268q21 0 21 -21v-70q0 -21 -21 -21h-144q-11 0 -15 -4t-4 -15z" />
    <glyph glyph-name="ecaron" unicode="&#x11b;" horiz-adv-x="442" 
d="M375 747l-135 -128q-16 -14 -30 0l-136 128q-15 14 0 29l29 29q14 14 30 0l92 -87l92 87q15 15 29 0l29 -29q16 -16 0 -29zM224 543q32 0 61 -10t55.5 -31.5t42 -62.5t15.5 -97v-17q0 -23 -3 -52q-1 -21 -21 -21h-205q-10 0 -10 -10v-70q0 -38 19.5 -56.5t45.5 -18.5
q42 0 57 43q4 12 17 12h77q15 0 13 -18q-8 -74 -55 -108.5t-109 -34.5q-75 0 -127.5 51.5t-52.5 166.5v116q0 115 52.5 166.5t127.5 51.5zM295 366q0 39 -21 58t-47 19t-47 -19t-21 -58v-22q0 -10 10 -10h116q10 0 10 10v22z" />
    <glyph glyph-name="Gcircumflex" unicode="&#x11c;" horiz-adv-x="503" 
d="M404 870q16 -13 0 -29l-29 -29q-15 -14 -29 0l-92 87l-92 -87q-16 -14 -30 0l-29 29q-15 15 0 29l136 127q14 16 30 0zM433 433q11 0 15.5 -4.5t4.5 -15.5v-215q0 -92 -52 -149.5t-147 -57.5q-100 0 -152.5 64t-52.5 177v286q0 113 52.5 177t152.5 64q91 0 142.5 -53.5
t54.5 -135.5q0 -18 -13 -18h-91q-15 0 -18 15q-5 33 -24 54t-51 21q-39 0 -59 -33t-20 -91v-286q0 -57 21 -90.5t60 -33.5q35 0 56.5 26t21.5 71v108q0 13 -3.5 16.5t-16.5 3.5h-46q-11 0 -15.5 4.5t-4.5 15.5v60q0 11 4.5 15.5t15.5 4.5h165z" />
    <glyph glyph-name="gcircumflex" unicode="&#x11d;" horiz-adv-x="456" 
d="M108 620l-29 30q-15 15 0 29l136 127q14 16 30 0l135 -127q16 -13 0 -29l-29 -30q-14 -14 -29 0l-92 88l-92 -88q-16 -14 -30 0zM386 534q21 0 21 -21v-529q0 -104 -50.5 -153t-126.5 -49q-63 0 -112.5 35t-57.5 109q-2 18 13 18h79q13 0 17 -12q15 -44 56 -44
q26 0 45 19t19 57v77q-36 -38 -81 -47q-64 -12 -114 33t-50 129v222q0 86 50.5 129.5t116.5 33.5q50 -9 90 -56l6 27q4 22 22 22h57zM227 97q26 1 44 20.5t18 56.5v167v19q0 37 -18 56.5t-44 20.5t-45.5 -18.5t-19.5 -58.5v-186q0 -40 19.5 -59t45.5 -18z" />
    <glyph glyph-name="Gbreve" unicode="&#x11e;" horiz-adv-x="503" 
d="M403 912q15 -15 0 -30q-63 -67 -149 -67q-87 0 -150 67q-14 16 0 30l33 31q13 13 31 -3q43 -37 86 -37q44 0 85 37q18 17 32 3zM433 433q11 0 15.5 -4.5t4.5 -15.5v-215q0 -92 -52 -149.5t-147 -57.5q-100 0 -152.5 64t-52.5 177v286q0 113 52.5 177t152.5 64
q91 0 142.5 -53.5t54.5 -135.5q0 -18 -13 -18h-91q-15 0 -18 15q-5 33 -24 54t-51 21q-39 0 -59 -33t-20 -91v-286q0 -57 21 -90.5t60 -33.5q35 0 56.5 26t21.5 71v108q0 13 -3.5 16.5t-16.5 3.5h-46q-11 0 -15.5 4.5t-4.5 15.5v60q0 11 4.5 15.5t15.5 4.5h165z" />
    <glyph glyph-name="gbreve" unicode="&#x11f;" horiz-adv-x="456" 
d="M225 645q-87 0 -150 61q-15 15 0 30l35 34q11 6 14.5 5t16.5 -10q44 -32 84 -32q38 0 84 32q13 9 16.5 10t14.5 -5l34 -34q15 -15 0 -30q-61 -61 -149 -61zM386 534q21 0 21 -21v-529q0 -104 -50.5 -153t-126.5 -49q-63 0 -112.5 35t-57.5 109q-2 18 13 18h79
q13 0 17 -12q15 -44 56 -44q26 0 45 19t19 57v77q-36 -38 -81 -47q-64 -12 -114 33t-50 129v222q0 86 50.5 129.5t116.5 33.5q50 -9 90 -56l6 27q4 22 22 22h57zM227 97q26 1 44 20.5t18 56.5v167v19q0 37 -18 56.5t-44 20.5t-45.5 -18.5t-19.5 -58.5v-186q0 -40 19.5 -59
t45.5 -18z" />
    <glyph glyph-name="Gdotaccent" unicode="&#x120;" horiz-adv-x="503" 
d="M254 818q-27 0 -46.5 19.5t-19.5 47.5q0 27 19.5 46.5t46.5 19.5q28 0 47.5 -19.5t19.5 -46.5q0 -28 -19.5 -47.5t-47.5 -19.5zM433 433q11 0 15.5 -4.5t4.5 -15.5v-215q0 -92 -52 -149.5t-147 -57.5q-100 0 -152.5 64t-52.5 177v286q0 113 52.5 177t152.5 64
q91 0 142.5 -53.5t54.5 -135.5q0 -18 -13 -18h-91q-15 0 -18 15q-5 33 -24 54t-51 21q-39 0 -59 -33t-20 -91v-286q0 -57 21 -90.5t60 -33.5q35 0 56.5 26t21.5 71v108q0 13 -3.5 16.5t-16.5 3.5h-46q-11 0 -15.5 4.5t-4.5 15.5v60q0 11 4.5 15.5t15.5 4.5h165z" />
    <glyph glyph-name="gdotaccent" unicode="&#x121;" horiz-adv-x="456" 
d="M230 638q-31 0 -52.5 21.5t-21.5 51.5t21.5 51.5t52.5 21.5q30 0 51 -21.5t21 -51.5t-21 -51.5t-51 -21.5zM386 534q21 0 21 -21v-529q0 -104 -50.5 -153t-126.5 -49q-63 0 -112.5 35t-57.5 109q-2 18 13 18h79q13 0 17 -12q15 -44 56 -44q26 0 45 19t19 57v77
q-36 -38 -81 -47q-64 -12 -114 33t-50 129v222q0 86 50.5 129.5t116.5 33.5q50 -9 90 -56l6 27q4 22 22 22h57zM227 97q26 1 44 20.5t18 56.5v167v19q0 37 -18 56.5t-44 20.5t-45.5 -18.5t-19.5 -58.5v-186q0 -40 19.5 -59t45.5 -18z" />
    <glyph glyph-name="Gcommaaccent" unicode="&#x122;" horiz-adv-x="503" 
d="M433 433q11 0 15.5 -4.5t4.5 -15.5v-215q0 -92 -52 -149.5t-147 -57.5q-100 0 -152.5 64t-52.5 177v286q0 113 52.5 177t152.5 64q91 0 142.5 -53.5t54.5 -135.5q0 -18 -13 -18h-91q-15 0 -18 15q-5 33 -24 54t-51 21q-39 0 -59 -33t-20 -91v-286q0 -57 21 -90.5
t60 -33.5q35 0 56.5 26t21.5 71v108q0 13 -3.5 16.5t-16.5 3.5h-46q-11 0 -15.5 4.5t-4.5 15.5v60q0 11 4.5 15.5t15.5 4.5h165zM228 -172q-5 7 -16 16.5t-18.5 20t-8.5 26.5q-1 28 18 49.5t48 23.5q41 1 65.5 -33.5t9.5 -97.5q-13 -58 -62 -113q-10 -12 -23 -3l-26 19
q-9 8 -1 19q18 27 21 41.5t-7 31.5z" />
    <glyph glyph-name="gcommaaccent" unicode="&#x123;" horiz-adv-x="456" 
d="M228 621q-41 -2 -65.5 32.5t-9.5 97.5q12 57 62 113q11 13 23 3l26 -19q10 -7 1 -19q-18 -27 -21 -41t7 -31q5 -8 16 -17t18.5 -20t8.5 -27q2 -28 -18 -49.5t-48 -22.5zM386 534q21 0 21 -21v-529q0 -104 -50.5 -153t-126.5 -49q-63 0 -112.5 35t-57.5 109q-2 18 13 18
h79q13 0 17 -12q15 -44 56 -44q26 0 45 19t19 57v77q-36 -38 -81 -47q-64 -12 -114 33t-50 129v222q0 86 50.5 129.5t116.5 33.5q50 -9 90 -56l6 27q4 22 22 22h57zM227 97q26 1 44 20.5t18 56.5v167v19q0 37 -18 56.5t-44 20.5t-45.5 -18.5t-19.5 -58.5v-186
q0 -40 19.5 -59t45.5 -18z" />
    <glyph glyph-name="Hcircumflex" unicode="&#x124;" horiz-adv-x="514" 
d="M407 870q16 -13 0 -29l-29 -29q-14 -14 -29 0l-92 87l-92 -87q-16 -14 -30 0l-29 29q-15 15 0 29l136 127q14 16 30 0zM439 750q21 0 21 -21v-708q0 -21 -21 -21h-84q-21 0 -21 21v287q0 11 -4 15t-15 4h-116q-11 0 -15 -4t-4 -15v-287q0 -21 -21 -21h-84q-21 0 -21 21
v708q0 21 21 21h84q21 0 21 -21v-271q0 -11 4 -15t15 -4h116q11 0 15 4t4 15v271q0 21 21 21h84z" />
    <glyph glyph-name="hcircumflex" unicode="&#x125;" horiz-adv-x="461" 
d="M200 836l-92 88l-92 -88q-17 -14 -30 0l-29 30q-15 15 0 29l136 127q14 16 30 0l135 -127q16 -13 0 -29l-29 -30q-14 -14 -29 0zM248 540q64 12 114 -33t50 -129v-357q0 -21 -21 -21h-76q-21 0 -21 21v339q0 40 -19.5 59t-45.5 18t-44 -20.5t-18 -56.5v-339
q0 -21 -21 -21h-76q-21 0 -21 21v708q0 21 21 21h76q21 0 21 -21v-236q36 38 81 47z" />
    <glyph glyph-name="Hbar" unicode="&#x126;" horiz-adv-x="546" 
d="M505 629q21 0 21 -21v-32q0 -21 -21 -21h-10q-11 0 -15 -4t-4 -15v-515q0 -21 -21 -21h-84q-21 0 -21 21v287q0 11 -4 15t-15 4h-116q-11 0 -15 -4t-4 -15v-287q0 -21 -21 -21h-84q-21 0 -21 21v515q0 11 -4 15t-15 4h-10q-21 0 -21 21v32q0 21 21 21h10q11 0 15 4t4 15
v81q0 21 21 21h84q21 0 21 -21v-81q0 -11 4 -15t15 -4h116q11 0 15 4t4 15v81q0 21 21 21h84q21 0 21 -21v-81q0 -11 4 -15t15 -4h10zM350 458v78q0 11 -4 15t-15 4h-116q-11 0 -15 -4t-4 -15v-78q0 -11 4 -15t15 -4h116q11 0 15 4t4 15z" />
    <glyph glyph-name="hbar" unicode="&#x127;" horiz-adv-x="478" 
d="M265 540q64 12 114 -33t50 -129v-357q0 -21 -21 -21h-76q-21 0 -21 21v339q0 40 -19.5 59t-45.5 18t-44 -20.5t-18 -56.5v-338q0 -22 -22 -22h-75q-21 0 -21 21v584q0 9 -3 12t-12 3h-20q-21 0 -21 21v4q0 21 21 21h20q9 0 12 3t3 12v48q0 21 21 21h76q21 0 21 -21v-48
q0 -9 3 -12t12 -3h82q21 0 21 -21v-4q0 -21 -21 -21h-82q-9 0 -12 -3t-3 -12v-112q36 38 81 47z" />
    <glyph glyph-name="Itilde" unicode="&#x128;" horiz-adv-x="234" 
d="M251 894q13 -9 5 -21q-32 -55 -88 -55q-17 0 -40 11.5t-30 13.5q-31 10 -51 -17q-11 -14 -21 -5l-42 26q-11 9 -5 21q32 55 88 55q17 0 41 -11.5t29 -13.5q31 -11 52 17q10 13 21 5zM54 21v708q0 21 21 21h84q21 0 21 -21v-708q0 -21 -21 -21h-84q-21 0 -21 21z" />
    <glyph glyph-name="itilde" unicode="&#x129;" horiz-adv-x="215" 
d="M248 733q12 -8 5 -21q-18 -34 -45.5 -50t-51.5 -15q-15 0 -28 4t-27.5 10.5t-21.5 8.5q-35 10 -54 -16q-9 -13 -21 -5l-45 26q-12 7 -5 21q18 33 45 49.5t52 15.5q15 0 28 -4t27 -10.5t21 -8.5q35 -10 54 16q10 13 21 5zM146 534q21 0 21 -21v-492q0 -21 -21 -21h-76
q-21 0 -21 21v492q0 21 21 21h76z" />
    <glyph glyph-name="Imacron" unicode="&#x12a;" horiz-adv-x="234" 
d="M214 915q21 0 21 -21v-48q0 -21 -21 -21h-194q-21 0 -21 21v48q0 21 21 21h194zM54 21v708q0 21 21 21h84q21 0 21 -21v-708q0 -21 -21 -21h-84q-21 0 -21 21z" />
    <glyph glyph-name="imacron" unicode="&#x12b;" horiz-adv-x="215" 
d="M236 679q0 -21 -21 -21h-214q-21 0 -21 21v55q0 21 21 21h214q21 0 21 -21v-55zM146 534q21 0 21 -21v-492q0 -21 -21 -21h-76q-21 0 -21 21v492q0 21 21 21h76z" />
    <glyph glyph-name="Ibreve" unicode="&#x12c;" horiz-adv-x="234" 
d="M266 912q15 -15 0 -30q-63 -67 -149 -67q-87 0 -150 67q-14 16 0 30l33 31q13 13 31 -3q43 -37 86 -37q44 0 85 37q18 17 32 3zM54 21v708q0 21 21 21h84q21 0 21 -21v-708q0 -21 -21 -21h-84q-21 0 -21 21z" />
    <glyph glyph-name="ibreve" unicode="&#x12d;" horiz-adv-x="215" 
d="M252 736q15 -15 0 -30q-61 -61 -149 -61q-87 0 -150 61q-15 15 0 30l35 34q11 6 14.5 5t16.5 -10q44 -32 84 -32q38 0 84 32q13 9 16.5 10t14.5 -5zM146 534q21 0 21 -21v-492q0 -21 -21 -21h-76q-21 0 -21 21v492q0 21 21 21h76z" />
    <glyph glyph-name="Iogonek" unicode="&#x12e;" horiz-adv-x="234" 
d="M261 -151q6 -17 -12 -24q-67 -26 -127.5 10t-60.5 105q0 33 15 60h-1q-21 0 -21 21v708q0 21 21 21h84q21 0 21 -21v-708q0 -21 -21 -21h-11q-6 -15 -7 -27q-3 -33 20.5 -54t61.5 -10q18 6 22 -10z" />
    <glyph glyph-name="iogonek" unicode="&#x12f;" horiz-adv-x="215" 
d="M108 638q-31 0 -52.5 21.5t-21.5 51.5t21.5 51.5t52.5 21.5q30 0 51 -21.5t21 -51.5t-21 -51.5t-51 -21.5zM245 -152q6 -17 -12 -24q-67 -26 -127.5 10t-60.5 105q0 33 16 62q-12 3 -12 20v492q0 21 21 21h76q21 0 21 -21v-492q0 -21 -21 -21h-14q-6 -18 -7 -28
q-3 -33 20.5 -54t61.5 -10q18 6 22 -10z" />
    <glyph glyph-name="Idotaccent" unicode="&#x130;" horiz-adv-x="234" 
d="M117 818q-27 0 -46.5 19.5t-19.5 47.5q0 27 19.5 46.5t46.5 19.5q28 0 47.5 -19.5t19.5 -46.5q0 -28 -19.5 -47.5t-47.5 -19.5zM54 21v708q0 21 21 21h84q21 0 21 -21v-708q0 -21 -21 -21h-84q-21 0 -21 21z" />
    <glyph glyph-name="dotlessi" unicode="&#x131;" horiz-adv-x="215" 
d="M146 534q21 0 21 -21v-492q0 -21 -21 -21h-76q-21 0 -21 21v492q0 21 21 21h76z" />
    <glyph glyph-name="Jcircumflex" unicode="&#x134;" horiz-adv-x="305" 
d="M343 870q16 -13 0 -29l-29 -29q-14 -14 -29 0l-92 87l-92 -87q-16 -14 -30 0l-29 29q-15 15 0 29l136 127q14 16 30 0zM51 0q-21 0 -21 21v71q0 21 21 21h28q51 0 51 56v560q0 21 21 21h84q21 0 21 -21v-570q0 -74 -46.5 -116.5t-118.5 -42.5h-40z" />
    <glyph glyph-name="jcircumflex" unicode="&#x135;" horiz-adv-x="215" 
d="M258 679q16 -13 0 -29l-29 -30q-14 -14 -29 0l-92 88l-92 -88q-17 -14 -30 0l-29 30q-15 15 0 29l136 127q14 16 30 0zM-13 -102q62 0 62 65v550q0 21 21 21h76q21 0 21 -21v-550q0 -88 -43.5 -129.5t-136.5 -41.5q-21 0 -21 21v64q0 21 21 21z" />
    <glyph glyph-name="Kcommaaccent" unicode="&#x136;" horiz-adv-x="487" 
d="M319 406l151 -389q6 -17 -7 -17h-99q-18 0 -23 12l-114 285q-2 5 -7 5.5t-7 -5.5l-23 -48q-10 -17 -10 -37v-191q0 -21 -21 -21h-84q-21 0 -21 21v708q0 21 21 21h84q21 0 21 -21v-284q0 -5 4.5 -5.5t6.5 3.5l135 296q5 11 24 11h98q7 0 8.5 -5.5t-1.5 -11.5l-136 -305
q-5 -9 0 -22zM220 -172q-5 7 -16 16.5t-18.5 20t-8.5 26.5q-1 28 18 49.5t48 23.5q41 1 65.5 -33.5t9.5 -97.5q-13 -58 -62 -113q-10 -12 -23 -3l-26 19q-9 8 -1 19q18 27 21 41.5t-7 31.5z" />
    <glyph glyph-name="kcommaaccent" unicode="&#x137;" horiz-adv-x="421" 
d="M410 19q8 -19 -12 -19h-81q-19 0 -25 17l-77 160q-2 6 -7 6.5t-8 -5.5l-23 -46q-10 -19 -10 -35v-76q0 -21 -21 -21h-76q-21 0 -21 21v449v259q0 21 21 21h76q21 0 21 -21v-402q0 -7 5.5 -8t8.5 6l99 193q9 16 26 16h81q9 0 12.5 -6t-0.5 -13l-106 -213q-4 -10 0 -22z
M222 -36q41 1 65.5 -33.5t9.5 -97.5q-13 -58 -62 -113q-10 -12 -23 -3l-26 19q-9 8 -1 19q18 27 21 41.5t-7 31.5q-5 7 -16 16.5t-18.5 20t-8.5 26.5q-1 28 18 49.5t48 23.5z" />
    <glyph glyph-name="Lacute" unicode="&#x139;" horiz-adv-x="377" 
d="M235 953q11 -16 -6 -28l-173 -116q-16 -10 -28 8l-27 39q-11 16 7 28l173 116q16 11 28 -8zM333 112q21 0 21 -21v-70q0 -21 -21 -21h-258q-21 0 -21 21v708q0 21 21 21h84q21 0 21 -21v-598q0 -11 4 -15t15 -4h134z" />
    <glyph glyph-name="lacute" unicode="&#x13a;" horiz-adv-x="268" 
d="M4 905l133 124q15 15 30 0l38 -40q15 -15 0 -29l-131 -124q-15 -15 -30 0l-40 39q-15 15 0 30zM221 101q21 -1 21 -21v-59q0 -21 -21 -21q-93 0 -132.5 39.5t-39.5 135.5v554q0 21 21 21h76q21 0 21 -21v-565q0 -61 54 -63z" />
    <glyph glyph-name="Lcommaaccent" unicode="&#x13b;" horiz-adv-x="377" 
d="M333 112q21 0 21 -21v-70q0 -21 -21 -21h-258q-21 0 -21 21v708q0 21 21 21h84q21 0 21 -21v-598q0 -11 4 -15t15 -4h134zM177 -172q-5 7 -16 16.5t-18.5 20t-8.5 26.5q-1 28 18 49.5t48 23.5q41 1 65.5 -33.5t9.5 -97.5q-13 -58 -62 -113q-10 -12 -23 -3l-26 19
q-9 8 -1 19q18 27 21 41.5t-7 31.5z" />
    <glyph glyph-name="lcommaaccent" unicode="&#x13c;" horiz-adv-x="268" 
d="M221 101q21 -1 21 -21v-59q0 -21 -21 -21q-93 0 -132.5 39.5t-39.5 135.5v554q0 21 21 21h76q21 0 21 -21v-565q0 -61 54 -63zM126 -172q-5 7 -16 16.5t-18.5 20t-8.5 26.5q-1 28 18 49.5t48 23.5q41 1 65.5 -33.5t9.5 -97.5q-13 -58 -62 -113q-10 -12 -23 -3l-26 19
q-9 8 -1 19q18 27 21 41.5t-7 31.5z" />
    <glyph glyph-name="Lcaron" unicode="&#x13d;" horiz-adv-x="411" 
d="M311 620q-2 5 -27 26t-24 47q1 29 21.5 48.5t49.5 18.5q48 -1 69 -45.5t-1 -111.5q-24 -64 -74 -109q-12 -11 -23 -2l-22 18q-9 9 0 21q25 34 32 52t-1 37zM333 112q21 0 21 -21v-70q0 -21 -21 -21h-258q-21 0 -21 21v708q0 21 21 21h84q21 0 21 -21v-598q0 -11 4 -15
t15 -4h134z" />
    <glyph glyph-name="lcaron" unicode="&#x13e;" horiz-adv-x="268" 
d="M258 963l-135 -128q-16 -14 -30 0l-136 128q-15 14 0 29l29 29q14 14 30 0l92 -87l92 87q14 15 29 0l29 -29q16 -16 0 -29zM221 101q21 -1 21 -21v-59q0 -21 -21 -21q-93 0 -132.5 39.5t-39.5 135.5v554q0 21 21 21h76q21 0 21 -21v-565q0 -61 54 -63z" />
    <glyph glyph-name="Lslash" unicode="&#x141;" horiz-adv-x="400" 
d="M355 112q21 0 21 -21v-70q0 -21 -21 -21h-257q-21 0 -21 21v289l-21 -12q-18 -11 -27 5l-26 46q-8 16 9 26l65 37v317q0 21 21 21h84q21 0 21 -21v-246l75 44q19 10 27 -5l26 -46q9 -15 -9 -26l-119 -68v-251q0 -11 4 -15t15 -4h133z" />
    <glyph glyph-name="lslash" unicode="&#x142;" horiz-adv-x="334" 
d="M318 497q12 -15 -3 -27l-97 -86v-220q0 -61 54 -63q21 -1 21 -21v-59q0 -21 -21 -21q-93 0 -132.5 39.5t-39.5 135.5v105l-30 -26q-16 -14 -28 1l-32 37q-12 15 3 28l87 76v333q0 21 21 21h76q21 0 21 -21v-229l40 35q16 15 28 0z" />
    <glyph glyph-name="Nacute" unicode="&#x143;" horiz-adv-x="533" 
d="M382 953q11 -16 -6 -28l-173 -116q-16 -10 -28 8l-27 39q-11 16 7 28l173 116q16 11 28 -8zM458 750q21 0 21 -21v-708q0 -21 -21 -21h-63q-19 0 -29 21l-175 410q-1 3 -4 4t-5 -1t-2 -5v-408q0 -21 -21 -21h-84q-21 0 -21 21v708q0 21 21 21h63q21 0 29 -21l176 -410
q1 -3 4 -4t5 1t2 5v408q0 21 21 21h83z" />
    <glyph glyph-name="nacute" unicode="&#x144;" horiz-adv-x="461" 
d="M163 620l-40 39q-15 15 0 30l133 124q15 15 30 0l38 -40q14 -15 0 -29l-131 -124q-15 -15 -30 0zM248 540q64 12 114 -33t50 -129v-357q0 -21 -21 -21h-76q-21 0 -21 21v339q0 40 -19.5 59t-45.5 18t-44 -20.5t-18 -56.5v-339q0 -21 -21 -21h-76q-21 0 -21 21v492
q0 21 21 21h56q19 0 23 -22l7 -32q39 50 92 60z" />
    <glyph glyph-name="Ncommaaccent" unicode="&#x145;" horiz-adv-x="533" 
d="M458 750q21 0 21 -21v-708q0 -21 -21 -21h-63q-19 0 -29 21l-175 410q-1 3 -4 4t-5 -1t-2 -5v-408q0 -21 -21 -21h-84q-21 0 -21 21v708q0 21 21 21h63q21 0 29 -21l176 -410q1 -3 4 -4t5 1t2 5v408q0 21 21 21h83zM248 -172q-5 7 -16 16.5t-18.5 20t-8.5 26.5
q-1 28 18 49.5t48 23.5q41 1 65.5 -33.5t9.5 -97.5q-13 -58 -62 -113q-10 -12 -23 -3l-26 19q-9 8 -1 19q18 27 21 41.5t-7 31.5z" />
    <glyph glyph-name="ncommaaccent" unicode="&#x146;" horiz-adv-x="461" 
d="M248 540q64 12 114 -33t50 -129v-357q0 -21 -21 -21h-76q-21 0 -21 21v339q0 40 -19.5 59t-45.5 18t-44 -20.5t-18 -56.5v-339q0 -21 -21 -21h-76q-21 0 -21 21v492q0 21 21 21h56q19 0 23 -22l7 -32q39 50 92 60zM225 -36q41 1 65.5 -33.5t9.5 -97.5q-13 -58 -62 -113
q-10 -12 -23 -3l-26 19q-9 8 -1 19q18 27 21 41.5t-7 31.5q-5 7 -16 16.5t-18.5 20t-8.5 26.5q-1 28 18 49.5t48 23.5z" />
    <glyph glyph-name="Ncaron" unicode="&#x147;" horiz-adv-x="533" 
d="M417 939l-135 -127q-16 -16 -30 0l-136 127q-15 14 0 29l29 29q14 14 30 0l92 -87l92 87q15 15 29 0l29 -29q16 -16 0 -29zM458 750q21 0 21 -21v-708q0 -21 -21 -21h-63q-19 0 -29 21l-175 410q-1 3 -4 4t-5 -1t-2 -5v-408q0 -21 -21 -21h-84q-21 0 -21 21v708
q0 21 21 21h63q21 0 29 -21l176 -410q1 -3 4 -4t5 1t2 5v408q0 21 21 21h83z" />
    <glyph glyph-name="ncaron" unicode="&#x148;" horiz-adv-x="461" 
d="M76 747q-15 14 0 29l29 29q14 14 30 0l92 -87l92 87q15 15 29 0l29 -29q16 -16 0 -29l-135 -128q-16 -14 -30 0zM248 540q64 12 114 -33t50 -129v-357q0 -21 -21 -21h-76q-21 0 -21 21v339q0 40 -19.5 59t-45.5 18t-44 -20.5t-18 -56.5v-339q0 -21 -21 -21h-76
q-21 0 -21 21v492q0 21 21 21h56q19 0 23 -22l7 -32q39 50 92 60z" />
    <glyph glyph-name="Eng" unicode="&#x14a;" horiz-adv-x="525" 
d="M458 750q21 0 21 -21v-708q0 -15 -9 -19v-49q0 -88 -43 -129.5t-136 -41.5q-21 0 -21 21v67q0 20 21 21q55 4 55 64v113l-155 363q-1 3 -4 4t-5 -1t-2 -5v-408q0 -21 -21 -21h-84q-21 0 -21 21v708q0 21 21 21h63q21 0 29 -21l176 -410q1 -3 4 -4t5 1t2 5v408q0 21 21 21
h83z" />
    <glyph glyph-name="eng" unicode="&#x14b;" horiz-adv-x="456" 
d="M248 540q64 12 114 -33t50 -129v-420q0 -175 -184 -175q-21 0 -21 21v63q0 21 21 21q31 1 48.5 19t17.5 51v402q0 40 -19.5 59t-45.5 18t-44 -20.5t-18 -56.5v-339q0 -21 -21 -21h-76q-21 0 -21 21v492q0 21 21 21h56q19 0 23 -22l7 -32q39 50 92 60z" />
    <glyph glyph-name="Omacron" unicode="&#x14c;" 
d="M351 915q21 0 21 -21v-48q0 -21 -21 -21h-194q-21 0 -21 21v48q0 21 21 21h194zM254 -9q-100 0 -152.5 64t-52.5 177v286q0 113 52.5 177t152.5 64q99 0 151.5 -64t52.5 -177v-286q0 -113 -52.5 -177t-151.5 -64zM254 108q39 0 59 33t20 90v287q0 58 -20 91t-59 33
t-59 -33t-20 -91v-287q0 -57 20 -90t59 -33z" />
    <glyph glyph-name="omacron" unicode="&#x14d;" horiz-adv-x="451" 
d="M353 679q0 -21 -21 -21h-214q-21 0 -21 21v55q0 21 21 21h214q21 0 21 -21v-55zM225 -9q-73 0 -127 49.5t-54 151.5v150q0 102 54 151.5t127 49.5q74 0 128 -49.5t54 -151.5v-150q0 -102 -54 -151.5t-128 -49.5zM289 360q0 40 -19 58.5t-45 18.5q-25 0 -44 -18.5
t-19 -58.5v-186q0 -39 19 -58t44 -19t44.5 19t19.5 58v186z" />
    <glyph glyph-name="Obreve" unicode="&#x14e;" 
d="M403 912q15 -15 0 -30q-63 -67 -149 -67q-87 0 -150 67q-14 16 0 30l33 31q13 13 31 -3q43 -37 86 -37q44 0 85 37q18 17 32 3zM254 -9q-100 0 -152.5 64t-52.5 177v286q0 113 52.5 177t152.5 64q99 0 151.5 -64t52.5 -177v-286q0 -113 -52.5 -177t-151.5 -64zM254 108
q39 0 59 33t20 90v287q0 58 -20 91t-59 33t-59 -33t-20 -91v-287q0 -57 20 -90t59 -33z" />
    <glyph glyph-name="obreve" unicode="&#x14f;" horiz-adv-x="451" 
d="M369 736q15 -15 0 -30q-61 -61 -149 -61q-87 0 -150 61q-15 15 0 30l35 34q11 6 14.5 5t16.5 -10q44 -32 84 -32q38 0 84 32q13 9 16.5 10t14.5 -5zM225 -9q-73 0 -127 49.5t-54 151.5v150q0 102 54 151.5t127 49.5q74 0 128 -49.5t54 -151.5v-150q0 -102 -54 -151.5
t-128 -49.5zM289 360q0 40 -19 58.5t-45 18.5q-25 0 -44 -18.5t-19 -58.5v-186q0 -39 19 -58t44 -19t44.5 19t19.5 58v186z" />
    <glyph glyph-name="Ohungarumlaut" unicode="&#x150;" 
d="M115 812l-29 30q-15 15 0 30l121 125q15 15 30 0l29 -30q15 -15 0 -30l-121 -125q-15 -15 -30 0zM311 812l-29 30q-15 15 0 30l121 125q15 15 30 0l29 -30q15 -15 0 -30l-121 -125q-15 -15 -30 0zM254 -9q-100 0 -152.5 64t-52.5 177v286q0 113 52.5 177t152.5 64
q99 0 151.5 -64t52.5 -177v-286q0 -113 -52.5 -177t-151.5 -64zM254 108q39 0 59 33t20 90v287q0 58 -20 91t-59 33t-59 -33t-20 -91v-287q0 -57 20 -90t59 -33z" />
    <glyph glyph-name="ohungarumlaut" unicode="&#x151;" horiz-adv-x="451" 
d="M49 689l132 124q16 16 30 0l39 -40q14 -15 0 -29l-132 -124q-15 -15 -30 0l-39 39q-16 16 0 30zM250 689l132 124q16 16 30 0l39 -40q14 -15 0 -29l-132 -124q-15 -15 -30 0l-39 39q-16 16 0 30zM225 -9q-73 0 -127 49.5t-54 151.5v150q0 102 54 151.5t127 49.5
q74 0 128 -49.5t54 -151.5v-150q0 -102 -54 -151.5t-128 -49.5zM289 360q0 40 -19 58.5t-45 18.5q-25 0 -44 -18.5t-19 -58.5v-186q0 -39 19 -58t44 -19t44.5 19t19.5 58v186z" />
    <glyph glyph-name="OE" unicode="&#x152;" horiz-adv-x="692" 
d="M477 638q-11 0 -15 -4t-4 -15v-161q0 -11 4 -15t15 -4h145q21 0 21 -21v-70q0 -21 -21 -21h-145q-11 0 -15 -4t-4 -15v-177q0 -11 4 -15t15 -4h145q21 0 21 -21v-70q0 -21 -21 -21h-256q-12 0 -17 9l-5 3q-40 -21 -90 -21q-100 0 -152.5 64t-52.5 177v286q0 113 52.5 177
t152.5 64q50 0 90 -21l5 3q5 9 19 9h254q21 0 21 -21v-70q0 -21 -21 -21h-145zM333 231v287q0 58 -20 91t-59 33t-59 -33t-20 -91v-287q0 -57 20 -90t59 -33t59 33t20 90z" />
    <glyph glyph-name="oe" unicode="&#x153;" horiz-adv-x="690" 
d="M471 543q72 0 124 -49.5t52 -151.5v-17q0 -31 -4 -58q-1 -21 -21 -21h-205q-10 0 -10 -10v-64q0 -38 19 -56.5t45 -18.5q42 0 55 43q4 12 17 12h80q15 0 13 -18q-8 -74 -57.5 -108.5t-112.5 -34.5q-74 0 -120 43q-50 -43 -121 -43q-73 0 -127 49.5t-54 151.5v150
q0 102 54 151.5t127 49.5q74 0 123 -45q49 45 123 45zM289 174v168v18q0 40 -19 58.5t-45 18.5q-25 0 -44 -18.5t-19 -58.5v-186q0 -39 19 -58t44 -19t44.5 19t19.5 58zM534 338v22q0 40 -19 58.5t-44 18.5q-26 0 -45 -18.5t-19 -58.5v-22q0 -10 10 -10h107q10 0 10 10z" />
    <glyph glyph-name="Racute" unicode="&#x154;" horiz-adv-x="492" 
d="M140 818l-27 39q-11 16 7 28l173 116q16 11 28 -8l26 -39q11 -16 -6 -28l-173 -116q-16 -10 -28 8zM470 20q8 -20 -9 -20h-94q-18 0 -24 14l-99 256h-45q-11 0 -15 -4t-4 -15v-230q0 -21 -21 -21h-84q-21 0 -21 21v708q0 21 21 21h174q85 0 139 -59t54 -157v-47
q0 -126 -85 -185zM180 407q0 -11 4 -15t15 -4h38q34 0 57 26.5t23 76.5v44q0 50 -23 76.5t-57 26.5h-38q-11 0 -15 -4t-4 -15v-212z" />
    <glyph glyph-name="racute" unicode="&#x155;" horiz-adv-x="307" 
d="M106 620q-15 -15 -30 0l-40 39q-15 15 0 30l133 124q15 15 30 0l38 -40q15 -15 0 -29zM270 540q21 0 21 -21v-75q0 -21 -21 -21q-47 0 -75 -25t-28 -77v-300q0 -21 -21 -21h-76q-21 0 -21 21v492q0 21 21 21h56q19 0 23 -22l6 -28q46 56 115 56z" />
    <glyph glyph-name="Rcommaaccent" unicode="&#x156;" horiz-adv-x="492" 
d="M470 20q8 -20 -9 -20h-94q-18 0 -24 14l-99 256h-45q-11 0 -15 -4t-4 -15v-230q0 -21 -21 -21h-84q-21 0 -21 21v708q0 21 21 21h174q85 0 139 -59t54 -157v-47q0 -126 -85 -185zM180 407q0 -11 4 -15t15 -4h38q34 0 57 26.5t23 76.5v44q0 50 -23 76.5t-57 26.5h-38
q-11 0 -15 -4t-4 -15v-212zM254 -36q41 1 65.5 -33.5t9.5 -97.5q-13 -58 -62 -113q-10 -12 -23 -3l-26 19q-9 8 -1 19q18 27 21 41.5t-7 31.5q-5 7 -16 16.5t-18.5 20t-8.5 26.5q-1 28 18 49.5t48 23.5z" />
    <glyph glyph-name="rcommaaccent" unicode="&#x157;" horiz-adv-x="307" 
d="M270 540q21 0 21 -21v-75q0 -21 -21 -21q-47 0 -75 -25t-28 -77v-300q0 -21 -21 -21h-76q-21 0 -21 21v492q0 21 21 21h56q19 0 23 -22l6 -28q46 56 115 56zM105 -36q41 1 65.5 -33.5t9.5 -97.5q-13 -58 -62 -113q-10 -12 -23 -3l-26 19q-9 8 -1 19q18 27 21 41.5
t-7 31.5q-5 7 -16 16.5t-18.5 20t-8.5 26.5q-1 28 18 49.5t48 23.5z" />
    <glyph glyph-name="Rcaron" unicode="&#x158;" horiz-adv-x="492" 
d="M81 940q-15 14 0 29l29 29q14 14 30 0l92 -87l92 87q14 14 29 0l29 -29q16 -16 0 -29l-135 -127q-16 -16 -30 0zM470 20q8 -20 -9 -20h-94q-18 0 -24 14l-99 256h-45q-11 0 -15 -4t-4 -15v-230q0 -21 -21 -21h-84q-21 0 -21 21v708q0 21 21 21h174q85 0 139 -59t54 -157
v-47q0 -126 -85 -185zM180 407q0 -11 4 -15t15 -4h38q34 0 57 26.5t23 76.5v44q0 50 -23 76.5t-57 26.5h-38q-11 0 -15 -4t-4 -15v-212z" />
    <glyph glyph-name="rcaron" unicode="&#x159;" horiz-adv-x="307" 
d="M290 776q16 -16 0 -29l-135 -128q-16 -14 -30 0l-136 128q-15 14 0 29l29 29q14 14 30 0l92 -87l92 87q14 15 29 0zM270 540q21 0 21 -21v-75q0 -21 -21 -21q-47 0 -75 -25t-28 -77v-300q0 -21 -21 -21h-76q-21 0 -21 21v492q0 21 21 21h56q19 0 23 -22l6 -28
q46 56 115 56z" />
    <glyph glyph-name="Sacute" unicode="&#x15a;" horiz-adv-x="502" 
d="M359 953q11 -16 -6 -28l-173 -116q-16 -10 -28 8l-27 39q-11 16 7 28l173 116q16 11 28 -8zM457 184q0 -90 -63 -141.5t-143 -51.5q-87 0 -146 55t-60 143q0 18 13 18h85q17 0 18 -15q4 -37 27 -65.5t63 -28.5q34 0 56 21.5t24 56.5q3 37 -24 74.5t-68 71.5l-82 70
t-70.5 85.5t-29.5 103.5q0 77 51.5 127.5t134.5 50.5q87 0 136 -52t52 -132q0 -18 -13 -18h-85q-17 0 -18 15q-5 33 -22 56t-46 23q-30 0 -48 -21t-16 -50q3 -29 32.5 -63t69 -67.5t79 -71.5t66.5 -88.5t27 -105.5z" />
    <glyph glyph-name="sacute" unicode="&#x15b;" horiz-adv-x="399" 
d="M95 689l133 124q15 15 30 0l38 -40q14 -15 0 -29l-131 -124q-15 -15 -30 0l-40 39q-15 15 0 30zM202 -9q-68 0 -113 38t-55 105q-2 18 13 18h79q14 0 17 -12q14 -49 56 -49q22 0 37 13t15 35q1 24 -19.5 44.5t-50.5 38t-61 38t-54 54t-25 75.5q-4 68 41.5 111t113.5 43
q61 0 107 -37t48 -106q2 -18 -13 -18h-72q-14 0 -17 12q-11 48 -48 49q-20 1 -33.5 -12t-13.5 -30q-1 -21 21.5 -41t55 -39t64.5 -42t54.5 -59t21.5 -80q-1 -69 -50 -109t-119 -40z" />
    <glyph glyph-name="Scircumflex" unicode="&#x15c;" horiz-adv-x="502" 
d="M393 870q16 -13 0 -29l-29 -29q-14 -14 -29 0l-92 87l-92 -87q-16 -14 -30 0l-29 29q-15 15 0 29l136 127q14 16 30 0zM457 184q0 -90 -63 -141.5t-143 -51.5q-87 0 -146 55t-60 143q0 18 13 18h85q17 0 18 -15q4 -37 27 -65.5t63 -28.5q34 0 56 21.5t24 56.5
q3 37 -24 74.5t-68 71.5l-82 70t-70.5 85.5t-29.5 103.5q0 77 51.5 127.5t134.5 50.5q87 0 136 -52t52 -132q0 -18 -13 -18h-85q-17 0 -18 15q-5 33 -22 56t-46 23q-30 0 -48 -21t-16 -50q3 -29 32.5 -63t69 -67.5t79 -71.5t66.5 -88.5t27 -105.5z" />
    <glyph glyph-name="scircumflex" unicode="&#x15d;" horiz-adv-x="399" 
d="M349 679q16 -13 0 -29l-29 -30q-14 -14 -29 0l-92 88l-92 -88q-16 -14 -30 0l-29 30q-15 15 0 29l136 127q14 16 30 0zM202 -9q-68 0 -113 38t-55 105q-2 18 13 18h79q14 0 17 -12q14 -49 56 -49q22 0 37 13t15 35q1 24 -19.5 44.5t-50.5 38t-61 38t-54 54t-25 75.5
q-4 68 41.5 111t113.5 43q61 0 107 -37t48 -106q2 -18 -13 -18h-72q-14 0 -17 12q-11 48 -48 49q-20 1 -33.5 -12t-13.5 -30q-1 -21 21.5 -41t55 -39t64.5 -42t54.5 -59t21.5 -80q-1 -69 -50 -109t-119 -40z" />
    <glyph glyph-name="Scedilla" unicode="&#x15e;" horiz-adv-x="502" 
d="M270 -45q53 23 97.5 -10t44.5 -90q0 -50 -37 -84t-89 -34q-24 0 -53 12q-18 7 -12 24l16 40q7 16 22 10q15 -5 27 -5q19 0 32 13.5t13 33.5q0 19 -13.5 32t-32.5 13q-23 0 -40 -20q-11 -11 -24 -4l-31 14q-13 5 -8 19l26 76q-71 13 -116.5 65.5t-46.5 128.5q0 18 13 18
h85q17 0 18 -15q4 -37 27 -65.5t63 -28.5q34 0 56 21.5t24 56.5q3 37 -24 74.5t-68 71.5l-82 70t-70.5 85.5t-29.5 103.5q0 77 51.5 127.5t134.5 50.5q87 0 136 -52t52 -132q0 -18 -13 -18h-85q-17 0 -18 15q-5 33 -22 56t-46 23q-30 0 -48 -21t-16 -50q3 -29 32.5 -63
t69 -67.5t79 -71.5t66.5 -88.5t27 -105.5q0 -80 -51 -130t-122 -61z" />
    <glyph glyph-name="scedilla" unicode="&#x15f;" horiz-adv-x="399" 
d="M371 140q-1 -60 -39.5 -98.5t-96.5 -47.5l-14 -39q53 23 97.5 -10t44.5 -90q0 -50 -37 -84t-89 -34q-24 0 -53 12q-18 7 -12 24l16 40q7 16 22 10q15 -5 27 -5q19 0 32 13.5t13 33.5q0 19 -13.5 32t-32.5 13q-23 0 -40 -20q-11 -11 -24 -4l-31 14q-13 5 -8 19l26 76
q-51 11 -84 47t-41 92q-2 18 13 18h79q14 0 17 -12q14 -49 56 -49q22 0 37 13t15 35q1 24 -19.5 44.5t-50.5 38t-61 38t-54 54t-25 75.5q-4 68 41.5 111t113.5 43q61 0 107 -37t48 -106q2 -18 -13 -18h-72q-14 0 -17 12q-11 48 -48 49q-20 1 -33.5 -12t-13.5 -30
q-1 -21 21.5 -41t55 -39t64.5 -42t54.5 -59t21.5 -80z" />
    <glyph glyph-name="Scaron" unicode="&#x160;" horiz-adv-x="502" 
d="M394 939l-135 -127q-16 -16 -30 0l-136 127q-15 14 0 29l29 29q14 14 30 0l92 -87l92 87q14 15 29 0l29 -29q16 -16 0 -29zM457 184q0 -90 -63 -141.5t-143 -51.5q-87 0 -146 55t-60 143q0 18 13 18h85q17 0 18 -15q4 -37 27 -65.5t63 -28.5q34 0 56 21.5t24 56.5
q3 37 -24 74.5t-68 71.5l-82 70t-70.5 85.5t-29.5 103.5q0 77 51.5 127.5t134.5 50.5q87 0 136 -52t52 -132q0 -18 -13 -18h-85q-17 0 -18 15q-5 33 -22 56t-46 23q-30 0 -48 -21t-16 -50q3 -29 32.5 -63t69 -67.5t79 -71.5t66.5 -88.5t27 -105.5z" />
    <glyph glyph-name="scaron" unicode="&#x161;" horiz-adv-x="399" 
d="M349 747l-135 -128q-16 -14 -30 0l-136 128q-15 14 0 29l29 29q14 14 30 0l92 -87l92 87q15 15 29 0l29 -29q16 -16 0 -29zM202 -9q-68 0 -113 38t-55 105q-2 18 13 18h79q14 0 17 -12q14 -49 56 -49q22 0 37 13t15 35q1 24 -19.5 44.5t-50.5 38t-61 38t-54 54t-25 75.5
q-4 68 41.5 111t113.5 43q61 0 107 -37t48 -106q2 -18 -13 -18h-72q-14 0 -17 12q-11 48 -48 49q-20 1 -33.5 -12t-13.5 -30q-1 -21 21.5 -41t55 -39t64.5 -42t54.5 -59t21.5 -80q-1 -69 -50 -109t-119 -40z" />
    <glyph glyph-name="uni0162" unicode="&#x162;" horiz-adv-x="441" 
d="M390 750q21 0 21 -21v-70q0 -21 -21 -21h-88q-11 0 -15 -4t-4 -15v-598q0 -21 -21 -21h-6l-16 -45q53 23 97.5 -10t44.5 -90q0 -50 -37 -84t-89 -34q-24 0 -53 12q-18 7 -12 24l16 40q7 16 22 10q15 -5 27 -5q19 0 32 13.5t13 33.5q0 19 -13.5 32t-32.5 13q-23 0 -40 -20
q-11 -11 -24 -4l-31 14q-13 5 -8 19l28 81h-1q-21 0 -21 21v598q0 11 -4 15t-15 4h-88q-21 0 -21 21v70q0 21 21 21h339z" />
    <glyph glyph-name="uni0163" unicode="&#x163;" horiz-adv-x="307" 
d="M199 -45q53 23 97.5 -10t44.5 -90q0 -50 -37 -84t-89 -34q-24 0 -53 12q-18 7 -12 24l16 40q7 16 22 10q15 -5 27 -5q19 0 32 13.5t13 33.5q0 19 -13.5 32t-32.5 13q-23 0 -40 -20q-11 -11 -24 -4l-31 14q-13 5 -8 19l36 103q-66 35 -66 143v258q0 9 -3 12t-12 3h-19
q-21 0 -21 21v54q0 21 21 21h25q9 0 12 3t3 12v75q0 21 21 21h68q21 0 21 -21v-75q0 -9 3 -12t12 -3h49q21 0 21 -21v-54q0 -21 -21 -21h-46q-16 0 -16 -15v-258q0 -65 62 -65q21 0 21 -21v-58q0 -21 -21 -21q-17 0 -45 2z" />
    <glyph glyph-name="Tcaron" unicode="&#x164;" horiz-adv-x="441" 
d="M372 939l-135 -127q-16 -16 -30 0l-136 127q-15 14 0 29l29 29q14 14 30 0l92 -87l92 87q14 15 29 0l29 -29q16 -16 0 -29zM390 750q21 0 21 -21v-70q0 -21 -21 -21h-88q-11 0 -15 -4t-4 -15v-598q0 -21 -21 -21h-83q-21 0 -21 21v598q0 11 -4 15t-15 4h-88q-21 0 -21 21
v70q0 21 21 21h339z" />
    <glyph glyph-name="tcaron" unicode="&#x165;" horiz-adv-x="450" 
d="M351 618q-4 8 -18 17.5t-24.5 22t-10.5 32.5q0 29 20.5 49t49.5 20q51 0 72.5 -51.5t-5.5 -122.5q-26 -63 -73 -105q-13 -11 -23 -2l-22 19q-9 8 -1 20q14 20 21.5 32t14.5 26.5t6.5 25t-7.5 17.5zM261 0q-94 0 -137 38t-43 127v258q0 9 -3 12t-12 3h-19q-21 0 -21 21v54
q0 21 21 21h25q9 0 12 3t3 12v75q0 21 21 21h68q21 0 21 -21v-75q0 -9 3 -12t12 -3h49q21 0 21 -21v-54q0 -21 -21 -21h-46q-16 0 -16 -15v-258q0 -65 62 -65q21 0 21 -21v-58q0 -21 -21 -21z" />
    <glyph glyph-name="Tbar" unicode="&#x166;" horiz-adv-x="419" 
d="M390 750q21 0 21 -21v-70q0 -21 -21 -21h-88q-11 0 -15 -4t-4 -15v-112q2 -1 8 -1h29q21 0 21 -21v-55q0 -21 -21 -21h-29q-6 0 -8 -1v-387q0 -21 -21 -21h-83q-21 0 -21 21v327h-11v42q0 11 -4 15t-15 4h-29q-21 0 -21 21v55q0 21 21 21h29q11 0 15 4t4 15v35h11v59
q0 11 -4 15t-15 4h-88q-21 0 -21 21v70q0 21 21 21h339z" />
    <glyph glyph-name="tbar" unicode="&#x167;" horiz-adv-x="313" 
d="M261 0q-93 0 -136.5 41.5t-43.5 129.5v103q0 9 -3 12t-12 3h-19q-21 0 -21 21v54q0 21 21 21h19q9 0 12 3t3 12v23q0 9 -3 12t-12 3h-19q-21 0 -21 21v54q0 21 21 21h25q9 0 12 3t3 12v58q0 21 21 21h68q21 0 21 -21v-58q0 -9 3 -12t12 -3h49q21 0 21 -21v-54
q0 -21 -21 -21h-46q-16 0 -16 -15v-23q0 -15 16 -15h46q21 0 21 -21v-54q0 -21 -21 -21h-46q-16 0 -16 -15v-103q0 -65 62 -65q21 0 21 -21v-64q0 -21 -21 -21z" />
    <glyph glyph-name="Utilde" unicode="&#x168;" 
d="M121 847q-11 9 -5 21q32 55 88 55q17 0 41 -11.5t29 -13.5q31 -11 52 17q10 13 21 5l41 -26q13 -9 5 -21q-32 -55 -88 -55q-17 0 -40 11.5t-30 13.5q-31 10 -51 -17q-11 -14 -21 -5zM437 750q21 0 21 -21v-361v-136q0 -113 -52.5 -177t-151.5 -64q-100 0 -152.5 64
t-52.5 177v206v291q0 21 21 21h84q21 0 21 -21v-353v-145q0 -57 20 -90t59 -33t59 33t20 90v206v292q0 21 21 21h83z" />
    <glyph glyph-name="utilde" unicode="&#x169;" horiz-adv-x="461" 
d="M81 675q-13 7 -5 21q18 33 45 49.5t52 15.5q15 0 28 -4t27 -10.5t21 -8.5q35 -10 54 16q10 13 21 5l46 -26q12 -8 5 -21q-18 -34 -45.5 -50t-51.5 -15q-15 0 -28 4t-27.5 10.5t-21.5 8.5q-35 10 -54 -16q-9 -13 -21 -5zM391 534q21 0 21 -21v-492q0 -21 -21 -21h-56
q-19 0 -23 22l-7 32q-39 -50 -92 -60q-64 -12 -114 33t-50 129v357q0 21 21 21h76q21 0 21 -21v-339q0 -40 19.5 -59t45.5 -18t44 20.5t18 56.5v339q0 21 21 21h76z" />
    <glyph glyph-name="Umacron" unicode="&#x16a;" 
d="M157 825q-21 0 -21 21v48q0 21 21 21h194q21 0 21 -21v-48q0 -21 -21 -21h-194zM437 750q21 0 21 -21v-361v-136q0 -113 -52.5 -177t-151.5 -64q-100 0 -152.5 64t-52.5 177v206v291q0 21 21 21h84q21 0 21 -21v-353v-145q0 -57 20 -90t59 -33t59 33t20 90v206v292
q0 21 21 21h83z" />
    <glyph glyph-name="umacron" unicode="&#x16b;" horiz-adv-x="461" 
d="M123 658q-21 0 -21 21v55q0 21 21 21h214q21 0 21 -21v-55q0 -21 -21 -21h-214zM391 534q21 0 21 -21v-492q0 -21 -21 -21h-56q-19 0 -23 22l-7 32q-39 -50 -92 -60q-64 -12 -114 33t-50 129v357q0 21 21 21h76q21 0 21 -21v-339q0 -40 19.5 -59t45.5 -18t44 20.5
t18 56.5v339q0 21 21 21h76z" />
    <glyph glyph-name="Ubreve" unicode="&#x16c;" 
d="M254 815q-87 0 -150 67q-14 16 0 30l33 31q13 13 31 -3q43 -37 86 -37q44 0 85 37q18 17 32 3l32 -31q15 -15 0 -30q-63 -67 -149 -67zM437 750q21 0 21 -21v-361v-136q0 -113 -52.5 -177t-151.5 -64q-100 0 -152.5 64t-52.5 177v206v291q0 21 21 21h84q21 0 21 -21v-353
v-145q0 -57 20 -90t59 -33t59 33t20 90v206v292q0 21 21 21h83z" />
    <glyph glyph-name="ubreve" unicode="&#x16d;" horiz-adv-x="461" 
d="M225 645q-87 0 -150 61q-15 15 0 30l35 34q11 6 14.5 5t16.5 -10q44 -32 84 -32q38 0 84 32q13 9 16.5 10t14.5 -5l34 -34q15 -15 0 -30q-61 -61 -149 -61zM391 534q21 0 21 -21v-492q0 -21 -21 -21h-56q-19 0 -23 22l-7 32q-39 -50 -92 -60q-64 -12 -114 33t-50 129v357
q0 21 21 21h76q21 0 21 -21v-339q0 -40 19.5 -59t45.5 -18t44 20.5t18 56.5v339q0 21 21 21h76z" />
    <glyph glyph-name="Uring" unicode="&#x16e;" 
d="M254 804q-42 0 -71 29.5t-29 71.5q0 41 29 70.5t71 29.5t71 -29.5t29 -70.5q0 -42 -29 -71.5t-71 -29.5zM254 942q-16 0 -26.5 -11t-10.5 -26q0 -16 10.5 -27t26.5 -11t26.5 11t10.5 27q0 15 -10.5 26t-26.5 11zM437 750q21 0 21 -21v-361v-136q0 -113 -52.5 -177
t-151.5 -64q-100 0 -152.5 64t-52.5 177v206v291q0 21 21 21h84q21 0 21 -21v-353v-145q0 -57 20 -90t59 -33t59 33t20 90v206v292q0 21 21 21h83z" />
    <glyph glyph-name="uring" unicode="&#x16f;" horiz-adv-x="461" 
d="M230 618q-47 0 -80 33.5t-33 80.5q0 46 33.5 79.5t79.5 33.5t79.5 -33.5t33.5 -79.5q0 -47 -33 -80.5t-80 -33.5zM230 778q-19 0 -33 -13.5t-14 -32.5q0 -20 13.5 -33.5t33.5 -13.5q19 0 32.5 14t13.5 33t-13.5 32.5t-32.5 13.5zM391 534q21 0 21 -21v-492q0 -21 -21 -21
h-56q-19 0 -23 22l-7 32q-39 -50 -92 -60q-64 -12 -114 33t-50 129v357q0 21 21 21h76q21 0 21 -21v-339q0 -40 19.5 -59t45.5 -18t44 20.5t18 56.5v339q0 21 21 21h76z" />
    <glyph glyph-name="Uhungarumlaut" unicode="&#x170;" 
d="M115 812l-29 30q-15 15 0 30l121 125q15 15 30 0l29 -30q15 -15 0 -30l-121 -125q-15 -15 -30 0zM462 967q15 -15 0 -30l-121 -125q-15 -15 -30 0l-29 30q-15 15 0 30l121 125q15 15 30 0zM437 750q21 0 21 -21v-361v-136q0 -113 -52.5 -177t-151.5 -64q-100 0 -152.5 64
t-52.5 177v206v291q0 21 21 21h84q21 0 21 -21v-353v-145q0 -57 20 -90t59 -33t59 33t20 90v206v292q0 21 21 21h83z" />
    <glyph glyph-name="uhungarumlaut" unicode="&#x171;" horiz-adv-x="461" 
d="M93 620l-39 39q-16 16 0 30l132 124q16 16 30 0l39 -40q14 -15 0 -29l-132 -124q-15 -15 -30 0zM456 773q14 -15 0 -29l-132 -124q-15 -15 -30 0l-39 39q-16 16 0 30l132 124q16 16 30 0zM391 534q21 0 21 -21v-492q0 -21 -21 -21h-56q-19 0 -23 22l-7 32
q-39 -50 -92 -60q-64 -12 -114 33t-50 129v357q0 21 21 21h76q21 0 21 -21v-339q0 -40 19.5 -59t45.5 -18t44 20.5t18 56.5v339q0 21 21 21h76z" />
    <glyph glyph-name="Uogonek" unicode="&#x172;" 
d="M437 750q21 0 21 -21v-361v-136q0 -103 -43.5 -166t-127.5 -73q-5 -12 -6 -24q-3 -33 20.5 -54t61.5 -10q18 6 22 -10l16 -50q6 -17 -12 -24q-67 -26 -127.5 10t-60.5 105q0 30 13 58q-81 13 -123 75t-42 163v206v291q0 21 21 21h84q21 0 21 -21v-353v-145q0 -57 20 -90
t59 -33t59 33t20 90v206v292q0 21 21 21h83z" />
    <glyph glyph-name="uogonek" unicode="&#x173;" horiz-adv-x="461" 
d="M483 -151q6 -17 -12 -24q-67 -26 -127.5 10t-60.5 105q0 47 29 82l-7 32q-39 -50 -92 -60q-64 -12 -114 33t-50 129v357q0 21 21 21h76q21 0 21 -21v-339q0 -40 19.5 -59t45.5 -18t44 20.5t18 56.5v339q0 21 21 21h76q21 0 21 -21v-492q0 -21 -21 -21h-21q-6 -15 -7 -27
q-3 -33 20.5 -54t61.5 -10q18 6 22 -10z" />
    <glyph glyph-name="Wcircumflex" unicode="&#x174;" horiz-adv-x="718" 
d="M509 870q16 -13 0 -29l-29 -29q-14 -14 -29 0l-92 87l-92 -87q-16 -14 -30 0l-29 29q-15 15 0 29l136 127q14 16 30 0zM184 0q-13 0 -18.5 4t-7.5 16l-133 710q-4 20 14 20h88q20 0 24 -20l66 -416q0 -4 3 -5.5t6 0t3 4.5l83 417q3 12 8.5 16t17.5 4h42q12 0 17.5 -4
t8.5 -16l82 -417q1 -3 3.5 -4.5t5.5 0t3 5.5l67 416q4 20 24 20h87q18 0 14 -20l-132 -710q-2 -12 -7.5 -16t-18.5 -4h-55q-22 0 -26 20l-88 438q-1 5 -6 5t-6 -5l-88 -438q-5 -20 -26 -20h-55z" />
    <glyph glyph-name="wcircumflex" unicode="&#x175;" horiz-adv-x="601" 
d="M451 679q16 -13 0 -29l-29 -30q-14 -14 -29 0l-92 88l-92 -88q-17 -14 -30 0l-29 30q-15 15 0 29l136 127q14 16 30 0zM581 534q18 0 13 -20l-119 -494q-4 -20 -26 -20h-53q-22 0 -26 20l-63 256q-1 5 -6 5t-6 -5l-63 -256q-5 -20 -26 -20h-54q-21 0 -26 20l-119 494
q-5 20 13 20h84q18 0 23 -20l56 -269q1 -5 5.5 -5.5t6.5 5.5l61 269q4 20 26 20h37q21 0 26 -20l61 -269q1 -3 2.5 -4.5t3.5 -1.5t4 1.5t2 4.5l57 269q5 20 23 20h83z" />
    <glyph glyph-name="Ycircumflex" unicode="&#x176;" horiz-adv-x="487" 
d="M394 870q16 -13 0 -29l-29 -29q-15 -14 -29 0l-92 87l-92 -87q-16 -14 -30 0l-29 29q-15 15 0 29l136 127q14 16 30 0zM444 750q20 0 12 -20l-149 -424v-285q0 -21 -21 -21h-84q-21 0 -21 21v285l-149 424q-8 20 12 20h88q19 0 26 -20l80 -249q2 -5 6 -5t6 5l80 249
q7 20 26 20h88z" />
    <glyph glyph-name="ycircumflex" unicode="&#x177;" horiz-adv-x="421" 
d="M360 679q16 -13 0 -29l-29 -30q-14 -14 -29 0l-92 88l-92 -88q-16 -14 -30 0l-29 30q-15 15 0 29l136 127q14 16 30 0zM60 -208q-21 0 -21 21v64q0 20 21 21q20 2 32 5t25 14t19 29q15 48 16.5 64.5t-6.5 38.5l-141 465q-5 20 13 20h83q18 0 23 -20l81 -305q1 -5 6 -5
t6 5l79 305q6 20 23 20h83q9 0 13 -5.5t0 -14.5l-192 -623q-30 -99 -163 -99z" />
    <glyph glyph-name="Ydieresis" unicode="&#x178;" horiz-adv-x="487" 
d="M160 818q-28 0 -47.5 19.5t-19.5 47.5q0 27 19.5 46.5t47.5 19.5q27 0 47 -19.5t20 -46.5q0 -28 -20 -47.5t-47 -19.5zM329 818q-28 0 -47.5 19.5t-19.5 47.5q0 27 19.5 46.5t47.5 19.5q27 0 46.5 -19.5t19.5 -46.5q0 -28 -19.5 -47.5t-46.5 -19.5zM444 750q20 0 12 -20
l-149 -424v-285q0 -21 -21 -21h-84q-21 0 -21 21v285l-149 424q-8 20 12 20h88q19 0 26 -20l80 -249q2 -5 6 -5t6 5l80 249q7 20 26 20h88z" />
    <glyph glyph-name="Zacute" unicode="&#x179;" horiz-adv-x="436" 
d="M340 953q11 -16 -6 -28l-173 -116q-16 -10 -28 8l-27 39q-11 16 7 28l173 116q16 11 28 -8zM393 630l-220 -506q-5 -12 6 -12h202q21 0 21 -21v-70q0 -21 -21 -21h-326q-21 0 -21 21v66q0 11 9 33l225 506q5 12 -6 12h-207q-21 0 -21 21v70q0 21 21 21h326q21 0 21 -21
v-67q0 -10 -9 -32z" />
    <glyph glyph-name="zacute" unicode="&#x17a;" horiz-adv-x="370" 
d="M81 689l133 124q15 15 30 0l38 -40q14 -15 0 -29l-131 -124q-15 -15 -30 0l-40 39q-15 15 0 30zM30 21v54q0 12 7 25l171 326q2 3 1 6t-5 3h-153q-21 0 -21 21v57q0 21 21 21h268q21 0 21 -21v-53q0 -16 -7 -26l-171 -326q-4 -9 5 -9h152q21 0 21 -21v-57q0 -21 -21 -21
h-268q-21 0 -21 21z" />
    <glyph glyph-name="Zdotaccent" unicode="&#x17b;" horiz-adv-x="436" 
d="M224 818q-27 0 -46.5 19.5t-19.5 47.5q0 27 19.5 46.5t46.5 19.5q28 0 47.5 -19.5t19.5 -46.5q0 -28 -19.5 -47.5t-47.5 -19.5zM393 630l-220 -506q-5 -12 6 -12h202q21 0 21 -21v-70q0 -21 -21 -21h-326q-21 0 -21 21v66q0 11 9 33l225 506q5 12 -6 12h-207
q-21 0 -21 21v70q0 21 21 21h326q21 0 21 -21v-67q0 -10 -9 -32z" />
    <glyph glyph-name="zdotaccent" unicode="&#x17c;" horiz-adv-x="370" 
d="M185 638q-31 0 -52.5 21.5t-21.5 51.5t21.5 51.5t52.5 21.5q30 0 51 -21.5t21 -51.5t-21 -51.5t-51 -21.5zM30 21v54q0 12 7 25l171 326q2 3 1 6t-5 3h-153q-21 0 -21 21v57q0 21 21 21h268q21 0 21 -21v-53q0 -16 -7 -26l-171 -326q-4 -9 5 -9h152q21 0 21 -21v-57
q0 -21 -21 -21h-268q-21 0 -21 21z" />
    <glyph glyph-name="Zcaron" unicode="&#x17d;" horiz-adv-x="436" 
d="M375 939l-135 -127q-16 -16 -30 0l-136 127q-15 14 0 29l29 29q14 14 30 0l92 -87l92 87q15 15 29 0l29 -29q16 -16 0 -29zM393 630l-220 -506q-5 -12 6 -12h202q21 0 21 -21v-70q0 -21 -21 -21h-326q-21 0 -21 21v66q0 11 9 33l225 506q5 12 -6 12h-207q-21 0 -21 21v70
q0 21 21 21h326q21 0 21 -21v-67q0 -10 -9 -32z" />
    <glyph glyph-name="zcaron" unicode="&#x17e;" horiz-adv-x="370" 
d="M335 747l-135 -128q-16 -14 -30 0l-136 128q-15 14 0 29l29 29q14 14 30 0l92 -87l92 87q15 15 29 0l29 -29q16 -16 0 -29zM30 21v54q0 12 7 25l171 326q2 3 1 6t-5 3h-153q-21 0 -21 21v57q0 21 21 21h268q21 0 21 -21v-53q0 -16 -7 -26l-171 -326q-4 -9 5 -9h152
q21 0 21 -21v-57q0 -21 -21 -21h-268q-21 0 -21 21z" />
    <glyph glyph-name="AEacute" unicode="&#x1fc;" horiz-adv-x="664" 
d="M550 953q11 -16 -6 -28l-173 -116q-16 -10 -28 8l-27 39q-11 16 7 28l173 116q16 11 28 -8zM444 638q-11 0 -15 -4t-4 -15v-161q0 -11 4 -15t15 -4h145q21 0 21 -21v-70q0 -21 -21 -21h-145q-11 0 -15 -4t-4 -15v-177q0 -11 4 -15t15 -4h145q21 0 21 -21v-70
q0 -21 -21 -21h-269q-21 0 -21 21v115h-95q-10 0 -13.5 -2.5t-6.5 -11.5l-32 -102q-4 -12 -9 -16t-15 -4h-89q-20 0 -13 20l225 710q4 13 9 16.5t17 3.5h312q21 0 21 -21v-70q0 -21 -21 -21h-145zM229 248h70v262q-4 0 -6 -5l-72 -246q-2 -11 8 -11z" />
    <glyph glyph-name="aeacute" unicode="&#x1fd;" horiz-adv-x="683" 
d="M240 689l133 124q15 15 30 0l38 -40q15 -15 0 -29l-131 -124q-15 -15 -30 0l-40 39q-15 15 0 30zM463 543q73 0 124.5 -49.5t51.5 -151.5v-17q0 -28 -3 -58q-1 -21 -21 -21h-205q-10 0 -10 -10v-64q0 -38 18.5 -56.5t44.5 -18.5q41 0 56 43q4 12 17 12h80q15 0 13 -18
q-8 -74 -57.5 -108.5t-112.5 -34.5q-96 0 -142 70q-42 -57 -108 -68t-117 33t-51 130q0 42 14 74t35.5 51t55.5 32.5t64 19.5t72 11v18q0 38 -19 56.5t-45 18.5q-42 0 -56 -43q-4 -12 -17 -12h-74q-15 0 -13 18q8 74 55.5 108.5t109.5 34.5q75 0 121 -46q47 46 119 46z
M527 338v22q0 40 -19 58.5t-45 18.5q-25 0 -44 -18.5t-19 -58.5v-22q0 -10 10 -10h107q10 0 10 10zM282 174v99q-66 -10 -94.5 -31.5t-27.5 -74.5q1 -35 19 -53.5t43 -16.5q25 1 42.5 20.5t17.5 56.5z" />
    <glyph glyph-name="Scommaaccent" unicode="&#x218;" horiz-adv-x="502" 
d="M457 184q0 -90 -63 -141.5t-143 -51.5q-87 0 -146 55t-60 143q0 18 13 18h85q17 0 18 -15q4 -37 27 -65.5t63 -28.5q34 0 56 21.5t24 56.5q3 37 -24 74.5t-68 71.5l-82 70t-70.5 85.5t-29.5 103.5q0 77 51.5 127.5t134.5 50.5q87 0 136 -52t52 -132q0 -18 -13 -18h-85
q-17 0 -18 15q-5 33 -22 56t-46 23q-30 0 -48 -21t-16 -50q3 -29 32.5 -63t69 -67.5t79 -71.5t66.5 -88.5t27 -105.5zM225 -172q-5 7 -16 16.5t-18.5 20t-8.5 26.5q-1 28 18 49.5t48 23.5q41 1 65.5 -33.5t9.5 -97.5q-13 -58 -62 -113q-10 -12 -23 -3l-26 19q-9 8 -1 19
q18 27 21 41.5t-7 31.5z" />
    <glyph glyph-name="scommaaccent" unicode="&#x219;" horiz-adv-x="399" 
d="M202 -9q-68 0 -113 38t-55 105q-2 18 13 18h79q14 0 17 -12q14 -49 56 -49q22 0 37 13t15 35q1 24 -19.5 44.5t-50.5 38t-61 38t-54 54t-25 75.5q-4 68 41.5 111t113.5 43q61 0 107 -37t48 -106q2 -18 -13 -18h-72q-14 0 -17 12q-11 48 -48 49q-20 1 -33.5 -12t-13.5 -30
q-1 -21 21.5 -41t55 -39t64.5 -42t54.5 -59t21.5 -80q-1 -69 -50 -109t-119 -40zM176 -172q-5 7 -16 16.5t-18.5 20t-8.5 26.5q-1 28 18 49.5t48 23.5q41 1 65.5 -33.5t9.5 -97.5q-13 -58 -62 -113q-10 -12 -23 -3l-26 19q-9 8 -1 19q18 27 21 41.5t-7 31.5z" />
    <glyph glyph-name="uni021A" unicode="&#x21a;" horiz-adv-x="441" 
d="M390 750q21 0 21 -21v-70q0 -21 -21 -21h-88q-11 0 -15 -4t-4 -15v-598q0 -21 -21 -21h-83q-21 0 -21 21v598q0 11 -4 15t-15 4h-88q-21 0 -21 21v70q0 21 21 21h339zM195 -172q-5 7 -16 16.5t-18.5 20t-8.5 26.5q-1 28 18 49.5t48 23.5q41 1 65.5 -33.5t9.5 -97.5
q-13 -58 -62 -113q-10 -12 -23 -3l-26 19q-9 8 -1 19q18 27 21 41.5t-7 31.5z" />
    <glyph glyph-name="uni021B" unicode="&#x21b;" horiz-adv-x="307" 
d="M261 0q-94 0 -137 38t-43 127v258q0 9 -3 12t-12 3h-19q-21 0 -21 21v54q0 21 21 21h25q9 0 12 3t3 12v75q0 21 21 21h68q21 0 21 -21v-75q0 -9 3 -12t12 -3h49q21 0 21 -21v-54q0 -21 -21 -21h-46q-16 0 -16 -15v-258q0 -65 62 -65q21 0 21 -21v-58q0 -21 -21 -21z
M154 -172q-5 7 -16 16.5t-18.5 20t-8.5 26.5q-1 28 18 49.5t48 23.5q41 1 65.5 -33.5t9.5 -97.5q-13 -58 -62 -113q-10 -12 -23 -3l-26 19q-9 8 -1 19q18 27 21 41.5t-7 31.5z" />
    <glyph glyph-name="uni0237" unicode="&#x237;" horiz-adv-x="215" 
d="M-13 -102q62 0 62 65v550q0 21 21 21h76q21 0 21 -21v-550q0 -88 -43.5 -129.5t-136.5 -41.5q-21 0 -21 21v64q0 21 21 21z" />
    <glyph glyph-name="circumflex" unicode="&#x2c6;" horiz-adv-x="433" 
d="M367 679q16 -13 0 -29l-29 -30q-14 -14 -29 0l-92 88l-92 -88q-17 -14 -30 0l-29 30q-15 15 0 29l136 127q14 16 30 0z" />
    <glyph glyph-name="caron" unicode="&#x2c7;" horiz-adv-x="433" 
d="M367 747l-135 -128q-16 -14 -30 0l-136 128q-15 14 0 29l29 29q14 14 30 0l92 -87l92 87q15 15 29 0l29 -29q16 -16 0 -29z" />
    <glyph glyph-name="breve" unicode="&#x2d8;" horiz-adv-x="435" 
d="M367 736q15 -15 0 -30q-61 -61 -149 -61q-87 0 -150 61q-15 15 0 30l35 34q11 6 14.5 5t16.5 -10q44 -32 84 -32q38 0 84 32q13 9 16.5 10t14.5 -5z" />
    <glyph glyph-name="dotaccent" unicode="&#x2d9;" horiz-adv-x="237" 
d="M119 638q-31 0 -52.5 21.5t-21.5 51.5t21.5 51.5t52.5 21.5q30 0 51 -21.5t21 -51.5t-21 -51.5t-51 -21.5z" />
    <glyph glyph-name="ring" unicode="&#x2da;" horiz-adv-x="290" 
d="M145 518q-47 0 -80 33.5t-33 80.5q0 46 33 79.5t80 33.5t80 -33.5t33 -79.5q0 -47 -33 -80.5t-80 -33.5zM145 585q19 0 32.5 14t13.5 33t-13.5 32.5t-32.5 13.5t-33 -13.5t-14 -32.5q0 -20 14 -33.5t33 -13.5z" />
    <glyph glyph-name="ogonek" unicode="&#x2db;" horiz-adv-x="298" 
d="M157 37q-7 -7 -17 -26t-12 -39q-3 -33 20.5 -54t61.5 -10q18 6 22 -10l16 -50q6 -17 -12 -24q-67 -26 -127.5 10t-60.5 105q0 47 28.5 82t71.5 43z" />
    <glyph glyph-name="tilde" unicode="&#x2dc;" horiz-adv-x="389" 
d="M339 633q12 -8 5 -21q-18 -34 -45.5 -50t-51.5 -15q-15 0 -28 4t-27.5 10.5t-21.5 8.5q-35 10 -54 -16q-9 -13 -21 -5l-45 26q-12 7 -5 21q18 33 45 49.5t52 15.5q15 0 28 -4t27 -10.5t21 -8.5q35 -10 54 16q10 13 21 5z" />
    <glyph glyph-name="hungarumlaut" unicode="&#x2dd;" horiz-adv-x="532" 
d="M72 689l132 124q16 16 30 0l39 -40q14 -15 0 -29l-132 -124q-15 -15 -30 0l-39 39q-16 16 0 30zM273 689l132 124q16 16 30 0l39 -40q14 -15 0 -29l-132 -124q-15 -15 -30 0l-39 39q-16 16 0 30z" />
    <glyph glyph-name="gravecomb" unicode="&#x300;" horiz-adv-x="0" 
d="M-297 931l26 39q12 19 28 8l173 -116q18 -12 7 -28l-27 -39q-12 -18 -28 -8l-173 116q-17 12 -6 28z" />
    <glyph glyph-name="acutecomb" unicode="&#x301;" horiz-adv-x="0" 
d="M-61 931q11 -16 -6 -28l-173 -116q-16 -10 -28 8l-27 39q-11 16 7 28l173 116q16 11 28 -8z" />
    <glyph glyph-name="uni0302" unicode="&#x302;" horiz-adv-x="0" 
d="M-76 848q16 -13 0 -29l-29 -29q-15 -14 -29 0l-92 87l-92 -87q-16 -14 -30 0l-29 29q-15 15 0 29l136 127q14 16 30 0z" />
    <glyph glyph-name="tildecomb" unicode="&#x303;" horiz-adv-x="0" 
d="M-80 872q13 -9 5 -21q-32 -55 -88 -55q-17 0 -40 11.5t-30 13.5q-31 10 -51 -17q-11 -14 -21 -5l-42 26q-11 9 -5 21q32 55 88 55q17 0 41 -11.5t29 -13.5q31 -11 52 17q10 13 21 5z" />
    <glyph glyph-name="uni0304" unicode="&#x304;" horiz-adv-x="0" 
d="M-81 893q21 0 21 -21v-48q0 -21 -21 -21h-194q-21 0 -21 21v48q0 21 21 21h194z" />
    <glyph glyph-name="uni0306" unicode="&#x306;" horiz-adv-x="0" 
d="M-74 890q15 -15 0 -30q-63 -67 -149 -67q-87 0 -150 67q-14 16 0 30l33 31q13 13 31 -3q43 -37 86 -37q44 0 85 37q18 17 32 3z" />
    <glyph glyph-name="uni0307" unicode="&#x307;" horiz-adv-x="0" 
d="M-121 796q-27 0 -46.5 19.5t-19.5 47.5q0 27 19.5 46.5t46.5 19.5q28 0 47.5 -19.5t19.5 -46.5q0 -28 -19.5 -47.5t-47.5 -19.5z" />
    <glyph glyph-name="uni0308" unicode="&#x308;" horiz-adv-x="0" 
d="M-311 796q-28 0 -47.5 19.5t-19.5 47.5q0 27 19.5 46.5t47.5 19.5q27 0 47 -19.5t20 -46.5q0 -28 -20 -47.5t-47 -19.5zM-142 796q-28 0 -47.5 19.5t-19.5 47.5q0 27 19.5 46.5t47.5 19.5q27 0 46.5 -19.5t19.5 -46.5q0 -28 -19.5 -47.5t-46.5 -19.5z" />
    <glyph glyph-name="uni030A" unicode="&#x30a;" horiz-adv-x="0" 
d="M-172 782q-42 0 -71 29.5t-29 71.5q0 41 29 70.5t71 29.5t71 -29.5t29 -70.5q0 -42 -29 -71.5t-71 -29.5zM-172 845q16 0 26.5 11t10.5 27q0 15 -10.5 26t-26.5 11t-26.5 -11t-10.5 -26q0 -16 10.5 -27t26.5 -11z" />
    <glyph glyph-name="uni030B" unicode="&#x30b;" horiz-adv-x="0" 
d="M-468 790l-29 30q-15 15 0 30l121 125q15 15 30 0l29 -30q15 -15 0 -30l-121 -125q-15 -15 -30 0zM-272 790l-29 30q-15 15 0 30l121 125q15 15 30 0l29 -30q15 -15 0 -30l-121 -125q-15 -15 -30 0z" />
    <glyph glyph-name="uni030C" unicode="&#x30c;" horiz-adv-x="0" 
d="M-87 917l-135 -127q-16 -16 -30 0l-136 127q-15 14 0 29l29 29q14 14 30 0l92 -87l92 87q15 15 29 0l29 -29q16 -16 0 -29z" />
    <glyph glyph-name="uni0312" unicode="&#x312;" horiz-adv-x="0" 
d="M-93 657q5 -8 16 -17t18.5 -20t8.5 -27q2 -28 -18 -49.5t-48 -22.5q-41 -2 -65.5 32.5t-9.5 97.5q12 57 62 113q11 13 23 3l26 -19q10 -7 1 -19q-18 -27 -21 -41t7 -31z" />
    <glyph glyph-name="uni0326" unicode="&#x326;" horiz-adv-x="0" 
d="M-152 -172q-5 7 -16 16.5t-18.5 20t-8.5 26.5q-1 28 18 49.5t48 23.5q41 1 65.5 -33.5t9.5 -97.5q-13 -58 -62 -113q-10 -12 -23 -3l-26 19q-9 8 -1 19q18 27 21 41.5t-7 31.5z" />
    <glyph glyph-name="uni0327" unicode="&#x327;" horiz-adv-x="0" 
d="M-175 -45q53 23 97.5 -10t44.5 -90q0 -50 -37 -84t-89 -34q-24 0 -53 12q-18 7 -12 24l16 40q7 16 22 10q15 -5 27 -5q19 0 32 13.5t13 33.5q0 19 -13.5 32t-32.5 13q-23 0 -40 -20q-11 -11 -24 -4l-31 14q-13 5 -8 19l39 113l72 -14z" />
    <glyph glyph-name="uni0328" unicode="&#x328;" horiz-adv-x="0" 
d="M-141 37q-7 -7 -17 -26t-12 -39q-3 -33 20.5 -54t61.5 -10q18 6 22 -10l16 -50q6 -17 -12 -24q-67 -26 -127.5 10t-60.5 105q0 47 28.5 82t71.5 43z" />
    <glyph glyph-name="uni0335" unicode="&#x335;" horiz-adv-x="0" 
 />
    <glyph glyph-name="uni0336" unicode="&#x336;" horiz-adv-x="0" 
 />
    <glyph glyph-name="uni0337" unicode="&#x337;" horiz-adv-x="0" 
d="M-68 512q19 10 27 -5l26 -46q9 -15 -9 -26l-266 -152q-18 -11 -27 5l-26 46q-8 16 9 26z" />
    <glyph glyph-name="uni0338" unicode="&#x338;" horiz-adv-x="0" 
d="M-145 751q8 0 12 -5.5t0 -15.5l-373 -709q-11 -21 -29 -21h-46q-8 0 -12 5t0 16l373 709q11 21 29 21h46z" />
    <glyph glyph-name="Wgrave" unicode="&#x1e80;" horiz-adv-x="718" 
d="M243 981l26 39q12 19 28 8l173 -116q18 -12 7 -28l-27 -39q-12 -18 -28 -8l-173 116q-17 12 -6 28zM184 0q-13 0 -18.5 4t-7.5 16l-133 710q-4 20 14 20h88q20 0 24 -20l66 -416q0 -4 3 -5.5t6 0t3 4.5l83 417q3 12 8.5 16t17.5 4h42q12 0 17.5 -4t8.5 -16l82 -417
q1 -3 3.5 -4.5t5.5 0t3 5.5l67 416q4 20 24 20h87q18 0 14 -20l-132 -710q-2 -12 -7.5 -16t-18.5 -4h-55q-22 0 -26 20l-88 438q-1 5 -6 5t-6 -5l-88 -438q-5 -20 -26 -20h-55z" />
    <glyph glyph-name="wgrave" unicode="&#x1e81;" horiz-adv-x="601" 
d="M401 689q16 -14 0 -30l-39 -39q-15 -15 -30 0l-132 124q-14 14 0 29l39 40q15 15 30 0zM581 534q18 0 13 -20l-119 -494q-4 -20 -26 -20h-53q-22 0 -26 20l-63 256q-1 5 -6 5t-6 -5l-63 -256q-5 -20 -26 -20h-54q-21 0 -26 20l-119 494q-5 20 13 20h84q18 0 23 -20
l56 -269q1 -5 5.5 -5.5t6.5 5.5l61 269q4 20 26 20h37q21 0 26 -20l61 -269q1 -3 2.5 -4.5t3.5 -1.5t4 1.5t2 4.5l57 269q5 20 23 20h83z" />
    <glyph glyph-name="Wacute" unicode="&#x1e82;" horiz-adv-x="718" 
d="M475 953q11 -16 -6 -28l-173 -116q-16 -10 -28 8l-27 39q-11 16 7 28l173 116q16 11 28 -8zM184 0q-13 0 -18.5 4t-7.5 16l-133 710q-4 20 14 20h88q20 0 24 -20l66 -416q0 -4 3 -5.5t6 0t3 4.5l83 417q3 12 8.5 16t17.5 4h42q12 0 17.5 -4t8.5 -16l82 -417
q1 -3 3.5 -4.5t5.5 0t3 5.5l67 416q4 20 24 20h87q18 0 14 -20l-132 -710q-2 -12 -7.5 -16t-18.5 -4h-55q-22 0 -26 20l-88 438q-1 5 -6 5t-6 -5l-88 -438q-5 -20 -26 -20h-55z" />
    <glyph glyph-name="wacute" unicode="&#x1e83;" horiz-adv-x="601" 
d="M197 689l133 124q15 15 30 0l38 -40q14 -15 0 -29l-131 -124q-15 -15 -30 0l-40 39q-15 15 0 30zM581 534q18 0 13 -20l-119 -494q-4 -20 -26 -20h-53q-22 0 -26 20l-63 256q-1 5 -6 5t-6 -5l-63 -256q-5 -20 -26 -20h-54q-21 0 -26 20l-119 494q-5 20 13 20h84
q18 0 23 -20l56 -269q1 -5 5.5 -5.5t6.5 5.5l61 269q4 20 26 20h37q21 0 26 -20l61 -269q1 -3 2.5 -4.5t3.5 -1.5t4 1.5t2 4.5l57 269q5 20 23 20h83z" />
    <glyph glyph-name="Wdieresis" unicode="&#x1e84;" horiz-adv-x="718" 
d="M275 818q-28 0 -47.5 19.5t-19.5 47.5q0 27 19.5 46.5t47.5 19.5q27 0 47 -19.5t20 -46.5q0 -28 -20 -47.5t-47 -19.5zM444 818q-28 0 -47.5 19.5t-19.5 47.5q0 27 19.5 46.5t47.5 19.5q27 0 46.5 -19.5t19.5 -46.5q0 -28 -19.5 -47.5t-46.5 -19.5zM184 0q-13 0 -18.5 4
t-7.5 16l-133 710q-4 20 14 20h88q20 0 24 -20l66 -416q0 -4 3 -5.5t6 0t3 4.5l83 417q3 12 8.5 16t17.5 4h42q12 0 17.5 -4t8.5 -16l82 -417q1 -3 3.5 -4.5t5.5 0t3 5.5l67 416q4 20 24 20h87q18 0 14 -20l-132 -710q-2 -12 -7.5 -16t-18.5 -4h-55q-22 0 -26 20l-88 438
q-1 5 -6 5t-6 -5l-88 -438q-5 -20 -26 -20h-55z" />
    <glyph glyph-name="wdieresis" unicode="&#x1e85;" horiz-adv-x="601" 
d="M210 638q-28 0 -48.5 20t-20.5 48t20 48t49 20q28 0 48 -20t20 -48t-20 -48t-48 -20zM393 638q-28 0 -48.5 20t-20.5 48t20 48t49 20t49 -20t20 -48t-20.5 -48t-48.5 -20zM581 534q18 0 13 -20l-119 -494q-4 -20 -26 -20h-53q-22 0 -26 20l-63 256q-1 5 -6 5t-6 -5
l-63 -256q-5 -20 -26 -20h-54q-21 0 -26 20l-119 494q-5 20 13 20h84q18 0 23 -20l56 -269q1 -5 5.5 -5.5t6.5 5.5l61 269q4 20 26 20h37q21 0 26 -20l61 -269q1 -3 2.5 -4.5t3.5 -1.5t4 1.5t2 4.5l57 269q5 20 23 20h83z" />
    <glyph glyph-name="Ygrave" unicode="&#x1ef2;" horiz-adv-x="487" 
d="M128 981l26 39q12 19 28 8l173 -116q18 -12 7 -28l-27 -39q-12 -18 -28 -8l-173 116q-17 12 -6 28zM444 750q20 0 12 -20l-149 -424v-285q0 -21 -21 -21h-84q-21 0 -21 21v285l-149 424q-8 20 12 20h88q19 0 26 -20l80 -249q2 -5 6 -5t6 5l80 249q7 20 26 20h88z" />
    <glyph glyph-name="ygrave" unicode="&#x1ef3;" horiz-adv-x="421" 
d="M310 689q16 -14 0 -30l-39 -39q-15 -15 -30 0l-132 124q-14 14 0 29l39 40q15 15 30 0zM60 -208q-21 0 -21 21v64q0 20 21 21q20 2 32 5t25 14t19 29q15 48 16.5 64.5t-6.5 38.5l-141 465q-5 20 13 20h83q18 0 23 -20l81 -305q1 -5 6 -5t6 5l79 305q6 20 23 20h83
q9 0 13 -5.5t0 -14.5l-192 -623q-30 -99 -163 -99z" />
    <glyph glyph-name="endash" unicode="&#x2013;" horiz-adv-x="569" 
d="M509 335q21 0 21 -21v-50q0 -21 -21 -21h-449q-21 0 -21 21v50q0 21 21 21h449z" />
    <glyph glyph-name="emdash" unicode="&#x2014;" horiz-adv-x="699" 
d="M639 335q21 0 21 -21v-50q0 -21 -21 -21h-579q-21 0 -21 21v50q0 21 21 21h579z" />
    <glyph glyph-name="quoteleft" unicode="&#x2018;" horiz-adv-x="233" 
d="M131 610q4 -8 18.5 -18t25.5 -23t11 -34q0 -29 -21 -50t-52 -21q-52 0 -74.5 53.5t6.5 126.5q26 63 75 108q12 12 24 2l23 -19q9 -8 1 -21l-15 -22.5l-12.5 -19.5t-10.5 -19.5t-5 -16t-0.5 -15t6.5 -11.5z" />
    <glyph glyph-name="quoteright" unicode="&#x2019;" horiz-adv-x="233" 
d="M102 614q-4 8 -18.5 18t-25.5 23t-11 34q0 29 21 50t52 21q53 0 74.5 -53t-6.5 -127q-26 -63 -75 -108q-12 -12 -23 -2l-24 20q-9 8 -1 20q42 63 44 83q1 13 -7 21z" />
    <glyph glyph-name="quotesinglbase" unicode="&#x201a;" horiz-adv-x="233" 
d="M102 -16q-4 8 -18.5 18t-25.5 23t-11 34q0 29 21 50t52 21q53 0 74.5 -53t-6.5 -127q-25 -61 -75 -108q-12 -12 -23 -2l-24 19q-9 9 -1 21q14 19 22 31.5t16 29t6.5 24.5t-7.5 19z" />
    <glyph glyph-name="quotedblleft" unicode="&#x201c;" horiz-adv-x="434" 
d="M131 611q2 -5 28 -26t26 -49q0 -29 -21 -50t-51 -21q-53 0 -75.5 53.5t6.5 126.5q27 66 75 108q13 11 23 2l24 -20q10 -8 1 -20q-11 -16 -15 -22.5l-12 -19.5t-10 -19.5t-4.5 -15.5t-1 -15.5t6.5 -11.5zM332 611q4 -8 18.5 -18t25 -23t10.5 -34q0 -30 -21 -50.5
t-51 -20.5q-53 0 -75 53.5t7 126.5q27 67 74 108q14 11 24 2l24 -20q9 -8 1 -20l-15 -22.5l-12.5 -19.5t-10.5 -19.5t-5 -16t-0.5 -15t6.5 -11.5z" />
    <glyph glyph-name="quotedblright" unicode="&#x201d;" horiz-adv-x="434" 
d="M101 614q-2 5 -28 26t-26 49q0 29 21 50t51 21q53 0 75.5 -53t-6.5 -127q-27 -66 -75 -108q-12 -11 -23 -2l-24 20q-10 8 -1 20q11 16 15 22.5l12 19.5t10 19.5t4.5 15.5t1 15.5t-6.5 11.5zM303 614q-2 5 -28 26t-26 49q0 29 21 50t51 21q53 0 75 -53t-7 -127
q-27 -67 -74 -108q-13 -12 -24 -2l-23 20q-10 8 -1 20q11 16 15 22.5l12 19.5t10 19.5t4.5 15.5t1 15.5t-6.5 11.5z" />
    <glyph glyph-name="quotedblbase" unicode="&#x201e;" horiz-adv-x="434" 
d="M83 -17q-4 8 -18.5 18t-25 23.5t-10.5 33.5q0 30 20.5 50.5t51.5 20.5q53 0 75 -53t-7 -126q-24 -59 -74 -109q-14 -11 -24 -2l-24 20q-9 8 -1 21q14 19 22 31.5t16 29t6.5 24.5t-7.5 18zM284 -17q-2 5 -28 26t-26 49q0 29 21 50t51 21q53 0 75.5 -53.5t-6.5 -126.5
q-25 -61 -75 -108q-12 -11 -23 -2l-24 20q-10 8 -1 20l17.5 26.5t14 23t9.5 22t1.5 17.5t-6.5 15z" />
    <glyph glyph-name="dagger" unicode="&#x2020;" horiz-adv-x="531" 
d="M460 534q21 0 21 -21v-72q0 -21 -21 -21h-124q-10 0 -10 -10v-623q0 -21 -21 -21h-78q-21 0 -21 21v623q0 10 -10 10h-125q-21 0 -21 21v72q0 21 21 21h125q10 0 10 10v185q0 21 21 21h78q21 0 21 -21v-185q0 -10 10 -10h124z" />
    <glyph glyph-name="daggerdbl" unicode="&#x2021;" horiz-adv-x="520" 
d="M320 146q0 -10 10 -10h119q21 0 21 -21v-72q0 -21 -21 -21h-119q-10 0 -10 -10v-225q0 -21 -21 -21h-78q-21 0 -21 21v225q0 10 -10 10h-119q-21 0 -21 21v72q0 21 21 21h119q10 0 10 10v263q0 10 -10 10h-119q-21 0 -21 21v72q0 21 21 21h119q10 0 10 10v186q0 21 21 21
h78q21 0 21 -21v-186q0 -10 10 -10h119q21 0 21 -21v-72q0 -21 -21 -21h-119q-10 0 -10 -10v-263z" />
    <glyph glyph-name="bullet" unicode="&#x2022;" horiz-adv-x="369" 
d="M185 143q-58 0 -99.5 41t-41.5 99t41.5 99t99.5 41t99 -41t41 -99t-41 -99t-99 -41z" />
    <glyph glyph-name="ellipsis" unicode="&#x2026;" horiz-adv-x="706" 
d="M135 -9q-31 0 -53.5 22.5t-22.5 53.5t22.5 53.5t53.5 22.5q32 0 54.5 -22t22.5 -54t-22.5 -54t-54.5 -22zM363 -9q-32 0 -54.5 22t-22.5 54t22.5 54t54.5 22q31 0 53.5 -22.5t22.5 -53.5t-22.5 -53.5t-53.5 -22.5zM591 -9q-32 0 -54.5 22t-22.5 54t22.5 54t54.5 22
q31 0 53.5 -22.5t22.5 -53.5t-22.5 -53.5t-53.5 -22.5z" />
    <glyph glyph-name="perthousand" unicode="&#x2030;" horiz-adv-x="1009" 
d="M175 487q-56 0 -96 40t-40 96t40 96t96 40t96 -40t40 -96t-40 -96t-96 -40zM573 750q9 0 13 -5t-1 -16l-380 -708q-7 -12 -11.5 -16.5t-15.5 -4.5h-71q-9 0 -13 5t1 16l380 708q7 12 11.5 16.5t15.5 4.5h71zM175 565q24 0 41.5 17t17.5 41t-17.5 41.5t-41.5 17.5
t-42 -17.5t-18 -41.5t18 -41t42 -17zM506 -9q-56 0 -96 40t-40 96t40 96t96 40t96 -40t40 -96t-40 -96t-96 -40zM834 -9q-56 0 -96 40t-40 96t40 96t96 40t96 -40t40 -96t-40 -96t-96 -40zM506 68q24 0 41.5 17.5t17.5 41.5t-17.5 41t-41.5 17t-41.5 -17t-17.5 -41
t17.5 -41.5t41.5 -17.5zM834 68q25 0 42.5 17.5t17.5 41.5t-17.5 41t-42.5 17q-24 0 -41.5 -17t-17.5 -41t17.5 -41.5t41.5 -17.5z" />
    <glyph glyph-name="guilsinglleft" unicode="&#x2039;" horiz-adv-x="265" 
d="M213 282l-53 -59q-6 -7 0 -16l53 -59q14 -15 14 -30v-93q0 -8 -6 -10t-13 5l-163 180q-13 16 0 30l163 181q7 7 13 5t6 -11v-93q0 -15 -14 -30z" />
    <glyph glyph-name="guilsinglright" unicode="&#x203a;" horiz-adv-x="265" 
d="M53 282q-14 15 -14 30v93q0 9 6 11t13 -5l163 -181q13 -14 0 -30l-163 -180q-4 -5 -8.5 -5.5t-7.5 2.5t-3 8v93q0 15 14 30l52 59q7 9 0 16z" />
    <glyph glyph-name="uni2070" unicode="&#x2070;" horiz-adv-x="424" 
d="M212 207q-79 0 -121 51t-42 143v164q0 92 42 143t121 51t121 -51t42 -143v-164q0 -92 -42 -143t-121 -51zM212 302q59 0 59 98v165q0 99 -59 99t-59 -99v-165q0 -98 59 -98z" />
    <glyph glyph-name="uni2074" unicode="&#x2074;" horiz-adv-x="372" 
d="M324 404q18 0 18 -17v-51q0 -17 -18 -17h-8q-15 0 -15 -16v-74q0 -17 -18 -17h-68q-18 0 -18 17v74q0 16 -15 16h-155q-17 0 -17 17v44q0 13 9 31l183 329q6 10 20 10h61q18 0 18 -17v-313q0 -10 3 -13t12 -3h8zM197 419v158l-87 -173h72q9 0 12 3t3 12z" />
    <glyph glyph-name="uni2075" unicode="&#x2075;" horiz-adv-x="380" 
d="M209 586q48 3 85 -36t37 -124v-49q0 -85 -41.5 -125t-103.5 -40q-51 0 -89.5 28.5t-46.5 89.5q-2 15 11 15h61q11 0 14 -10q10 -35 45 -35q21 0 36.5 15.5t15.5 46.5v80q0 31 -15.5 46t-36.5 15q-31 0 -45 -35q-4 -10 -14 -10h-55q-17 0 -17 17l-1 258q0 17 17 17h235
q18 0 18 -17v-57q0 -18 -18 -18h-149q-9 0 -12 -3t-3 -12v-93q27 33 72 36z" />
    <glyph glyph-name="uni2076" unicode="&#x2076;" horiz-adv-x="397" 
d="M218 549q49 5 89.5 -30.5t40.5 -114.5v-32q0 -84 -45 -125t-105 -41t-104.5 41t-44.5 125v222q0 85 42 125t104 40q51 0 89 -28.5t47 -89.5q2 -15 -11 -15h-62q-11 0 -14 11q-11 34 -45 34q-21 0 -36 -15.5t-15 -46.5v-95q27 31 70 35zM249 358v41q0 32 -15 47.5
t-36 15.5q-20 0 -35 -15.5t-15 -47.5v-41q0 -32 15 -47.5t35 -15.5q21 0 36 15.5t15 47.5z" />
    <glyph glyph-name="uni2077" unicode="&#x2077;" horiz-adv-x="319" 
d="M271 750q18 0 18 -17v-49q0 -16 -5 -28l-109 -423q-4 -17 -23 -17h-70q-16 0 -11 17l108 416q3 10 -6 10h-134q-18 0 -18 17v57q0 17 18 17h232z" />
    <glyph glyph-name="uni2078" unicode="&#x2078;" horiz-adv-x="398" 
d="M199 207q-63 0 -106.5 39t-43.5 114v17q0 72 53 117q-44 37 -44 110v4q0 71 41 111t100 40t100 -40t41 -111v-4q0 -73 -44 -110q53 -45 53 -117v-17q0 -75 -44 -114t-106 -39zM199 540q20 0 34.5 15.5t14.5 46.5v10q0 31 -14.5 46t-34.5 15t-34.5 -15t-14.5 -46v-10
q0 -31 14.5 -46.5t34.5 -15.5zM199 295q21 0 36 15.5t15 46.5v27q0 33 -15 48.5t-36 15.5t-36 -15.5t-15 -48.5v-27q0 -31 15 -46.5t36 -15.5z" />
    <glyph glyph-name="uni2079" unicode="&#x2079;" horiz-adv-x="397" 
d="M179 416q-49 -4 -89.5 31.5t-40.5 114.5v32q0 83 45 124t104 41q60 0 105 -41t45 -124v-222q0 -86 -42 -126t-104 -40q-51 0 -89 28.5t-47 89.5q-2 15 11 15h62q11 0 14 -10q11 -34 45 -34q20 0 35.5 15.5t15.5 45.5v95q-27 -31 -70 -35zM148 608v-41q0 -32 15 -48
t35 -16q21 0 36 16t15 48v41q0 32 -15 47.5t-36 15.5q-20 0 -35 -15.5t-15 -47.5z" />
    <glyph glyph-name="uni2080" unicode="&#x2080;" horiz-adv-x="424" 
d="M212 -218q-79 0 -121 51t-42 143v165q0 92 42 143t121 51t121 -51t42 -143v-165q0 -92 -42 -143t-121 -51zM212 -122q59 0 59 98v165q0 98 -59 98t-59 -98v-165q0 -98 59 -98z" />
    <glyph glyph-name="uni2081" unicode="&#x2081;" horiz-adv-x="317" 
d="M232 329q17 0 17 -17v-503q0 -17 -17 -17h-69q-17 0 -17 17v366l-57 -57q-12 -14 -24 0l-44 44q-12 13 0 25l131 132q10 10 20 10h60z" />
    <glyph glyph-name="uni2082" unicode="&#x2082;" horiz-adv-x="362" 
d="M58 -208q-18 0 -18 17v90q0 46 18.5 83.5t44.5 62.5t53 47t46.5 46.5t21.5 50.5q2 28 -12.5 44.5t-36.5 16.5q-34 0 -44 -38q-3 -10 -14 -10h-62q-11 0 -11 15q1 57 40.5 87.5t94.5 30.5q64 0 104.5 -39.5t36.5 -108.5q-2 -43 -21.5 -78t-45 -59t-51 -45.5t-43 -47
t-17.5 -53.5v-6q0 -9 3 -12t13 -3h146q18 0 18 -18v-56q0 -17 -18 -17h-246z" />
    <glyph glyph-name="uni2083" unicode="&#x2083;" horiz-adv-x="379" 
d="M184 -218q-51 0 -88.5 28.5t-46.5 89.5q-2 15 11 15h61q11 0 14 -10q11 -34 45 -34q21 0 36.5 15.5t15.5 46.5v32q0 31 -15.5 46t-36.5 15h-33q-17 0 -17 17v49q0 17 17 17h33q21 0 36.5 15.5t15.5 46.5v14q0 31 -15.5 46t-36.5 15q-17 0 -29.5 -10t-15.5 -25
q-1 -9 -14 -9h-61q-13 0 -11 14q9 61 47 90t88 29q63 0 104.5 -39t41.5 -121v-5q0 -64 -43 -104q43 -38 43 -109v-20q0 -79 -42 -117t-104 -38z" />
    <glyph glyph-name="uni2084" unicode="&#x2084;" horiz-adv-x="372" 
d="M324 -17q18 0 18 -17v-51q0 -17 -18 -17h-8q-15 0 -15 -16v-73q0 -17 -18 -17h-68q-18 0 -18 17v73q0 16 -15 16h-155q-17 0 -17 17v44q0 13 9 31l183 329q5 10 20 10h61q18 0 18 -17v-313q0 -10 3 -13t12 -3h8zM197 -2v159l-87 -174h72q9 0 12 3t3 12z" />
    <glyph glyph-name="uni2085" unicode="&#x2085;" horiz-adv-x="380" 
d="M209 156q48 3 85 -36t37 -124v-49q0 -85 -41.5 -125t-103.5 -40q-51 0 -89.5 28.5t-46.5 89.5q-2 15 11 15h61q11 0 14 -10q10 -35 45 -35q21 0 36.5 15.5t15.5 46.5v80q0 31 -15.5 46t-36.5 15q-31 0 -45 -35q-4 -10 -14 -10h-55q-17 0 -17 17l-1 263q0 18 17 18h235
q18 0 18 -18v-56q0 -18 -18 -18h-149q-9 0 -12 -3t-3 -12v-99q27 33 72 36z" />
    <glyph glyph-name="uni2086" unicode="&#x2086;" horiz-adv-x="397" 
d="M218 125q49 4 89.5 -31t40.5 -114v-33q0 -83 -45 -124t-105 -41q-59 0 -104 41t-45 124v222q0 86 42 126t104 40q51 0 89 -28.5t47 -89.5q2 -15 -11 -15h-62q-11 0 -14 10q-11 34 -45 34q-21 0 -36 -15t-15 -46v-95q27 31 70 35zM249 -67v41q0 32 -15 48t-36 16
q-20 0 -35 -16t-15 -48v-41q0 -32 15 -47.5t35 -15.5q21 0 36 15.5t15 47.5z" />
    <glyph glyph-name="uni2087" unicode="&#x2087;" horiz-adv-x="313" 
d="M265 326q18 0 18 -17v-49q0 -5 -4 -29l-110 -422q-4 -17 -22 -17h-70q-15 0 -11 17l107 415q3 10 -6 10h-134q-17 0 -17 17v58q0 17 17 17h232z" />
    <glyph glyph-name="uni2088" unicode="&#x2088;" horiz-adv-x="398" 
d="M199 -218q-63 0 -106.5 39.5t-43.5 113.5v18q0 70 53 117q-44 37 -44 110v4q0 71 41 111t100 40t100 -40t41 -111v-4q0 -73 -44 -110q53 -47 53 -117v-18q0 -74 -44 -113.5t-106 -39.5zM199 116q20 0 34.5 15t14.5 46v10q0 31 -14.5 46.5t-34.5 15.5q-21 -1 -35 -16
t-14 -46v-10q0 -31 14.5 -46t34.5 -15zM199 -129q21 0 36 15.5t15 46.5v27q0 32 -15 48t-36 16t-36 -16t-15 -48v-27q0 -31 15 -46.5t36 -15.5z" />
    <glyph glyph-name="uni2089" unicode="&#x2089;" horiz-adv-x="397" 
d="M179 -8q-49 -5 -89.5 30.5t-40.5 114.5v32q0 84 44.5 125t104.5 41t105 -41t45 -125v-222q0 -85 -42 -125t-104 -40q-51 0 -89 28.5t-47 89.5q-2 15 11 15h62q11 0 14 -10q11 -35 45 -35q21 0 36 15.5t15 46.5v95q-27 -31 -70 -35zM148 183v-41q0 -32 15 -47.5t35 -15.5
q21 0 36 15.5t15 47.5v41q0 32 -15 47.5t-36 15.5q-20 0 -35 -15.5t-15 -47.5z" />
    <glyph glyph-name="Euro" unicode="&#x20ac;" horiz-adv-x="513" 
d="M449 198q13 0 13 -18q-3 -82 -54.5 -135.5t-142.5 -53.5q-100 0 -152.5 64t-52.5 177v67h-39q-21 0 -21 21v6q0 21 21 21h39v60h-39q-21 0 -21 21v6q0 21 21 21h39v63q0 113 52.5 177t152.5 64q91 0 142.5 -53.5t54.5 -135.5q0 -18 -13 -18h-91q-16 0 -17 14
q-13 76 -76 76q-39 0 -59 -33t-20 -91v-63h141q21 0 21 -21v-6q0 -21 -21 -21h-141v-60h141q21 0 21 -21v-6q0 -21 -21 -21h-141v-67q0 -58 20 -91t59 -33q63 0 76 76q1 14 17 14h91z" />
    <glyph glyph-name="trademark" unicode="&#x2122;" horiz-adv-x="751" 
d="M273 750q15 0 15 -16v-40q0 -16 -15 -16h-55q-8 0 -11 -3t-3 -11v-198q0 -16 -16 -16h-43q-16 0 -16 16v198q0 8 -3 11t-11 3h-55q-16 0 -16 16v40q0 16 16 16h213zM706 466q3 -16 -14 -16h-43q-15 0 -18 16l-20 141q-1 5 -4.5 5t-5.5 -4l-60 -143q-5 -15 -19 -15h-24
q-14 0 -19 15l-60 143q-2 4 -5.5 4t-4.5 -5l-20 -141q-3 -16 -18 -16h-43q-17 0 -14 16l42 268q3 16 17 16h43q8 0 11.5 -3t7.5 -13l70 -170q1 -4 5 -4t5 4l70 170q4 10 7.5 13t11.5 3h43q14 0 17 -16z" />
    <glyph glyph-name="partialdiff" unicode="&#x2202;" horiz-adv-x="462" 
d="M231 -9q-73 0 -127.5 49.5t-54.5 151.5v112q0 96 49 139.5t110 38.5q51 -6 87 -42v39q0 96 -33 133t-119 37q-21 0 -21 21v59q0 21 21 21q160 0 215 -67t55 -249v-242q0 -102 -54.5 -151.5t-127.5 -49.5zM231 97q25 0 44.5 19t19.5 58v125q0 40 -19 58.5t-45 18.5
t-45 -18.5t-19 -58.5v-125q0 -39 19.5 -58t44.5 -19z" />
    <glyph glyph-name="emptyset" unicode="&#x2205;" horiz-adv-x="559" 
d="M460 367q51 -64 51 -146q0 -95 -67.5 -162.5t-163.5 -67.5q-80 0 -145 50l-42 -42q-15 -15 -30 0l-5 5q-15 15 0 30l42 42q-51 64 -51 145q0 96 67.5 163.5t163.5 67.5q81 0 145 -51l42 43q15 15 30 0l5 -5q15 -15 0 -30zM161 221q0 -37 18 -66l169 169q-30 22 -68 22
q-51 0 -85 -37t-34 -88zM280 97q51 0 84.5 36.5t33.5 87.5q0 37 -17 66l-169 -169q31 -21 68 -21z" />
    <glyph glyph-name="product" unicode="&#x220f;" horiz-adv-x="534" 
d="M458 750q21 0 21 -21v-708q0 -21 -21 -21h-84q-21 0 -21 21v598q0 11 -4 15t-15 4h-135q-11 0 -15 -4t-4 -15v-598q0 -21 -21 -21h-84q-21 0 -21 21v708q0 21 21 21h383z" />
    <glyph glyph-name="summation" unicode="&#x2211;" horiz-adv-x="580" 
d="M49 727q0 23 21 23h440q21 0 21 -21v-70q0 -21 -21 -21h-253q-5 0 -6.5 -4t3.5 -8l257 -211q2 -1 4.5 -3.5t4 -3.5t3.5 -2.5t2.5 -2.5t2 -2.5t2 -3l1 -3t0.5 -3.5v-5v-22q0 -7 -3 -12t-4.5 -6.5t-12.5 -10.5l-257 -211q-5 -4 -3.5 -8t6.5 -4h253q21 0 21 -21v-70
q0 -21 -21 -21h-440q-21 0 -21 23v70q0 14 21 31l303 245q6 6 0 12l-303 245q-21 17 -21 31v70z" />
    <glyph glyph-name="minus" unicode="&#x2212;" horiz-adv-x="529" 
d="M469 407q21 0 21 -21v-50q0 -21 -21 -21h-409q-21 0 -21 21v50q0 21 21 21h409z" />
    <glyph glyph-name="radical" unicode="&#x221a;" horiz-adv-x="759" 
d="M703 750q21 0 21 -21v-70q0 -21 -21 -21h-151q-14 0 -22 -19l-228 -599q-5 -13 -9.5 -16.5t-16.5 -3.5h-45q-12 0 -16.5 3.5t-9.5 16.5l-169 394q-8 20 13 20h85q15 0 24 -20l89 -225q2 -5 6 -5t6 5l194 541q7 20 25 20h225z" />
    <glyph glyph-name="infinity" unicode="&#x221e;" horiz-adv-x="598" 
d="M409 497q56 0 96 -40t40 -96t-40 -96t-96 -40q-71 0 -111 58q-41 -58 -112 -58q-56 0 -96 40t-40 96t40 96t96 40q71 0 112 -58q40 58 111 58zM186 302q24 0 41.5 17.5t17.5 41.5t-17.5 41.5t-41.5 17.5t-41.5 -17.5t-17.5 -41.5t17.5 -41.5t41.5 -17.5zM409 302
q24 0 41.5 17.5t17.5 41.5t-17.5 41.5t-41.5 17.5t-41.5 -17.5t-17.5 -41.5t17.5 -41.5t41.5 -17.5z" />
    <glyph glyph-name="integral" unicode="&#x222b;" horiz-adv-x="568" 
d="M522 696q13 -17 0 -29l-51 -44q-13 -11 -30 3q-20 17 -41 17q-23 0 -38 -15.5t-15 -42.5v-668q0 -69 -48.5 -115t-117.5 -46q-44 0 -79.5 19.5t-54.5 43.5q-14 17 -1 29l52 44q10 7 14.5 6t15.5 -9q18 -17 40 -17q24 0 38.5 15.5t14.5 42.5v668q0 69 48.5 115t117.5 46
q82 0 135 -63z" />
    <glyph glyph-name="approxequal" unicode="&#x2248;" horiz-adv-x="525" 
d="M358 434q-32 -1 -94 19.5t-80 22.5q-44 3 -68 -31q-9 -13 -21 -5l-49 30q-12 8 -5 21q17 36 51.5 55t73.5 20q36 1 96.5 -19.5t78.5 -22.5q44 -3 68 31q9 12 21 5l49 -30q12 -8 5 -21q-17 -36 -52 -55t-74 -20zM358 242q-35 -1 -96 19.5t-78 22.5q-43 3 -68 -32
q-9 -12 -21 -5l-49 31q-12 7 -5 21q17 36 52 55t73 19q36 1 96.5 -19.5t78.5 -22.5q43 -3 68 32q9 12 21 5l49 -31q12 -7 5 -21q-17 -36 -52 -55t-74 -19z" />
    <glyph glyph-name="notequal" unicode="&#x2260;" horiz-adv-x="429" 
d="M369 415h-94l-36 -108h130q21 0 21 -21v-50q0 -21 -21 -21h-160l-27 -83q-7 -21 -27 -21h-46q-19 0 -12 21l27 83h-64q-21 0 -21 21v50q0 21 21 21h94l36 108h-130q-21 0 -21 21v50q0 21 21 21h160l27 83q7 21 27 21h46q19 0 12 -21l-27 -83h64q21 0 21 -21v-50
q0 -21 -21 -21z" />
    <glyph glyph-name="lessequal" unicode="&#x2264;" horiz-adv-x="388" 
d="M334 488l-130 -83q-4 -3 -4 -8t4 -8l130 -83q14 -9 14 -30v-82q0 -7 -5 -9t-14 3l-282 194q-8 5 -8 14.5t8 15.5l282 194q6 4 10.5 4t6.5 -2.5t2 -7.5v-82q0 -21 -14 -30zM60 116h268q21 0 21 -21v-50q0 -21 -21 -21h-268q-21 0 -21 21v50q0 21 21 21z" />
    <glyph glyph-name="greaterequal" unicode="&#x2265;" horiz-adv-x="388" 
d="M53 488q-14 10 -14 30v82q0 7 5 9t14 -3l283 -194q8 -6 8 -15.5t-8 -14.5l-283 -194q-6 -4 -10.5 -4t-6.5 2.5t-2 7.5v82q0 20 14 30l130 83q5 3 5 8t-5 8zM328 116q21 0 21 -21v-50q0 -21 -21 -21h-268q-21 0 -21 21v50q0 21 21 21h268z" />
    <glyph glyph-name="lozenge" unicode="&#x25ca;" horiz-adv-x="543" 
d="M499 394q11 -19 0 -38l-212 -357q-5 -8 -15 -8t-15 8l-213 357q-11 19 0 38l213 357q5 8 15 8t15 -8zM377 361q6 9 6 13.5t-6 14.5l-97 169q-9 12 -16 0l-98 -169q-8 -15 0 -28l98 -169q7 -12 16 0z" />
    <glyph glyph-name="i.loclTRK" horiz-adv-x="215" 
d="M108 638q-31 0 -52.5 21.5t-21.5 51.5t21.5 51.5t52.5 21.5q30 0 51 -21.5t21 -51.5t-21 -51.5t-51 -21.5zM146 534q21 0 21 -21v-492q0 -21 -21 -21h-76q-21 0 -21 21v492q0 21 21 21h76z" />
    <glyph glyph-name="zero.tf" horiz-adv-x="451" 
d="M225 -9q-75 0 -128.5 51t-53.5 155v140q0 104 53.5 155t128.5 51t128.5 -51t53.5 -155v-140q0 -104 -53.5 -155t-128.5 -51zM225 98q26 0 44.5 20t18.5 63v172q0 43 -18.5 63t-44.5 20q-25 0 -43.5 -20t-18.5 -63v-172q0 -43 18.5 -63t43.5 -20z" />
    <glyph glyph-name="one.tf" horiz-adv-x="353" 
d="M265 534q20 0 20 -20v-494q0 -20 -20 -20h-80q-20 0 -20 20v361l-57 -58q-14 -14 -28 0l-42 45q-15 15 0 28l124 126q12 12 23 12h80z" />
    <glyph glyph-name="two.tf" horiz-adv-x="419" 
d="M50 0q-20 0 -20 20v54q0 17 14 30l27.5 23.5l30.5 26.5l29 26.5t30 29.5l26 29t24.5 31.5l18.5 30.5t14.5 33t5.5 32q3 34 -14.5 54t-44.5 20q-45 0 -55 -47q-3 -12 -17 -12h-75q-13 0 -13 18q2 70 50 107t115 37q77 0 126.5 -47.5t45.5 -127.5q-2 -43 -20 -83
t-49.5 -75.5t-53 -55t-56.5 -47.5q-7 -5 -10 -8h176q20 0 20 -20v-59q0 -20 -20 -20h-305z" />
    <glyph glyph-name="three.tf" horiz-adv-x="441" 
d="M215 -168q-62 0 -109.5 35t-55.5 109q-2 18 13 18h75q13 0 17 -12q14 -42 54 -42q26 0 44.5 18.5t18.5 56.5v59q0 38 -18.5 56.5t-44.5 18.5h-40q-21 0 -21 21v55q0 21 21 21h40q26 0 44.5 18.5t18.5 57.5v38q0 38 -18.5 57t-44.5 19q-43 0 -54 -42q-4 -12 -17 -12h-75
q-15 0 -13 18q8 74 55.5 108.5t109.5 34.5q76 0 126.5 -48.5t50.5 -152.5v-15q0 -83 -52 -132q52 -50 52 -133v-28q0 -104 -50.5 -153t-126.5 -49z" />
    <glyph glyph-name="four.tf" horiz-adv-x="471" 
d="M431 100q20 0 20 -20v-60q0 -20 -20 -20h-38q-11 0 -14.5 -4t-3.5 -14v-120q0 -20 -20 -20h-74q-20 0 -20 20v120q0 10 -3.5 14t-14.5 4h-197q-20 0 -20 20v59q0 10 10 28l222 415q7 12 23 12h74q20 0 20 -20v-395q0 -11 3.5 -15t14.5 -4h38zM261 119v206l-111 -225h93
q11 0 14.5 4t3.5 15z" />
    <glyph glyph-name="five.tf" horiz-adv-x="442" 
d="M244 322q59 3 104 -45t45 -151v-92q0 -104 -51 -153t-127 -49q-62 0 -109 35t-56 109q-2 18 13 18h76q13 0 17 -12q12 -42 54 -42q26 0 44.5 18.5t18.5 56.5v130q0 39 -18.5 57t-44.5 18q-40 0 -55 -43q-4 -12 -17 -12h-67q-21 0 -21 21l-1 327q0 21 21 21h286
q21 0 21 -21v-70q0 -21 -21 -21h-181q-11 0 -15 -4t-4 -15v-126q33 42 88 45z" />
    <glyph glyph-name="six.tf" horiz-adv-x="462" 
d="M254 417q61 5 110 -38t49 -139v-48q0 -102 -54.5 -151.5t-127.5 -49.5t-127.5 49.5t-54.5 151.5v280q0 104 51 152.5t127 48.5q62 0 109.5 -34.5t55.5 -108.5q2 -18 -13 -18h-75q-13 0 -17 12q-14 42 -55 42q-25 0 -44 -19t-19 -57v-115q34 38 85 42zM293 176v58
q0 39 -18.5 58t-43.5 19t-43.5 -19t-18.5 -58v-58q0 -40 18.5 -59t43.5 -19t43.5 19t18.5 59z" />
    <glyph glyph-name="seven.tf" horiz-adv-x="395" 
d="M336 534q21 0 21 -21v-59q0 -21 -4 -35l-134 -556q-6 -21 -27 -21h-89q-18 0 -12 21l130 547q3 12 -7 12h-163q-21 0 -21 21v70q0 21 21 21h285z" />
    <glyph glyph-name="eight.tf" horiz-adv-x="463" 
d="M231 -9q-76 0 -129 48t-53 139v21q0 90 65 142q-56 47 -56 136v12q0 86 50.5 135t122.5 49q73 0 123.5 -48.5t50.5 -135.5v-12q0 -89 -56 -136q65 -52 65 -142v-21q0 -91 -53 -139t-130 -48zM231 399q26 0 44.5 18.5t18.5 56.5v19q0 38 -19 57t-44 18q-25 0 -43.5 -18.5
t-18.5 -56.5v-19q0 -38 18.5 -56.5t43.5 -18.5zM231 98q26 0 44.5 19t18.5 57v33q0 40 -18.5 59t-44.5 19q-25 0 -43.5 -19t-18.5 -59v-33q0 -38 18.5 -57t43.5 -19z" />
    <glyph glyph-name="nine.tf" horiz-adv-x="470" 
d="M208 88q-61 -4 -110 39t-49 139v76q0 102 54.5 151.5t127.5 49.5t127.5 -49.5t54.5 -151.5v-308q0 -104 -51 -153t-127 -49q-62 0 -109.5 35t-55.5 109q-2 18 13 18h75q13 0 17 -12q14 -42 55 -42q25 0 44 18.5t19 56.5v115q-35 -37 -85 -42zM169 359v-87q0 -39 18.5 -58
t43.5 -19t43.5 19t18.5 58v87q0 39 -18.5 58t-43.5 19t-43.5 -19t-18.5 -58z" />
    <glyph glyph-name="GC_koniec" horiz-adv-x="616" 
 />
    <glyph glyph-name="brzuch_bdpq_gora" horiz-adv-x="531" 
d="M314 267v93q0 40 -19.5 59t-45.5 18t-44 -20.5t-18 -56.5v-19l-41 17v66q11 35 42.5 71t79.5 45q64 12 114 -33t50 -129v-111h-118z" />
    <glyph glyph-name="Brzuchy_nh" horiz-adv-x="559" 
d="M173 391q77 56 154 56q70 0 117.5 -44t47.5 -120v-97h-118v61q0 46 -24 70.5t-64 24.5q-51 0 -99 -38l-9 54z" />
    <glyph glyph-name="brzuch_mu" horiz-adv-x="682" 
d="M173 392q72 55 150 55q69 0 116.5 -44t47.5 -120v-97h-118v61q0 46 -24 70.5t-64 24.5q-48 0 -94 -37z" />
    <glyph glyph-name="brzuch_bdpq_dol" horiz-adv-x="600" 
d="M314 267h118v-111q0 -86 -50.5 -129.5t-116.5 -33.5q-49 9 -81 45.5t-44 72.5v65l47 17v-19q0 -37 18 -56.5t44 -20.5t45.5 18.5t19.5 58.5v93z" />
    <glyph glyph-name="noga_dluga_male" horiz-adv-x="600" 
d="M146 750q21 0 21 -21v-627l-18 -80q-4 -22 -23 -22h-56q-21 0 -21 21v708q0 21 21 21h76z" />
    <glyph glyph-name="noga_krotka_male" horiz-adv-x="600" 
d="M126 534q19 0 23 -22l18 -80v-411q0 -21 -21 -21h-76q-21 0 -21 21v492q0 21 21 21h56z" />
    </font>
</defs>
</svg>
